# Blender v2.78 (sub 0) OBJ File: 'l-sensor-plate.blend'
# www.blender.org
mtllib l-sensor-plate.mtl
o Cube
v 0.250000 -0.250000 0.000000
v 0.250000 -0.250000 0.025000
v -0.250000 -0.250000 0.025000
v -0.250000 -0.250000 0.000000
v 0.250000 0.250000 0.000000
v 0.250000 0.250000 0.025000
v -0.250000 0.250000 0.025000
v -0.250000 0.250000 0.000000
vn 0.0000 -1.0000 0.0000
vn 0.0000 1.0000 0.0000
vn 1.0000 -0.0000 0.0000
vn -0.0000 -0.0000 1.0000
vn -1.0000 -0.0000 -0.0000
vn 0.0000 0.0000 -1.0000
usemtl Material
s off
f 2//1 4//1 1//1
f 8//2 6//2 5//2
f 5//3 2//3 1//3
f 6//4 3//4 2//4
f 7//5 4//5 3//5
f 1//6 8//6 5//6
f 2//1 3//1 4//1
f 8//2 7//2 6//2
f 5//3 6//3 2//3
f 6//4 7//4 3//4
f 7//5 8//5 4//5
f 1//6 4//6 8//6
