# Blender v2.78 (sub 0) OBJ File: 'l-sensor-plate.blend'
# www.blender.org
mtllib l-sensor-plate.mtl
o Cube
v 0.250000 -0.250000 0.000000
v 0.250000 -0.250000 0.025000
v -0.250000 -0.250000 0.025000
v -0.250000 -0.250000 0.000000
v 0.250000 0.250000 0.000000
v 0.250000 0.250000 0.025000
v -0.250000 0.250000 0.025000
v -0.250000 0.250000 0.000000
vt 0.9545 0.0001
vt 0.9545 0.0455
vt 0.0455 0.0455
vt 0.0455 0.0001
vt 0.9545 0.9999
vt 0.0455 0.9999
vt 0.0455 0.9545
vt 0.9545 0.9545
vt 0.9999 0.0455
vt 0.9999 0.9545
vt 0.0001 0.9545
vt 0.0001 0.0455
vt 0.0000 0.0000
vt 0.0000 0.0000
vt 0.0000 0.0000
vt 0.0000 0.0000
vn 0.0000 -1.0000 0.0000
vn 0.0000 1.0000 0.0000
vn 1.0000 0.0000 0.0000
vn -0.0000 -0.0000 1.0000
vn -1.0000 -0.0000 -0.0000
vn 0.0000 0.0000 -1.0000
usemtl Material
s off
f 1/1/1 2/2/1 3/3/1 4/4/1
f 5/5/2 8/6/2 7/7/2 6/8/2
f 1/9/3 5/10/3 6/8/3 2/2/3
f 2/2/4 6/8/4 7/7/4 3/3/4
f 3/3/5 7/7/5 8/11/5 4/12/5
f 5/13/6 1/14/6 4/15/6 8/16/6
