# Blender v2.78 (sub 0) OBJ File: 'ground-3x3x3.blend'
# www.blender.org
mtllib ground-3x3.mtl
o Cube
v 3.000000 0.000000 0.000000
v 2.999998 0.000000 3.000000
v 0.000000 0.000000 2.999999
v 0.000000 0.000000 0.000000
v 3.000000 -0.500000 0.000000
v 2.999998 -0.500000 3.000000
v 0.000000 -0.500000 0.000000
v 0.000000 -0.500000 2.999999
vt 0.9999 0.9999
vt 0.9999 0.0001
vt 0.0001 0.0001
vt 0.0001 0.9999
vt 0.9999 0.9999
vt 0.9999 0.0001
vt 0.0001 0.0001
vt 0.0001 0.9999
vt 0.9999 0.0001
vt 0.0001 0.9999
vn 0.0000 1.0000 0.0000
vn 0.0000 -1.0000 0.0000
vn -0.0000 0.0000 1.0000
vn 1.0000 0.0000 0.0000
vn -1.0000 0.0000 0.0000
vn 0.0000 0.0000 -1.0000
usemtl Concrete
s off
f 1/1/1 4/2/1 3/3/1 2/4/1
f 5/5/2 6/6/2 8/7/2 7/8/2
f 3/3/3 8/7/3 6/6/3 2/9/3
f 2/9/4 6/6/4 5/5/4 1/1/4
f 4/10/5 7/8/5 8/7/5 3/3/5
f 1/1/6 5/5/6 7/8/6 4/10/6
