{
    "accessors": {
        "accessor_index_0": {
            "bufferView": "bufferView_1",
            "byteOffset": 0,
            "byteStride": 0,
            "componentType": 5123,
            "count": 60,
            "max": [
                33
            ],
            "min": [
                0
            ],
            "type": "SCALAR"
        },
        "accessor_index_1": {
            "bufferView": "bufferView_1",
            "byteOffset": 120,
            "byteStride": 0,
            "componentType": 5123,
            "count": 108,
            "max": [
                105
            ],
            "min": [
                34
            ],
            "type": "SCALAR"
        },
        "accessor_index_2": {
            "bufferView": "bufferView_1",
            "byteOffset": 336,
            "byteStride": 0,
            "componentType": 5123,
            "count": 36,
            "max": [
                129
            ],
            "min": [
                106
            ],
            "type": "SCALAR"
        },
        "accessor_index_3": {
            "bufferView": "bufferView_1",
            "byteOffset": 408,
            "byteStride": 0,
            "componentType": 5123,
            "count": 360,
            "max": [
                301
            ],
            "min": [
                130
            ],
            "type": "SCALAR"
        },
        "accessor_normal": {
            "bufferView": "bufferView_0",
            "byteOffset": 3384,
            "byteStride": 0,
            "componentType": 5126,
            "count": 282,
            "max": [
                1,
                1,
                1
            ],
            "min": [
                -1,
                -1,
                -1
            ],
            "type": "VEC3"
        },
        "accessor_position": {
            "bufferView": "bufferView_0",
            "byteOffset": 0,
            "byteStride": 0,
            "componentType": 5126,
            "count": 282,
            "max": [
                3.5,
                6,
                7.5
            ],
            "min": [
                -5.5,
                -0.5,
                -8.5
            ],
            "type": "VEC3"
        },
        "accessor_uv": {
            "bufferView": "bufferView_0",
            "byteOffset": 6768,
            "byteStride": 0,
            "componentType": 5126,
            "count": 282,
            "max": [
                8.208100318908691,
                2.199700117111206
            ],
            "min": [
                -4.981500148773193,
                -0.9997000098228455
            ],
            "type": "VEC2"
        }
    },
    "animations": {},
    "asset": {
        "generator": "OBJ2GLTF",
        "premultipliedAlpha": true,
        "profile": {
            "api": "WebGL",
            "version": "1.0"
        },
        "version": "1.0"
    },
    "bufferViews": {
        "bufferView_0": {
            "buffer": "buffer_0",
            "byteLength": 9024,
            "byteOffset": 0,
            "target": 34962
        },
        "bufferView_1": {
            "buffer": "buffer_0",
            "byteLength": 1128,
            "byteOffset": 9024,
            "target": 34963
        }
    },
    "buffers": {
        "buffer_0": {
            "byteLength": 10152,
            "type": "arraybuffer",
            "uri": "01-outside.bin"
        }
    },
    "cameras": {},
    "extensions": {},
    "extensionsUsed": [],
    "images": {
        "image_Brick_Base_Color.png": {
            "uri": "Brick_Base_Color.png"
        },
        "image_Brick_Height.png": {
            "uri": "Brick_Height.png"
        },
        "image_Brick_Metallic.png": {
            "uri": "Brick_Metallic.png"
        },
        "image_Brick_Normal.png": {
            "uri": "Brick_Normal.png"
        },
        "image_Brick_Roughness.png": {
            "uri": "Brick_Roughness.png"
        },
        "image_Concrete_Base_Color.png": {
            "uri": "Concrete_Base_Color.png"
        },
        "image_Concrete_Height.png": {
            "uri": "Concrete_Height.png"
        },
        "image_Concrete_Metallic.png": {
            "uri": "Concrete_Metallic.png"
        },
        "image_Concrete_Normal.png": {
            "uri": "Concrete_Normal.png"
        },
        "image_Concrete_Roughness.png": {
            "uri": "Concrete_Roughness.png"
        },
        "image_Pavement_Base_Color.png": {
            "uri": "Pavement_Base_Color.png"
        },
        "image_Pavement_Height.png": {
            "uri": "Pavement_Height.png"
        },
        "image_Pavement_Metallic.png": {
            "uri": "Pavement_Metallic.png"
        },
        "image_Pavement_Normal.png": {
            "uri": "Pavement_Normal.png"
        },
        "image_Pavement_Roughness.png": {
            "uri": "Pavement_Roughness.png"
        },
        "image_Steps_Base_Color.png": {
            "uri": "Steps_Base_Color.png"
        },
        "image_Steps_Height.png": {
            "uri": "Steps_Height.png"
        },
        "image_Steps_Metallic.png": {
            "uri": "Steps_Metallic.png"
        },
        "image_Steps_Normal.png": {
            "uri": "Steps_Normal.png"
        },
        "image_Steps_Roughness.png": {
            "uri": "Steps_Roughness.png"
        }
    },
    "materials": {
        "material_Brick": {
            "extensions": {},
            "name": "Brick",
            "values": {
                "ambient": [
                    1,
                    1,
                    1,
                    1
                ],
                "baseColor": "texture_Brick_Base_Color.png",
                "diffuse": [
                    0.64,
                    0.64,
                    0.64,
                    1
                ],
                "emission": [
                    0,
                    0,
                    0,
                    1
                ],
                "height": "texture_Brick_Height.png",
                "metallic": "texture_Brick_Metallic.png",
                "normal": "texture_Brick_Normal.png",
                "roughness": "texture_Brick_Roughness.png",
                "shininess": 96.078431,
                "specular": [
                    0.5,
                    0.5,
                    0.5,
                    1
                ],
                "transparency": 1
            }
        },
        "material_Concrete": {
            "extensions": {},
            "name": "Concrete",
            "values": {
                "ambient": [
                    1,
                    1,
                    1,
                    1
                ],
                "baseColor": "texture_Concrete_Base_Color.png",
                "diffuse": [
                    0.64,
                    0.64,
                    0.64,
                    1
                ],
                "emission": [
                    0,
                    0,
                    0,
                    1
                ],
                "height": "texture_Concrete_Height.png",
                "metallic": "texture_Concrete_Metallic.png",
                "normal": "texture_Concrete_Normal.png",
                "roughness": "texture_Concrete_Roughness.png",
                "shininess": 96.078431,
                "specular": [
                    0.5,
                    0.5,
                    0.5,
                    1
                ],
                "transparency": 1
            }
        },
        "material_Pavement": {
            "extensions": {},
            "name": "Pavement",
            "values": {
                "ambient": [
                    1,
                    1,
                    1,
                    1
                ],
                "baseColor": "texture_Pavement_Base_Color.png",
                "diffuse": [
                    0.64,
                    0.64,
                    0.64,
                    1
                ],
                "emission": [
                    0,
                    0,
                    0,
                    1
                ],
                "height": "texture_Pavement_Height.png",
                "metallic": "texture_Pavement_Metallic.png",
                "normal": "texture_Pavement_Normal.png",
                "roughness": "texture_Pavement_Roughness.png",
                "shininess": 96.078431,
                "specular": [
                    0.5,
                    0.5,
                    0.5,
                    1
                ],
                "transparency": 1
            }
        },
        "material_Steps": {
            "extensions": {},
            "name": "Steps",
            "values": {
                "ambient": [
                    1,
                    1,
                    1,
                    1
                ],
                "baseColor": "texture_Steps_Base_Color.png",
                "diffuse": [
                    0.64,
                    0.64,
                    0.64,
                    1
                ],
                "emission": [
                    0,
                    0,
                    0,
                    1
                ],
                "height": "texture_Steps_Height.png",
                "metallic": "texture_Steps_Metallic.png",
                "normal": "texture_Steps_Normal.png",
                "roughness": "texture_Steps_Roughness.png",
                "shininess": 96.078431,
                "specular": [
                    0.5,
                    0.5,
                    0.5,
                    1
                ],
                "transparency": 1
            }
        }
    },
    "meshes": {
        "mesh_01-outside": {
            "name": "01-outside",
            "primitives": [
                {
                    "attributes": {
                        "NORMAL": "accessor_normal",
                        "POSITION": "accessor_position",
                        "TEXCOORD_0": "accessor_uv"
                    },
                    "indices": "accessor_index_0",
                    "material": "material_Concrete",
                    "mode": 4
                },
                {
                    "attributes": {
                        "NORMAL": "accessor_normal",
                        "POSITION": "accessor_position",
                        "TEXCOORD_0": "accessor_uv"
                    },
                    "indices": "accessor_index_1",
                    "material": "material_Steps",
                    "mode": 4
                },
                {
                    "attributes": {
                        "NORMAL": "accessor_normal",
                        "POSITION": "accessor_position",
                        "TEXCOORD_0": "accessor_uv"
                    },
                    "indices": "accessor_index_2",
                    "material": "material_Pavement",
                    "mode": 4
                },
                {
                    "attributes": {
                        "NORMAL": "accessor_normal",
                        "POSITION": "accessor_position",
                        "TEXCOORD_0": "accessor_uv"
                    },
                    "indices": "accessor_index_3",
                    "material": "material_Brick",
                    "mode": 4
                }
            ]
        }
    },
    "nodes": {
        "rootNode": {
            "children": [],
            "matrix": [
                1,
                0,
                0,
                0,
                0,
                1,
                0,
                0,
                0,
                0,
                1,
                0,
                0,
                0,
                0,
                1
            ],
            "meshes": [
                "mesh_01-outside"
            ]
        }
    },
    "samplers": {
        "sampler_0": {}
    },
    "scene": "scene_01-outside",
    "scenes": {
        "scene_01-outside": {
            "nodes": [
                "rootNode"
            ]
        }
    },
    "skins": {},
    "textures": {
        "texture_Brick_Base_Color.png": {
            "format": 6407,
            "internalFormat": 6407,
            "sampler": "sampler_0",
            "source": "image_Brick_Base_Color.png",
            "target": 3553,
            "type": 5121
        },
        "texture_Brick_Height.png": {
            "format": 6403,
            "internalFormat": 33321,
            "sampler": "sampler_0",
            "source": "image_Brick_Height.png",
            "target": 3553,
            "type": 5121
        },
        "texture_Brick_Metallic.png": {
            "format": 6403,
            "internalFormat": 33321,
            "sampler": "sampler_0",
            "source": "image_Brick_Metallic.png",
            "target": 3553,
            "type": 5121
        },
        "texture_Brick_Normal.png": {
            "format": 6407,
            "internalFormat": 6407,
            "sampler": "sampler_0",
            "source": "image_Brick_Normal.png",
            "target": 3553,
            "type": 5121
        },
        "texture_Brick_Roughness.png": {
            "format": 6403,
            "internalFormat": 33321,
            "sampler": "sampler_0",
            "source": "image_Brick_Roughness.png",
            "target": 3553,
            "type": 5121
        },
        "texture_Concrete_Base_Color.png": {
            "format": 6407,
            "internalFormat": 6407,
            "sampler": "sampler_0",
            "source": "image_Concrete_Base_Color.png",
            "target": 3553,
            "type": 5121
        },
        "texture_Concrete_Height.png": {
            "format": 6403,
            "internalFormat": 33321,
            "sampler": "sampler_0",
            "source": "image_Concrete_Height.png",
            "target": 3553,
            "type": 5121
        },
        "texture_Concrete_Metallic.png": {
            "format": 6403,
            "internalFormat": 33321,
            "sampler": "sampler_0",
            "source": "image_Concrete_Metallic.png",
            "target": 3553,
            "type": 5121
        },
        "texture_Concrete_Normal.png": {
            "format": 6407,
            "internalFormat": 6407,
            "sampler": "sampler_0",
            "source": "image_Concrete_Normal.png",
            "target": 3553,
            "type": 5121
        },
        "texture_Concrete_Roughness.png": {
            "format": 6403,
            "internalFormat": 33321,
            "sampler": "sampler_0",
            "source": "image_Concrete_Roughness.png",
            "target": 3553,
            "type": 5121
        },
        "texture_Pavement_Base_Color.png": {
            "format": 6407,
            "internalFormat": 6407,
            "sampler": "sampler_0",
            "source": "image_Pavement_Base_Color.png",
            "target": 3553,
            "type": 5121
        },
        "texture_Pavement_Height.png": {
            "format": 6403,
            "internalFormat": 33321,
            "sampler": "sampler_0",
            "source": "image_Pavement_Height.png",
            "target": 3553,
            "type": 5121
        },
        "texture_Pavement_Metallic.png": {
            "format": 6403,
            "internalFormat": 33321,
            "sampler": "sampler_0",
            "source": "image_Pavement_Metallic.png",
            "target": 3553,
            "type": 5121
        },
        "texture_Pavement_Normal.png": {
            "format": 6407,
            "internalFormat": 6407,
            "sampler": "sampler_0",
            "source": "image_Pavement_Normal.png",
            "target": 3553,
            "type": 5121
        },
        "texture_Pavement_Roughness.png": {
            "format": 6403,
            "internalFormat": 33321,
            "sampler": "sampler_0",
            "source": "image_Pavement_Roughness.png",
            "target": 3553,
            "type": 5121
        },
        "texture_Steps_Base_Color.png": {
            "format": 6407,
            "internalFormat": 6407,
            "sampler": "sampler_0",
            "source": "image_Steps_Base_Color.png",
            "target": 3553,
            "type": 5121
        },
        "texture_Steps_Height.png": {
            "format": 6403,
            "internalFormat": 33321,
            "sampler": "sampler_0",
            "source": "image_Steps_Height.png",
            "target": 3553,
            "type": 5121
        },
        "texture_Steps_Metallic.png": {
            "format": 6403,
            "internalFormat": 33321,
            "sampler": "sampler_0",
            "source": "image_Steps_Metallic.png",
            "target": 3553,
            "type": 5121
        },
        "texture_Steps_Normal.png": {
            "format": 6407,
            "internalFormat": 6407,
            "sampler": "sampler_0",
            "source": "image_Steps_Normal.png",
            "target": 3553,
            "type": 5121
        },
        "texture_Steps_Roughness.png": {
            "format": 6403,
            "internalFormat": 33321,
            "sampler": "sampler_0",
            "source": "image_Steps_Roughness.png",
            "target": 3553,
            "type": 5121
        }
    }
}