# Blender v2.78 (sub 0) OBJ File: '01-outside.blend'
# www.blender.org
mtllib 01-outside.mtl
o Barrier_Cube.006
v -5.000000 0.000000 -5.800000
v -5.000000 1.500000 -5.800000
v -5.000000 0.000000 -6.000000
v -5.000000 1.500000 -6.000000
v -1.999990 0.000000 -5.800000
v -1.999990 1.090000 -5.800000
v -1.999990 0.000000 -6.000000
v -1.999990 1.090000 -6.000000
v -2.999994 0.000000 -6.000000
v -2.999994 1.500000 -6.000000
v -2.999994 0.000000 -5.800000
v -2.999994 1.500000 -5.800000
vt 0.0000 0.0000
vt 0.0000 0.0000
vt 0.0000 0.0000
vt 0.6095 0.9751
vt 0.9141 0.6430
vt 0.9141 0.9751
vt 0.9999 0.3322
vt 0.9390 0.0001
vt 0.9999 0.0001
vt 0.6095 0.4571
vt 0.0001 0.0001
vt 0.6095 0.0001
vt 0.0000 0.0000
vt 0.0000 0.0000
vt 0.0000 0.0000
vt 0.0001 0.5180
vt 0.6095 0.5180
vt 0.9387 0.4571
vt 0.9387 0.5180
vt 0.9141 0.3322
vt 0.9141 0.0001
vt 0.0001 0.9751
vt 0.0000 0.0000
vt 0.9390 0.3322
vt 0.0001 0.4571
vt 0.0000 0.0000
vn -1.0000 0.0000 0.0000
vn 0.0000 0.0000 -1.0000
vn 1.0000 0.0000 0.0000
vn 0.0000 0.0000 1.0000
vn 0.0000 -1.0000 0.0000
vn 0.0000 1.0000 0.0000
vn 0.3794 0.9253 0.0000
g Barrier_Cube.006_Concrete
usemtl Concrete
s off
f 2/1/1 3/2/1 1/3/1
f 9/4/2 8/5/2 7/6/2
f 8/7/3 5/8/3 7/9/3
f 12/10/4 1/11/4 11/12/4
f 7/13/5 11/14/5 9/15/5
f 4/16/6 12/10/6 10/17/6
f 10/17/7 6/18/7 8/19/7
f 9/15/5 1/3/5 3/2/5
f 6/20/4 11/12/4 5/21/4
f 4/16/2 9/4/2 3/22/2
f 2/1/1 4/23/1 3/2/1
f 9/4/2 10/17/2 8/5/2
f 8/7/3 6/24/3 5/8/3
f 12/10/4 2/25/4 1/11/4
f 7/13/5 5/26/5 11/14/5
f 4/16/6 2/25/6 12/10/6
f 10/17/7 12/10/7 6/18/7
f 9/15/5 11/14/5 1/3/5
f 6/20/4 12/10/4 11/12/4
f 4/16/2 10/17/2 9/4/2
o Steps_Cube.005
v -5.000000 0.000000 -6.000000
v -5.000000 0.600000 -6.000000
v -5.000000 0.000000 -8.000000
v -5.000000 0.600000 -8.000000
v -3.000000 0.000000 -6.000000
v -3.000000 0.600000 -6.000000
v -3.000000 0.000000 -8.000000
v -3.000000 0.600000 -8.000000
v -3.000000 0.000000 -6.000000
v -3.000000 0.400000 -6.000000
v -3.000000 0.000000 -8.000000
v -3.000000 0.400000 -8.000000
v -2.500000 0.000000 -6.000000
v -2.500000 0.400000 -6.000000
v -2.500000 0.000000 -8.000000
v -2.500000 0.400000 -8.000000
v -2.500000 0.000000 -6.000000
v -2.500000 0.200000 -6.000000
v -2.500000 0.000000 -8.000000
v -2.500000 0.200000 -8.000000
v -2.000000 0.000000 -6.000000
v -2.000000 0.200000 -6.000000
v -2.000000 0.000000 -8.000000
v -2.000000 0.200000 -8.000000
vt 0.0000 0.0000
vt 0.0000 0.0000
vt 0.0000 0.0000
vt 0.0000 0.0000
vt 0.0000 0.0000
vt 0.9958 0.8648
vt 0.3355 0.6668
vt 0.9958 0.6668
vt 0.0000 0.0000
vt 0.0000 0.0000
vt 0.0054 0.6668
vt 0.6657 0.0065
vt 0.6657 0.6668
vt 0.0000 0.0000
vt 0.0000 0.0000
vt 0.0000 0.0000
vt 0.0000 0.0000
vt 0.0000 0.0000
vt 0.9958 0.7988
vt 0.3355 0.6668
vt 0.9958 0.6668
vt 0.0000 0.0000
vt 0.0000 0.0000
vt 0.6657 0.6668
vt 0.8307 0.0065
vt 0.8307 0.6668
vt 0.0000 0.0000
vt 0.0000 0.0000
vt 0.0000 0.0000
vt 0.0000 0.0000
vt 0.0000 0.0000
vt 0.9958 0.7328
vt 0.3355 0.6668
vt 0.9958 0.6668
vt 0.0000 0.0000
vt 0.0000 0.0000
vt 0.8307 0.6668
vt 0.9958 0.0065
vt 0.9958 0.6668
vt 0.0000 0.0000
vt 0.3355 0.8648
vt 0.0054 0.0065
vt 0.0000 0.0000
vt 0.3355 0.7988
vt 0.6657 0.0065
vt 0.0000 0.0000
vt 0.3355 0.7328
vt 0.8307 0.0065
vn -1.0000 0.0000 0.0000
vn 0.0000 0.0000 -1.0000
vn 1.0000 0.0000 0.0000
vn 0.0000 0.0000 1.0000
vn 0.0000 -1.0000 0.0000
vn 0.0000 1.0000 0.0000
g Steps_Cube.005_Steps
usemtl Steps
s off
f 14/27/8 15/28/8 13/29/8
f 16/30/9 19/31/9 15/28/9
f 20/32/10 17/33/10 19/34/10
f 18/35/11 13/29/11 17/36/11
f 19/31/12 13/29/12 15/28/12
f 16/37/13 18/38/13 20/39/13
f 22/40/8 23/41/8 21/42/8
f 24/43/9 27/44/9 23/41/9
f 28/45/10 25/46/10 27/47/10
f 26/48/11 21/42/11 25/49/11
f 27/44/12 21/42/12 23/41/12
f 24/50/13 26/51/13 28/52/13
f 30/53/8 31/54/8 29/55/8
f 32/56/9 35/57/9 31/54/9
f 36/58/10 33/59/10 35/60/10
f 34/61/11 29/55/11 33/62/11
f 35/57/12 29/55/12 31/54/12
f 32/63/13 34/64/13 36/65/13
f 14/27/8 16/30/8 15/28/8
f 16/30/9 20/66/9 19/31/9
f 20/32/10 18/67/10 17/33/10
f 18/35/11 14/27/11 13/29/11
f 19/31/12 17/36/12 13/29/12
f 16/37/13 14/68/13 18/38/13
f 22/40/8 24/43/8 23/41/8
f 24/43/9 28/69/9 27/44/9
f 28/45/10 26/70/10 25/46/10
f 26/48/11 22/40/11 21/42/11
f 27/44/12 25/49/12 21/42/12
f 24/50/13 22/71/13 26/51/13
f 30/53/8 32/56/8 31/54/8
f 32/56/9 36/72/9 35/57/9
f 36/58/10 34/73/10 33/59/10
f 34/61/11 30/53/11 29/55/11
f 35/57/12 33/62/12 29/55/12
f 32/63/13 30/74/13 34/64/13
o Ground_Plane
v -5.000000 0.000000 2.000000
v 3.000000 0.000000 2.000000
v -5.000000 0.000000 -8.000000
v 3.000000 0.000000 -8.000000
v -5.000000 0.000000 2.000000
v -5.000000 0.000000 -8.000000
v -5.000000 -0.500000 -8.000000
v -5.000000 -0.500000 2.000000
v 3.000000 -0.500000 2.000000
v 3.000000 -0.500000 -8.000000
vt -1.4996 -1.1997
vt 2.4996 1.9997
vt -1.4996 1.9997
vt 0.0000 0.0000
vt 0.0000 0.0000
vt 0.0000 0.0000
vt 0.0000 0.0000
vt 0.0000 0.0000
vt 0.0000 0.0000
vt 0.0000 0.0000
vt 0.0000 0.0000
vt 2.4996 -1.1997
vn 0.0000 1.0000 0.0000
vn -1.0000 0.0000 0.0000
vn 1.0000 0.0000 0.0000
vn 0.0000 0.0000 1.0000
vn 0.0000 0.0000 -1.0000
g Ground_Plane_Pavement
usemtl Pavement
s off
f 38/75/14 39/76/14 37/77/14
f 45/78/14 43/79/14 44/80/14
f 40/81/15 45/78/15 38/82/15
f 37/83/16 43/79/16 39/84/16
f 39/84/17 46/85/17 40/81/17
f 38/82/18 44/80/18 37/83/18
f 38/75/14 40/86/14 39/76/14
f 45/78/14 46/85/14 43/79/14
f 40/81/15 46/85/15 45/78/15
f 37/83/16 44/80/16 43/79/16
f 39/84/17 43/79/17 46/85/17
f 38/82/18 45/78/18 44/80/18
l 37 41
l 39 42
o Walls_Cube.004
v -5.000000 -0.500000 2.500000
v -5.000000 4.000000 2.500000
v -5.000000 -0.500000 2.000000
v -5.000000 4.000000 2.000000
v 3.000000 -0.500000 2.500000
v 3.000000 4.000000 2.500000
v 3.000000 -0.500000 2.000000
v 3.000000 4.000000 2.000000
v 3.500000 -0.500000 7.500000
v 3.500000 6.000000 7.500000
v 3.000000 -0.500000 7.500000
v 3.000000 6.000000 7.500000
v 3.500000 -0.500000 -8.500000
v 3.500000 6.000000 -8.500000
v 3.000000 -0.500000 -8.000000
v 3.000000 6.000000 -8.000000
v 3.000000 2.750000 7.500000
v 3.000000 -0.500000 -0.500000
v 3.000000 6.000000 -0.500000
v 3.000000 2.750000 -8.000000
v 3.000000 2.750000 -0.500000
v -5.000000 -0.500000 -8.000000
v -5.000000 6.000000 -8.000000
v -5.500000 -0.500000 -8.500000
v -5.500000 6.000000 -8.500000
v 3.000000 -0.500000 -8.000000
v 3.000000 6.000000 -8.000000
v 3.500000 -0.500000 -8.500000
v 3.500000 6.000000 -8.500000
v -5.000000 2.750000 -8.000000
v 3.000000 2.750000 -8.000000
v -1.000000 -0.500000 -8.000000
v -1.000000 6.000000 -8.000000
v -1.000000 2.750000 -8.000000
v -5.000000 -0.500000 7.500000
v -5.000000 6.000000 7.500000
v -5.500000 -0.500000 7.500000
v -5.500000 6.000000 7.500000
v -5.000000 -0.500000 -8.000000
v -5.000000 6.000000 -8.000000
v -5.500000 -0.500000 -8.500000
v -5.500000 6.000000 -8.500000
v -3.000000 0.000000 -6.000000
v -3.000000 0.000000 -8.000000
v -3.000000 0.508306 -8.000000
v -3.000000 0.508306 -6.000000
v -3.000000 0.000000 -8.000000
v -3.000000 0.000000 -6.000000
v -3.000000 0.508306 -8.000000
v -3.000000 0.508306 -6.000000
v -5.000000 3.100000 7.500000
v -5.000000 3.100000 -8.000000
v -5.000000 -0.500000 -6.250000
v -5.000000 6.000000 -6.250000
v -5.000000 3.100000 -6.250000
v -5.000000 0.600000 -8.000000
v -5.000000 -0.500000 -7.375000
v -5.000000 3.100000 -7.750000
v -5.000000 0.600000 -6.250000
v -5.000000 0.600000 -7.750000
v -5.000000 3.100000 -7.750000
v -5.000000 3.100000 -6.250000
v -5.000000 0.600000 -6.250000
v -5.000000 0.600000 -7.750000
v -5.500000 3.100000 -7.750000
v -5.500000 3.100000 -6.250000
v -5.500000 0.600000 -6.250000
v -5.500000 0.600000 -7.750000
v -5.500000 3.100000 7.500000
v -5.500000 -0.500000 -6.250000
v -5.500000 6.000000 -6.250000
v -5.500000 3.100000 -8.500000
v -5.500000 3.100000 -6.250000
v -5.500000 0.600000 -8.500000
v -5.500000 -0.500000 -7.750000
v -5.500000 3.100000 -7.750000
v -5.500000 0.600000 -6.250000
v -5.500000 0.600000 -7.750000
vt 0.0000 0.0000
vt 0.0000 0.0000
vt 0.0000 0.0000
vt -4.9815 0.0054
vt -2.7832 1.2419
vt -4.9815 1.2419
vt 0.0000 0.0000
vt 0.0000 0.0000
vt 0.0000 0.0000
vt -1.0777 0.0045
vt 0.9970 1.1715
vt -1.0777 1.1715
vt 0.0000 0.0000
vt 0.0000 0.0000
vt 0.0000 0.0000
vt 0.0000 0.0000
vt 0.0000 0.0000
vt 6.0099 1.7915
vt 3.8116 0.8984
vt 6.0099 0.8984
vt 0.0000 0.0000
vt 0.0000 0.0000
vt 0.0000 0.0000
vt 0.0000 0.0000
vt 0.0000 0.0000
vt 3.8116 0.0054
vt 6.0099 0.0054
vt 8.2081 0.8985
vt 8.2081 0.0054
vt 8.2081 1.7915
vt 0.0000 0.0000
vt 0.0000 0.0000
vt 0.0000 0.0000
vt 0.0000 0.0000
vt 0.0000 0.0000
vt 0.0000 0.0000
vt 2.7125 1.7915
vt 1.6133 0.8984
vt 2.7125 0.8984
vt 0.0000 0.0000
vt 0.0000 0.0000
vt 1.6133 0.0054
vt 2.7125 0.0054
vt 3.8116 0.8984
vt 3.8116 0.0054
vt 3.8116 1.7915
vt 0.0000 0.0000
vt 0.0000 0.0000
vt 0.0000 0.0000
vt 0.0000 0.0000
vt 0.0000 0.0000
vt 0.0000 0.0000
vt 0.0000 0.0000
vt 0.0000 0.0000
vt 0.9951 1.7915
vt -2.7832 0.9946
vt 0.9951 0.9946
vt 0.0000 0.0000
vt 0.0000 0.0000
vt 0.0000 0.0000
vt 0.0000 0.0000
vt 0.0000 0.0000
vt 0.0000 0.0000
vt 0.9951 0.3077
vt -2.7832 0.0054
vt 0.0000 0.0000
vt 0.0000 0.0000
vt 0.0000 0.0000
vt 1.4073 0.9946
vt 0.0000 0.0000
vt 0.0000 0.0000
vt 0.0000 0.0000
vt 1.6133 0.9946
vt 1.4073 0.3077
vt 1.6133 0.3077
vt 0.0000 0.0000
vt 0.0000 0.0000
vt 0.0000 0.0000
vt 0.0000 0.0000
vt 0.0000 0.0000
vt 0.0000 0.0000
vt 0.0000 0.0000
vt 0.0000 0.0000
vt 0.0000 0.0000
vt 0.0000 0.0000
vt 0.0000 0.0000
vt 0.0000 0.0000
vt 0.0000 0.0000
vt 0.0000 0.0000
vt -2.7832 0.0054
vt 0.9970 0.0045
vt 0.0000 0.0000
vt 0.0000 0.0000
vt 3.8116 1.7915
vt 0.0000 0.0000
vt 0.0000 0.0000
vt 0.0000 0.0000
vt 0.0000 0.0000
vt 0.0000 0.0000
vt 0.0000 0.0000
vt 1.6133 1.7915
vt 0.0000 0.0000
vt 0.0000 0.0000
vt -2.7832 1.7915
vt 0.9951 0.0054
vt 1.6133 1.7915
vn -1.0000 0.0000 0.0000
vn 0.0000 0.0000 -1.0000
vn 1.0000 0.0000 0.0000
vn 0.0000 0.0000 1.0000
vn 0.0000 -1.0000 0.0000
vn 0.0000 1.0000 0.0000
vn -0.7071 0.0000 -0.7071
vn -0.7071 0.0000 0.7071
vn 0.7071 0.0000 0.7071
vn 0.7071 0.0000 -0.7071
g Walls_Cube.004_Brick
usemtl Brick
s off
f 48/87/19 49/88/19 47/89/19
f 50/90/20 53/91/20 49/92/20
f 54/93/21 51/94/21 53/95/21
f 52/96/22 47/97/22 51/98/22
f 53/95/23 47/89/23 49/88/23
f 50/99/24 52/100/24 54/93/24
f 56/101/22 63/102/22 55/103/22
f 65/104/19 66/105/19 67/106/19
f 66/107/25 60/108/25 59/109/25
f 60/108/21 55/103/21 59/109/21
f 64/110/23 59/109/23 55/103/23
f 65/111/24 56/101/24 60/108/24
f 67/106/19 61/112/19 64/113/19
f 63/114/19 64/113/19 57/115/19
f 58/116/19 67/106/19 63/114/19
f 76/117/26 71/118/26 70/119/26
f 71/118/20 74/120/20 70/119/20
f 75/121/27 77/122/27 74/120/27
f 79/123/22 76/124/22 80/125/22
f 74/120/23 78/126/23 70/119/23
f 71/118/24 79/127/24 75/121/24
f 80/125/22 68/128/22 78/129/22
f 77/130/22 78/129/22 72/131/22
f 73/132/22 80/125/22 77/130/22
f 97/133/22 84/134/22 115/135/22
f 88/136/19 118/137/19 122/138/19
f 118/137/28 98/139/28 102/140/28
f 100/141/21 97/142/21 101/143/21
f 121/144/23 103/145/23 116/146/23
f 117/147/24 82/148/24 100/149/24
f 105/150/21 97/142/21 81/151/21
f 106/152/22 107/153/22 110/154/22
f 100/141/21 101/143/21 104/155/21
f 103/145/21 105/156/21 99/157/21
f 85/158/21 106/152/21 103/145/21
f 98/159/21 106/160/21 102/161/21
f 107/153/22 114/162/22 110/154/22
f 101/163/22 109/164/22 108/165/22
f 104/166/22 108/165/22 107/153/22
f 105/156/22 110/154/22 109/164/22
f 122/138/19 120/167/19 124/168/19
f 109/164/20 112/169/20 108/165/20
f 110/154/24 113/170/24 109/164/24
f 108/165/23 111/171/23 107/153/23
f 115/135/19 123/172/19 83/173/19
f 84/134/19 119/174/19 115/135/19
f 124/168/19 87/175/19 121/144/19
f 123/172/19 121/144/19 116/146/19
f 48/87/19 50/99/19 49/88/19
f 50/90/20 54/176/20 53/91/20
f 54/93/21 52/100/21 51/94/21
f 52/96/22 48/177/22 47/97/22
f 53/95/23 51/94/23 47/89/23
f 50/99/24 48/87/24 52/100/24
f 57/178/22 55/103/22 63/102/22
f 56/101/22 58/179/22 63/102/22
f 65/104/19 62/180/19 66/105/19
f 59/109/25 61/181/25 66/107/25
f 66/107/25 62/182/25 60/108/25
f 60/108/21 56/101/21 55/103/21
f 55/103/23 57/178/23 64/110/23
f 64/110/23 61/181/23 59/109/23
f 60/108/24 62/182/24 65/111/24
f 65/111/24 58/179/24 56/101/24
f 67/106/19 66/105/19 61/112/19
f 63/114/19 67/106/19 64/113/19
f 58/116/19 65/104/19 67/106/19
f 70/119/26 68/183/26 76/117/26
f 76/117/26 69/184/26 71/118/26
f 71/118/20 75/121/20 74/120/20
f 72/185/27 74/120/27 77/122/27
f 75/121/27 73/186/27 77/122/27
f 79/123/22 69/187/22 76/124/22
f 68/183/23 70/119/23 78/126/23
f 74/120/23 72/185/23 78/126/23
f 73/186/24 75/121/24 79/127/24
f 71/118/24 69/184/24 79/127/24
f 80/125/22 76/124/22 68/128/22
f 77/130/22 80/125/22 78/129/22
f 73/132/22 79/123/22 80/125/22
f 83/173/22 81/188/22 97/133/22
f 97/133/22 82/148/22 84/134/22
f 115/135/22 83/173/22 97/133/22
f 122/138/19 119/174/19 117/147/19
f 117/147/19 88/136/19 122/138/19
f 85/158/28 87/175/28 120/167/28
f 118/137/28 88/136/28 86/189/28
f 85/158/28 120/167/28 102/140/28
f 86/189/28 98/139/28 118/137/28
f 102/140/28 120/167/28 118/137/28
f 100/141/21 82/190/21 97/142/21
f 81/188/23 83/173/23 116/146/23
f 121/144/23 87/175/23 85/158/23
f 81/188/23 116/146/23 99/157/23
f 85/158/23 103/145/23 121/144/23
f 99/157/23 116/146/23 103/145/23
f 86/189/24 88/136/24 117/147/24
f 117/147/24 84/134/24 82/148/24
f 100/149/24 86/189/24 117/147/24
f 81/151/21 99/191/21 105/150/21
f 105/150/21 101/143/21 97/142/21
f 106/152/22 104/166/22 107/153/22
f 104/155/21 98/159/21 86/192/21
f 86/192/21 100/141/21 104/155/21
f 103/145/21 106/152/21 105/156/21
f 85/158/21 102/140/21 106/152/21
f 98/159/21 104/155/21 106/160/21
f 107/153/22 111/171/22 114/162/22
f 101/163/22 105/156/22 109/164/22
f 104/166/22 101/163/22 108/165/22
f 105/156/22 106/152/22 110/154/22
f 122/138/19 118/137/19 120/167/19
f 109/164/20 113/170/20 112/169/20
f 110/154/24 114/162/24 113/170/24
f 108/165/23 112/169/23 111/171/23
f 116/146/19 83/173/19 123/172/19
f 115/135/19 119/174/19 123/172/19
f 84/134/19 117/147/19 119/174/19
f 124/168/19 120/167/19 87/175/19
f 123/172/19 124/168/19 121/144/19
l 91 95
l 92 96
l 93 90
l 89 94
