# Blender v2.78 (sub 0) OBJ File: '01-outside.blend'
# www.blender.org
mtllib 01-outside.mtl
o Walls4_Cube.002
v -5.000000 6.000000 -8.000000
v -5.500000 6.000000 -8.500000
v -5.000000 6.000000 -6.250000
v -5.500000 6.000000 -6.250000
v -5.000000 6.000000 -8.000000
v -5.500000 6.000000 -8.500000
v -5.500000 6.000000 -6.250000
v -5.000000 3.100000 -8.000000
v -5.000000 6.000000 -6.250000
v -5.000000 3.100000 -6.250000
v -5.000000 3.100000 -7.750000
v -5.500000 6.000000 -8.500000
v -5.000000 3.100000 -7.750000
v -5.500000 3.100000 -8.500000
v -5.000000 3.100000 -7.750000
v -5.000000 3.100000 -6.250000
v -5.500000 3.100000 -7.750000
v -5.500000 3.100000 -6.250000
v -5.500000 3.100000 -8.500000
v -5.000000 6.000000 -6.250000
v -5.500000 6.000000 -6.250000
v -5.500000 3.100000 -8.500000
v -5.500000 3.100000 -6.250000
v -5.000000 3.100000 -8.000000
v -5.500000 3.100000 -7.750000
v -5.500000 3.100000 -7.750000
vt 0.0035 -0.0056
vt 0.0035 -0.0056
vt 0.0035 -0.0056
vt 0.0035 -0.0056
vt 0.0035 -0.0056
vt 0.0035 -0.0056
vt 1.6168 0.9890
vt 1.6168 1.7859
vt 1.6168 1.7859
vt 0.9985 1.7859
vt 0.9985 0.9890
vt 1.4107 0.9890
vt 0.0035 -0.0056
vt 0.0035 -0.0056
vt 0.0035 -0.0056
vt 0.0035 -0.0056
vt 0.0035 -0.0056
vt 0.0035 -0.0056
vt 0.0035 -0.0056
vt 0.0035 -0.0056
vt 0.0035 -0.0056
vt 0.0035 -0.0056
vt 0.0035 -0.0056
vt 0.0035 -0.0056
vt 1.6168 0.9890
vt 0.0035 -0.0056
vt 0.0035 -0.0056
vt 0.0035 -0.0056
vn -1.0000 0.0000 0.0000
vn 0.0000 1.0000 0.0000
vn 0.7071 0.0000 -0.7071
vn 1.0000 0.0000 0.0000
vn 0.0000 -1.0000 0.0000
vn 0.0000 0.0000 1.0000
usemtl Brick
s off
f 6/1/1 22/2/1 25/3/1
f 4/4/2 3/5/2 5/6/2
f 8/7/3 12/8/3 5/9/3
f 9/10/4 10/11/4 13/12/4
f 26/13/5 24/14/5 11/15/5
f 15/16/6 26/13/6 11/15/6
f 16/17/6 7/18/6 18/19/6
f 13/20/6 16/17/6 15/16/6
f 16/17/5 17/21/5 15/16/5
f 25/3/1 23/22/1 21/23/1
f 21/23/1 6/1/1 25/3/1
f 6/1/6 21/23/6 4/4/6
f 3/5/6 9/24/6 5/6/6
f 6/1/2 4/4/2 5/6/2
f 8/7/3 14/25/3 12/8/3
f 13/12/4 8/7/4 5/9/4
f 5/9/4 9/10/4 13/12/4
f 26/13/5 19/26/5 24/14/5
f 15/16/6 17/21/6 26/13/6
f 16/17/6 20/27/6 7/18/6
f 13/20/6 10/28/6 16/17/6
f 16/17/5 18/19/5 17/21/5
l 1 2
o Walls3_Cube.001
v -5.000000 -0.500000 -8.000000
v -5.000000 3.100000 -8.000000
v -5.500000 -0.500000 -8.500000
v -5.500000 3.100000 -8.500000
v -5.000000 2.750000 -8.000000
v -5.000000 -0.500000 -6.250000
v -5.500000 -0.500000 -6.250000
v -5.000000 -0.500000 -8.000000
v -5.500000 -0.500000 -8.500000
v -5.000000 3.100000 -8.000000
v -5.000000 -0.500000 -6.250000
v -5.000000 0.600000 -8.000000
v -5.000000 -0.500000 -7.375000
v -5.000000 3.100000 -7.750000
v -5.000000 0.600000 -6.250000
v -5.000000 0.600000 -7.750000
v -5.000000 3.100000 -7.750000
v -5.000000 0.600000 -6.250000
v -5.000000 0.600000 -7.750000
v -5.500000 3.100000 -7.750000
v -5.000000 0.600000 -6.250000
v -5.500000 0.600000 -6.250000
v -5.500000 0.600000 -7.750000
v -5.500000 3.100000 -8.500000
v -5.500000 -0.500000 -6.250000
v -5.000000 3.100000 -8.000000
v -5.500000 3.100000 -8.500000
v -5.500000 0.600000 -6.250000
v -5.500000 0.600000 -8.500000
v -5.500000 -0.500000 -7.750000
v -5.500000 3.100000 -7.750000
v -5.500000 0.600000 -6.250000
v -5.500000 0.600000 -7.750000
vt 0.0035 -0.0056
vt 0.0035 -0.0056
vt 0.0035 -0.0056
vt 0.0035 -0.0056
vt 0.0035 -0.0056
vt 0.0035 -0.0056
vt 0.0035 -0.0056
vt 0.0035 -0.0056
vt 0.0035 -0.0056
vt 0.0035 -0.0056
vt 0.0035 -0.0056
vt 0.0035 -0.0056
vt 1.6168 0.9890
vt 1.4107 0.3020
vt 1.6168 0.3020
vt 0.0035 -0.0056
vt 0.0035 -0.0056
vt 0.0035 -0.0056
vt 0.0035 -0.0056
vt 0.0035 -0.0056
vt 0.0035 -0.0056
vt 0.0035 -0.0056
vt 0.0035 -0.0056
vt 0.0035 -0.0056
vt 0.0035 -0.0056
vt 0.0035 -0.0056
vt 0.0035 -0.0056
vt 0.0035 -0.0056
vt 0.0035 -0.0056
vt 0.0035 -0.0056
vt 0.0035 -0.0056
vt 0.0035 -0.0056
vt 0.0035 -0.0056
vt 1.4107 0.9890
vt 0.0035 -0.0056
vt 0.0035 -0.0056
vn -0.7071 0.0000 0.7071
vn 0.0000 -1.0000 0.0000
vn 0.0000 0.0000 1.0000
vn 1.0000 0.0000 0.0000
vn 0.0000 1.0000 0.0000
vn -1.0000 0.0000 0.0000
usemtl Brick
s off
f 31/29/7 30/30/7 29/31/7
f 56/32/8 39/33/8 33/34/8
f 42/35/9 43/36/9 45/37/9
f 39/33/10 41/38/10 37/39/10
f 34/40/10 42/35/10 39/33/10
f 36/41/10 42/42/10 38/43/10
f 43/36/9 49/44/9 45/37/9
f 32/45/9 54/46/9 33/34/9
f 46/47/11 52/48/11 50/49/11
f 41/38/9 45/37/9 44/50/9
f 57/51/12 55/52/12 59/53/12
f 45/37/11 48/54/11 44/50/11
f 59/53/12 35/55/12 56/32/12
f 58/56/12 56/32/12 51/57/12
f 29/31/7 27/58/7 31/29/7
f 31/29/7 28/59/7 30/30/7
f 33/34/9 51/57/9 56/32/9
f 56/32/8 35/55/8 34/40/8
f 39/33/9 37/39/9 32/45/9
f 56/32/8 34/40/8 39/33/8
f 32/45/8 33/34/8 39/33/8
f 42/35/9 40/60/9 43/36/9
f 39/33/10 42/35/10 41/38/10
f 34/40/10 38/61/10 42/35/10
f 36/41/10 40/62/10 42/42/10
f 43/36/9 46/47/9 49/44/9
f 32/45/9 47/63/9 54/46/9
f 46/47/11 43/36/11 52/48/11
f 41/38/9 42/35/9 45/37/9
f 57/51/12 53/64/12 55/52/12
f 45/37/11 49/44/11 48/54/11
f 59/53/12 55/52/12 35/55/12
f 58/56/12 59/53/12 56/32/12
o Walls2_Cube.000
v -5.500000 3.100000 -6.250000
v -5.000000 3.100000 -6.250000
v -5.500000 -0.500000 7.500000
v -5.000000 -0.500000 7.500000
v -5.000000 6.000000 7.500000
v -5.500000 -0.500000 7.500000
v -5.500000 6.000000 7.500000
v -5.000000 6.000000 -6.250000
v -5.500000 6.000000 -6.250000
v -5.000000 3.100000 7.500000
v -5.000000 -0.500000 -6.250000
v -5.000000 6.000000 -6.250000
v -5.000000 3.100000 -6.250000
v -5.000000 0.600000 -6.250000
v -5.000000 3.100000 -6.250000
v -5.000000 0.600000 -6.250000
v -5.000000 -0.500000 7.500000
v -5.500000 3.100000 -6.250000
v -5.500000 0.600000 -6.250000
v -5.500000 3.100000 7.500000
v -5.500000 -0.500000 -6.250000
v -5.500000 6.000000 -6.250000
v -5.500000 3.100000 -6.250000
v -5.500000 0.600000 -6.250000
v -5.000000 -0.500000 -6.250000
v -5.500000 -0.500000 -6.250000
vt 0.0035 -0.0056
vt 0.0035 -0.0056
vt 0.0035 -0.0056
vt 0.9985 1.7859
vt -2.7797 0.9890
vt 0.9985 0.9890
vt 0.0035 -0.0056
vt 0.0035 -0.0056
vt 0.9985 0.3020
vt -2.7797 -0.0002
vt 0.0035 -0.0056
vt 0.0035 -0.0056
vt 0.0035 -0.0056
vt 0.0035 -0.0056
vt 0.0035 -0.0056
vt 0.0035 -0.0056
vt 0.0035 -0.0056
vt 0.0035 -0.0056
vt 0.0035 -0.0056
vt 0.0035 -0.0056
vt 0.0035 -0.0056
vt 0.0035 -0.0056
vt 0.0035 -0.0056
vt 0.0035 -0.0056
vt -2.7797 1.7859
vt 0.0035 -0.0056
vt 0.0035 -0.0056
vt 0.9985 -0.0002
vt 0.0035 -0.0056
vt 0.0035 -0.0056
vt 0.0035 -0.0056
vt 0.0035 -0.0056
vn 0.0000 0.0000 1.0000
vn 1.0000 0.0000 0.0000
vn 0.0000 1.0000 0.0000
vn 0.0000 0.0000 -1.0000
vn 0.0000 -1.0000 0.0000
vn -1.0000 0.0000 0.0000
usemtl Brick
s off
f 69/65/13 66/66/13 79/67/13
f 71/68/14 69/69/14 72/70/14
f 66/66/15 64/71/15 67/72/15
f 73/73/14 69/69/14 63/74/14
f 72/75/13 75/76/13 74/77/13
f 67/72/16 60/78/16 68/79/16
f 84/80/17 62/81/17 85/82/17
f 75/76/16 77/83/16 74/77/16
f 79/67/18 83/84/18 65/85/18
f 66/66/18 82/86/18 79/67/18
f 75/76/16 85/82/16 78/87/16
f 65/85/13 63/88/13 69/65/13
f 69/65/13 64/71/13 66/66/13
f 79/67/13 65/85/13 69/65/13
f 71/68/14 64/89/14 69/69/14
f 68/79/13 81/90/13 66/66/13
f 64/71/13 71/91/13 67/72/13
f 67/72/15 68/79/15 66/66/15
f 63/74/14 70/92/14 73/73/14
f 73/73/14 72/70/14 69/69/14
f 72/75/13 73/93/13 75/76/13
f 67/72/16 61/94/16 60/78/16
f 84/80/17 76/95/17 62/81/17
f 75/76/16 78/87/16 77/83/16
f 80/96/18 65/85/18 83/84/18
f 79/67/18 82/86/18 83/84/18
f 66/66/18 81/90/18 82/86/18
f 75/76/16 84/80/16 85/82/16
o Barrier_Cube.006
v -5.000000 0.000000 -5.800000
v -5.000000 1.500000 -5.800000
v -5.000000 0.000000 -6.000000
v -5.000000 1.500000 -6.000000
v -1.999990 0.000000 -5.800000
v -1.999990 1.090000 -5.800000
v -1.999990 0.000000 -6.000000
v -1.999990 1.090000 -6.000000
v -2.999994 0.000000 -6.000000
v -2.999994 1.500000 -6.000000
v -2.999994 0.000000 -5.800000
v -2.999994 1.500000 -5.800000
vt 0.0000 0.0000
vt 0.0000 0.0000
vt 0.0000 0.0000
vt 0.6095 0.9751
vt 0.9141 0.6430
vt 0.9141 0.9751
vt 0.9999 0.3322
vt 0.9390 0.0001
vt 0.9999 0.0001
vt 0.6095 0.4571
vt 0.0001 0.0001
vt 0.6095 0.0001
vt 0.0000 0.0000
vt 0.0000 0.0000
vt 0.0000 0.0000
vt 0.0001 0.5180
vt 0.6095 0.5180
vt 0.9387 0.4571
vt 0.9387 0.5180
vt 0.9141 0.3322
vt 0.9141 0.0001
vt 0.0001 0.9751
vt 0.0000 0.0000
vt 0.9390 0.3322
vt 0.0001 0.4571
vt 0.0000 0.0000
vn -1.0000 0.0000 0.0000
vn 0.0000 0.0000 -1.0000
vn 1.0000 0.0000 0.0000
vn 0.0000 0.0000 1.0000
vn 0.0000 -1.0000 0.0000
vn 0.0000 1.0000 0.0000
vn 0.3794 0.9253 0.0000
usemtl Concrete
s off
f 87/97/19 88/98/19 86/99/19
f 94/100/20 93/101/20 92/102/20
f 93/103/21 90/104/21 92/105/21
f 97/106/22 86/107/22 96/108/22
f 92/109/23 96/110/23 94/111/23
f 89/112/24 97/106/24 95/113/24
f 95/113/25 91/114/25 93/115/25
f 94/111/23 86/99/23 88/98/23
f 91/116/22 96/108/22 90/117/22
f 89/112/20 94/100/20 88/118/20
f 87/97/19 89/119/19 88/98/19
f 94/100/20 95/113/20 93/101/20
f 93/103/21 91/120/21 90/104/21
f 97/106/22 87/121/22 86/107/22
f 92/109/23 90/122/23 96/110/23
f 89/112/24 87/121/24 97/106/24
f 95/113/25 97/106/25 91/114/25
f 94/111/23 96/110/23 86/99/23
f 91/116/22 97/106/22 96/108/22
f 89/112/20 95/113/20 94/100/20
o Steps_Cube.005
v -5.000000 0.000000 -6.000000
v -5.000000 0.600000 -6.000000
v -5.000000 0.000000 -8.000000
v -5.000000 0.600000 -8.000000
v -3.000000 0.000000 -6.000000
v -3.000000 0.600000 -6.000000
v -3.000000 0.000000 -8.000000
v -3.000000 0.600000 -8.000000
v -3.000000 0.000000 -6.000000
v -3.000000 0.400000 -6.000000
v -3.000000 0.000000 -8.000000
v -3.000000 0.400000 -8.000000
v -2.500000 0.000000 -6.000000
v -2.500000 0.400000 -6.000000
v -2.500000 0.000000 -8.000000
v -2.500000 0.400000 -8.000000
v -2.500000 0.000000 -6.000000
v -2.500000 0.200000 -6.000000
v -2.500000 0.000000 -8.000000
v -2.500000 0.200000 -8.000000
v -2.000000 0.000000 -6.000000
v -2.000000 0.200000 -6.000000
v -2.000000 0.000000 -8.000000
v -2.000000 0.200000 -8.000000
vt 0.0000 0.0000
vt 0.0000 0.0000
vt 0.0000 0.0000
vt 0.0000 0.0000
vt 0.0000 0.0000
vt 0.9958 0.8648
vt 0.3355 0.6668
vt 0.9958 0.6668
vt 0.0000 0.0000
vt 0.0000 0.0000
vt 0.0054 0.6668
vt 0.6657 0.0065
vt 0.6657 0.6668
vt 0.0000 0.0000
vt 0.0000 0.0000
vt 0.0000 0.0000
vt 0.0000 0.0000
vt 0.0000 0.0000
vt 0.9958 0.7988
vt 0.3355 0.6668
vt 0.9958 0.6668
vt 0.0000 0.0000
vt 0.0000 0.0000
vt 0.6657 0.6668
vt 0.8307 0.0065
vt 0.8307 0.6668
vt 0.0000 0.0000
vt 0.0000 0.0000
vt 0.0000 0.0000
vt 0.0000 0.0000
vt 0.0000 0.0000
vt 0.9958 0.7328
vt 0.3355 0.6668
vt 0.9958 0.6668
vt 0.0000 0.0000
vt 0.0000 0.0000
vt 0.8307 0.6668
vt 0.9958 0.0065
vt 0.9958 0.6668
vt 0.0000 0.0000
vt 0.3355 0.8648
vt 0.0054 0.0065
vt 0.0000 0.0000
vt 0.3355 0.7988
vt 0.6657 0.0065
vt 0.0000 0.0000
vt 0.3355 0.7328
vt 0.8307 0.0065
vn -1.0000 0.0000 0.0000
vn 0.0000 0.0000 -1.0000
vn 1.0000 0.0000 0.0000
vn 0.0000 0.0000 1.0000
vn 0.0000 -1.0000 0.0000
vn 0.0000 1.0000 0.0000
usemtl Steps
s off
f 99/123/26 100/124/26 98/125/26
f 101/126/27 104/127/27 100/124/27
f 105/128/28 102/129/28 104/130/28
f 103/131/29 98/125/29 102/132/29
f 104/127/30 98/125/30 100/124/30
f 101/133/31 103/134/31 105/135/31
f 107/136/26 108/137/26 106/138/26
f 109/139/27 112/140/27 108/137/27
f 113/141/28 110/142/28 112/143/28
f 111/144/29 106/138/29 110/145/29
f 112/140/30 106/138/30 108/137/30
f 109/146/31 111/147/31 113/148/31
f 115/149/26 116/150/26 114/151/26
f 117/152/27 120/153/27 116/150/27
f 121/154/28 118/155/28 120/156/28
f 119/157/29 114/151/29 118/158/29
f 120/153/30 114/151/30 116/150/30
f 117/159/31 119/160/31 121/161/31
f 99/123/26 101/126/26 100/124/26
f 101/126/27 105/162/27 104/127/27
f 105/128/28 103/163/28 102/129/28
f 103/131/29 99/123/29 98/125/29
f 104/127/30 102/132/30 98/125/30
f 101/133/31 99/164/31 103/134/31
f 107/136/26 109/139/26 108/137/26
f 109/139/27 113/165/27 112/140/27
f 113/141/28 111/166/28 110/142/28
f 111/144/29 107/136/29 106/138/29
f 112/140/30 110/145/30 106/138/30
f 109/146/31 107/167/31 111/147/31
f 115/149/26 117/152/26 116/150/26
f 117/152/27 121/168/27 120/153/27
f 121/154/28 119/169/28 118/155/28
f 119/157/29 115/149/29 114/151/29
f 120/153/30 118/158/30 114/151/30
f 117/159/31 115/170/31 119/160/31
o Ground_Plane
v -5.000000 0.000000 2.000000
v 3.000000 0.000000 2.000000
v -5.000000 0.000000 -8.000000
v 3.000000 0.000000 -8.000000
v -5.000000 0.000000 2.000000
v -5.000000 0.000000 -8.000000
v -5.000000 -0.500000 -8.000000
v -5.000000 -0.500000 2.000000
v 3.000000 -0.500000 2.000000
v 3.000000 -0.500000 -8.000000
vt -1.4996 -1.1997
vt 2.4996 1.9997
vt -1.4996 1.9997
vt 0.0000 0.0000
vt 0.0000 0.0000
vt 0.0000 0.0000
vt 0.0000 0.0000
vt 0.0000 0.0000
vt 0.0000 0.0000
vt 0.0000 0.0000
vt 0.0000 0.0000
vt 2.4996 -1.1997
vn 0.0000 1.0000 0.0000
vn -1.0000 0.0000 0.0000
vn 1.0000 0.0000 0.0000
vn 0.0000 0.0000 1.0000
vn 0.0000 0.0000 -1.0000
usemtl Pavement
s off
f 123/171/32 124/172/32 122/173/32
f 130/174/32 128/175/32 129/176/32
f 125/177/33 130/174/33 123/178/33
f 122/179/34 128/175/34 124/180/34
f 124/180/35 131/181/35 125/177/35
f 123/178/36 129/176/36 122/179/36
f 123/171/32 125/182/32 124/172/32
f 130/174/32 131/181/32 128/175/32
f 125/177/33 131/181/33 130/174/33
f 122/179/34 129/176/34 128/175/34
f 124/180/35 128/175/35 131/181/35
f 123/178/36 130/174/36 129/176/36
l 122 126
l 124 127
o Walls1_Cube.004
v -5.000000 -0.500000 2.500000
v -5.000000 4.000000 2.500000
v -5.000000 -0.500000 2.000000
v -5.000000 4.000000 2.000000
v 3.000000 -0.500000 2.500000
v 3.000000 4.000000 2.500000
v 3.000000 -0.500000 2.000000
v 3.000000 4.000000 2.000000
v 3.500000 -0.500000 7.500000
v 3.500000 6.000000 7.500000
v 3.000000 -0.500000 7.500000
v 3.000000 6.000000 7.500000
v 3.500000 -0.500000 -8.500000
v 3.500000 6.000000 -8.500000
v 3.000000 -0.500000 -8.000000
v 3.000000 6.000000 -8.000000
v 3.000000 2.750000 7.500000
v 3.000000 -0.500000 -0.500000
v 3.000000 6.000000 -0.500000
v 3.000000 2.750000 -8.000000
v 3.000000 2.750000 -0.500000
v -5.000000 -0.500000 -8.000000
v -5.000000 6.000000 -8.000000
v -5.500000 -0.500000 -8.500000
v -5.500000 6.000000 -8.500000
v 3.000000 -0.500000 -8.000000
v 3.000000 6.000000 -8.000000
v 3.500000 -0.500000 -8.500000
v 3.500000 6.000000 -8.500000
v -5.000000 2.750000 -8.000000
v 3.000000 2.750000 -8.000000
v -1.000000 -0.500000 -8.000000
v -1.000000 6.000000 -8.000000
v -1.000000 2.750000 -8.000000
vt 0.0035 -0.0056
vt 0.0035 -0.0056
vt 0.0035 -0.0056
vt -4.9780 -0.0002
vt -2.7797 1.2363
vt -4.9780 1.2363
vt 0.0035 -0.0056
vt 0.0035 -0.0056
vt 0.0035 -0.0056
vt -1.0743 -0.0012
vt 1.0005 1.1659
vt -1.0743 1.1659
vt 0.0035 -0.0056
vt 0.0035 -0.0056
vt 0.0035 -0.0056
vt 0.0035 -0.0056
vt 0.0035 -0.0056
vt 6.0133 1.7859
vt 3.8151 0.8928
vt 6.0133 0.8928
vt 0.0035 -0.0056
vt 0.0035 -0.0056
vt 0.0035 -0.0056
vt 0.0035 -0.0056
vt 0.0035 -0.0056
vt 3.8151 -0.0002
vt 6.0133 -0.0002
vt 8.2116 0.8928
vt 8.2116 -0.0002
vt 8.2116 1.7859
vt 0.0035 -0.0056
vt 0.0035 -0.0056
vt 0.0035 -0.0056
vt 0.0035 -0.0056
vt 0.0035 -0.0056
vt 0.0035 -0.0056
vt 2.7159 1.7859
vt 1.6168 0.8928
vt 2.7159 0.8928
vt 0.0035 -0.0056
vt 0.0035 -0.0056
vt 1.6168 -0.0002
vt 2.7159 -0.0002
vt 3.8151 0.8928
vt 3.8151 -0.0002
vt 3.8151 1.7859
vt -2.7797 -0.0002
vt 1.0005 -0.0012
vt 0.0035 -0.0056
vt 0.0035 -0.0056
vt 3.8151 1.7859
vt 0.0035 -0.0056
vt 0.0035 -0.0056
vt 0.0035 -0.0056
vt 0.0035 -0.0056
vt 0.0035 -0.0056
vt 0.0035 -0.0056
vt 1.6168 1.7859
vn -1.0000 0.0000 0.0000
vn 0.0000 0.0000 -1.0000
vn 1.0000 0.0000 0.0000
vn 0.0000 0.0000 1.0000
vn 0.0000 -1.0000 0.0000
vn 0.0000 1.0000 0.0000
vn -0.7071 0.0000 -0.7071
vn -0.7071 0.0000 0.7071
vn 0.7071 0.0000 0.7071
usemtl Brick
s off
f 133/183/37 134/184/37 132/185/37
f 135/186/38 138/187/38 134/188/38
f 139/189/39 136/190/39 138/191/39
f 137/192/40 132/193/40 136/194/40
f 138/191/41 132/185/41 134/184/41
f 135/195/42 137/196/42 139/189/42
f 141/197/40 148/198/40 140/199/40
f 150/200/37 151/201/37 152/202/37
f 151/203/43 145/204/43 144/205/43
f 145/204/39 140/199/39 144/205/39
f 149/206/41 144/205/41 140/199/41
f 150/207/42 141/197/42 145/204/42
f 152/202/37 146/208/37 149/209/37
f 148/210/37 149/209/37 142/211/37
f 143/212/37 152/202/37 148/210/37
f 161/213/44 156/214/44 155/215/44
f 156/214/38 159/216/38 155/215/38
f 160/217/45 162/218/45 159/216/45
f 164/219/40 161/220/40 165/221/40
f 159/216/41 163/222/41 155/215/41
f 156/214/42 164/223/42 160/217/42
f 165/221/40 153/224/40 163/225/40
f 162/226/40 163/225/40 157/227/40
f 158/228/40 165/221/40 162/226/40
f 133/183/37 135/195/37 134/184/37
f 135/186/38 139/229/38 138/187/38
f 139/189/39 137/196/39 136/190/39
f 137/192/40 133/230/40 132/193/40
f 138/191/41 136/190/41 132/185/41
f 135/195/42 133/183/42 137/196/42
f 142/231/40 140/199/40 148/198/40
f 141/197/40 143/232/40 148/198/40
f 150/200/37 147/233/37 151/201/37
f 144/205/43 146/234/43 151/203/43
f 151/203/43 147/235/43 145/204/43
f 145/204/39 141/197/39 140/199/39
f 140/199/41 142/231/41 149/206/41
f 149/206/41 146/234/41 144/205/41
f 145/204/42 147/235/42 150/207/42
f 150/207/42 143/232/42 141/197/42
f 152/202/37 151/201/37 146/208/37
f 148/210/37 152/202/37 149/209/37
f 143/212/37 150/200/37 152/202/37
f 155/215/44 153/236/44 161/213/44
f 161/213/44 154/237/44 156/214/44
f 156/214/38 160/217/38 159/216/38
f 157/238/45 159/216/45 162/218/45
f 160/217/45 158/239/45 162/218/45
f 164/219/40 154/240/40 161/220/40
f 153/236/41 155/215/41 163/222/41
f 159/216/41 157/238/41 163/222/41
f 158/239/42 160/217/42 164/223/42
f 156/214/42 154/237/42 164/223/42
f 165/221/40 161/220/40 153/224/40
f 162/226/40 165/221/40 163/225/40
f 158/228/40 164/219/40 165/221/40
