# Blender v2.78 (sub 0) OBJ File: 'wall-4x3.blend'
# www.blender.org
mtllib wall-4x3.mtl
o Cube
v 3.000000 0.000000 0.000000
v 3.000000 0.000000 1.000000
v -0.000000 0.000000 1.000000
v 0.000000 0.000000 -0.000000
v 3.000000 4.000000 0.000001
v 2.999999 4.000000 1.000001
v -0.000000 4.000000 1.000000
v 0.000000 4.000000 0.000000
vt 0.0000 0.0000
vt 0.0000 0.0000
vt 0.0000 0.0000
vt 0.0000 0.0000
vt 0.0000 0.0000
vt 0.0000 0.0000
vt 0.0000 0.0000
vt 0.0000 0.0000
vt 0.0001 0.9999
vt 0.0001 0.0500
vt 0.7125 0.0500
vt 0.7125 0.9999
vt 0.0001 0.9500
vt 0.0001 0.0001
vt 0.7125 0.0001
vt 0.7125 0.9500
vn 0.0000 -1.0000 0.0000
vn 0.0000 1.0000 0.0000
vn 1.0000 0.0000 0.0000
vn -0.0000 -0.0000 1.0000
vn -1.0000 -0.0000 -0.0000
vn 0.0000 0.0000 -1.0000
usemtl Material
s off
f 1/1/1 2/2/1 3/3/1 4/4/1
f 5/5/2 8/6/2 7/7/2 6/8/2
f 1/1/3 5/5/3 6/8/3 2/2/3
f 2/9/4 6/10/4 7/11/4 3/12/4
f 3/3/5 7/7/5 8/6/5 4/4/5
f 5/13/6 1/14/6 4/15/6 8/16/6
