{
    "accessors": {
        "accessor_0": {
            "bufferView": "bufferView_0",
            "byteOffset": 0,
            "byteStride": 0,
            "componentType": 5126,
            "count": 12,
            "max": [
                1.4500000476837158,
                3.950000047683716,
                0.05000000074505806
            ],
            "min": [
                -1.4500000476837158,
                0.05000000074505806,
                -0.05000000074505806
            ],
            "type": "VEC3"
        },
        "accessor_1": {
            "bufferView": "bufferView_0",
            "byteOffset": 144,
            "byteStride": 0,
            "componentType": 5126,
            "count": 12,
            "max": [
                0,
                0,
                1
            ],
            "min": [
                0,
                0,
                1
            ],
            "type": "VEC3"
        },
        "accessor_2": {
            "bufferView": "bufferView_1",
            "byteOffset": 0,
            "byteStride": 0,
            "componentType": 5123,
            "count": 18,
            "max": [
                11
            ],
            "min": [
                0
            ],
            "type": "SCALAR"
        },
        "accessor_3": {
            "bufferView": "bufferView_0",
            "byteOffset": 288,
            "byteStride": 0,
            "componentType": 5126,
            "count": 24,
            "max": [
                1.5,
                4,
                0.10000099986791611
            ],
            "min": [
                -1.5,
                0,
                -0.10000000149011612
            ],
            "type": "VEC3"
        },
        "accessor_4": {
            "bufferView": "bufferView_0",
            "byteOffset": 576,
            "byteStride": 0,
            "componentType": 5126,
            "count": 24,
            "max": [
                1,
                1,
                1
            ],
            "min": [
                -1,
                -1,
                -1
            ],
            "type": "VEC3"
        },
        "accessor_5": {
            "bufferView": "bufferView_0",
            "byteOffset": 864,
            "byteStride": 0,
            "componentType": 5126,
            "count": 24,
            "max": [
                0.7623999714851379,
                1
            ],
            "min": [
                0,
                0
            ],
            "type": "VEC2"
        },
        "accessor_6": {
            "bufferView": "bufferView_1",
            "byteOffset": 36,
            "byteStride": 0,
            "componentType": 5123,
            "count": 36,
            "max": [
                23
            ],
            "min": [
                0
            ],
            "type": "SCALAR"
        }
    },
    "animations": {},
    "asset": {
        "generator": "obj2gltf",
        "premultipliedAlpha": true,
        "profile": {
            "api": "WebGL",
            "version": "1.0"
        },
        "version": "1.0"
    },
    "bufferViews": {
        "bufferView_0": {
            "buffer": "buffer",
            "byteLength": 1056,
            "byteOffset": 0,
            "target": 34962
        },
        "bufferView_1": {
            "buffer": "buffer",
            "byteLength": 108,
            "byteOffset": 1056,
            "target": 34963
        }
    },
    "buffers": {
        "buffer": {
            "byteLength": 1164,
            "type": "arraybuffer",
            "uri": "data:application/octet-stream;base64,"
        }
    },
    "cameras": {},
    "extensionsUsed": [],
    "images": {
        "image_Material_Base_Color.png": {
            "uri": "Material_Base_Color.png"
        },
        "image_Material_Height.png": {
            "uri": "Material_Height.png"
        },
        "image_Material_Roughness.png": {
            "uri": "Material_Roughness.png"
        }
    },
    "materials": {
        "Material": {
            "values": {
                "ambient": [
                    1,
                    1,
                    1,
                    1
                ],
                "baseColor": "texture_Material_Base_Color.png",
                "diffuse": [
                    0.64,
                    0.64,
                    0.64,
                    1
                ],
                "emission": [
                    0,
                    0,
                    0,
                    1
                ],
                "height": "texture_Material_Height.png",
                "roughness": "texture_Material_Roughness.png",
                "shininess": 96.078431,
                "specular": [
                    0.5,
                    0.5,
                    0.5,
                    1
                ],
                "transparency": 1
            }
        },
        "None": {
            "values": {
                "ambient": [
                    0,
                    0,
                    0,
                    1
                ],
                "diffuse": [
                    0.8,
                    0.8,
                    0.8,
                    1
                ],
                "emission": [
                    0,
                    0,
                    0,
                    1
                ],
                "shininess": 0,
                "specular": [
                    0.8,
                    0.8,
                    0.8,
                    1
                ],
                "transparency": 1
            }
        }
    },
    "meshes": {
        "Cube-Mesh": {
            "name": "Cube-Mesh",
            "primitives": [
                {
                    "attributes": {
                        "NORMAL": "accessor_4",
                        "POSITION": "accessor_3",
                        "TEXCOORD_0": "accessor_5"
                    },
                    "indices": "accessor_6",
                    "material": "Material",
                    "mode": 4
                }
            ]
        },
        "Plane-Mesh": {
            "name": "Plane-Mesh",
            "primitives": [
                {
                    "attributes": {
                        "NORMAL": "accessor_1",
                        "POSITION": "accessor_0"
                    },
                    "indices": "accessor_2",
                    "material": "None",
                    "mode": 4
                }
            ]
        }
    },
    "nodes": {
        "Cube": {
            "children": [],
            "matrix": [
                1,
                0,
                0,
                0,
                0,
                1,
                0,
                0,
                0,
                0,
                1,
                0,
                0,
                0,
                0,
                1
            ],
            "meshes": [
                "Cube-Mesh"
            ],
            "name": "Cube"
        },
        "Plane": {
            "children": [],
            "matrix": [
                1,
                0,
                0,
                0,
                0,
                1,
                0,
                0,
                0,
                0,
                1,
                0,
                0,
                0,
                0,
                1
            ],
            "meshes": [
                "Plane-Mesh"
            ],
            "name": "Plane"
        }
    },
    "samplers": {
        "sampler_0": {}
    },
    "scene": "scene",
    "scenes": {
        "scene": {
            "nodes": [
                "Plane",
                "Cube"
            ]
        }
    },
    "skins": {},
    "textures": {
        "texture_Material_Base_Color.png": {
            "format": 6407,
            "internalFormat": 6407,
            "sampler": "sampler_0",
            "source": "image_Material_Base_Color.png",
            "target": 3553,
            "type": 5121
        },
        "texture_Material_Height.png": {
            "format": 6403,
            "internalFormat": 33321,
            "sampler": "sampler_0",
            "source": "image_Material_Height.png",
            "target": 3553,
            "type": 5121
        },
        "texture_Material_Roughness.png": {
            "format": 6403,
            "internalFormat": 33321,
            "sampler": "sampler_0",
            "source": "image_Material_Roughness.png",
            "target": 3553,
            "type": 5121
        }
    }
}