# Blender v2.78 (sub 0) OBJ File: 'wall-4x3.blend'
# www.blender.org
mtllib wall-4x3.mtl
o Plane
v -1.450000 0.050000 0.050000
v 1.450000 0.050000 0.050000
v -1.450000 3.950000 0.050000
v 1.450000 3.950000 0.050000
v -1.450000 0.050000 -0.000000
v 1.450000 0.050000 -0.000000
v -1.450000 3.950000 0.000000
v 1.450000 3.950000 0.000000
v -1.450000 0.050000 -0.050000
v 1.450000 0.050000 -0.050000
v -1.450000 3.950000 -0.050000
v 1.450000 3.950000 -0.050000
vn 0.0000 -0.0000 1.0000
usemtl None
s off
f 2//1 3//1 1//1
f 6//1 7//1 5//1
f 10//1 11//1 9//1
f 2//1 4//1 3//1
f 6//1 8//1 7//1
f 10//1 12//1 11//1
o Cube
v 1.500000 0.000000 -0.100000
v 1.500000 0.000000 0.100000
v -1.500000 0.000000 0.100000
v -1.500000 0.000000 -0.100000
v 1.500000 4.000000 -0.099999
v 1.499999 4.000000 0.100001
v -1.500000 4.000000 0.100000
v -1.500000 4.000000 -0.100000
vt 0.0000 0.0000
vt 0.0000 0.0000
vt 0.0000 0.0000
vt 0.0000 0.0000
vt 0.0000 0.0000
vt 0.0000 0.0000
vt 0.0001 0.0500
vt 0.0500 1.0000
vt 0.0000 1.0000
vt 0.0500 0.0501
vt 0.7624 1.0000
vt 0.7620 0.9500
vt 0.7120 0.0000
vt 0.7620 0.0000
vt 0.0001 0.0001
vt 0.7125 0.9500
vt 0.0001 0.9500
vt 0.0000 0.0000
vt 0.0000 0.0000
vt 0.0501 0.0500
vt 0.7624 0.0501
vt 0.7120 0.9500
vt 0.7125 0.0001
vn 0.0000 -1.0000 0.0000
vn 0.0000 1.0000 0.0000
vn 1.0000 -0.0000 0.0000
vn -0.0000 -0.0000 1.0000
vn -1.0000 -0.0000 -0.0000
vn 0.0000 0.0000 -1.0000
usemtl Material
s off
f 14/1/2 16/2/2 13/3/2
f 20/4/3 18/5/3 17/6/3
f 17/7/4 14/8/4 13/9/4
f 18/10/5 15/11/5 14/8/5
f 19/12/6 16/13/6 15/14/6
f 13/15/7 20/16/7 17/17/7
f 14/1/2 15/18/2 16/2/2
f 20/4/3 19/19/3 18/5/3
f 17/7/4 18/20/4 14/8/4
f 18/10/5 19/21/5 15/11/5
f 19/12/6 20/22/6 16/13/6
f 13/15/7 16/23/7 20/16/7
