# Blender v2.78 (sub 0) OBJ File: 'door-frame-1.5x2.blend'
# www.blender.org
mtllib door-frame-1.5x2.mtl
o Cube
v -0.037500 0.000000 0.100000
v -0.037500 2.000000 0.100000
v -0.037500 0.000000 0.000000
v -0.037500 2.000000 0.000000
v 0.137500 0.000000 0.100000
v 0.137500 2.000000 0.100000
v 0.137500 0.000000 0.000000
v 0.137500 2.000000 0.000000
vn -1.0000 0.0000 0.0000
vn 0.0000 0.0000 -1.0000
vn 1.0000 0.0000 0.0000
vn 0.0000 0.0000 1.0000
vn 0.0000 -1.0000 0.0000
vn 0.0000 1.0000 0.0000
usemtl None
s off
f 2//1 3//1 1//1
f 4//2 7//2 3//2
f 8//3 5//3 7//3
f 6//4 1//4 5//4
f 7//5 1//5 3//5
f 4//6 6//6 8//6
f 2//1 4//1 3//1
f 4//2 8//2 7//2
f 8//3 6//3 5//3
f 6//4 2//4 1//4
f 7//5 5//5 1//5
f 4//6 2//6 6//6
o Cube.002
v -0.037500 1.900000 1.400000
v -0.037500 2.000000 1.400000
v -0.037500 1.900000 0.100000
v -0.037500 2.000000 0.100000
v 0.137500 1.900000 1.400000
v 0.137500 2.000000 1.400000
v 0.137500 1.900000 0.100000
v 0.137500 2.000000 0.100000
vn -1.0000 0.0000 0.0000
vn 0.0000 0.0000 -1.0000
vn 1.0000 0.0000 0.0000
vn 0.0000 0.0000 1.0000
vn 0.0000 -1.0000 0.0000
vn 0.0000 1.0000 0.0000
usemtl None
s off
f 10//7 11//7 9//7
f 12//8 15//8 11//8
f 16//9 13//9 15//9
f 14//10 9//10 13//10
f 15//11 9//11 11//11
f 12//12 14//12 16//12
f 10//7 12//7 11//7
f 12//8 16//8 15//8
f 16//9 14//9 13//9
f 14//10 10//10 9//10
f 15//11 13//11 9//11
f 12//12 10//12 14//12
o Cube.001
v -0.037500 0.000000 1.500000
v -0.037500 2.000000 1.500000
v -0.037500 0.000000 1.400000
v -0.037500 2.000000 1.400000
v 0.137500 0.000000 1.500000
v 0.137500 2.000000 1.500000
v 0.137500 0.000000 1.400000
v 0.137500 2.000000 1.400000
vn -1.0000 0.0000 0.0000
vn 0.0000 0.0000 -1.0000
vn 1.0000 0.0000 0.0000
vn 0.0000 0.0000 1.0000
vn 0.0000 -1.0000 0.0000
vn 0.0000 1.0000 0.0000
usemtl None
s off
f 18//13 19//13 17//13
f 20//14 23//14 19//14
f 24//15 21//15 23//15
f 22//16 17//16 21//16
f 23//17 17//17 19//17
f 20//18 22//18 24//18
f 18//13 20//13 19//13
f 20//14 24//14 23//14
f 24//15 22//15 21//15
f 22//16 18//16 17//16
f 23//17 21//17 17//17
f 20//18 18//18 22//18
