# Blender v2.78 (sub 0) OBJ File: 'ledge-caged-1x0.5.blend'
# www.blender.org
mtllib ledge-caged-1x0.5.mtl
o Cube.004
v -0.250000 0.900000 0.900000
v -0.250000 1.900000 0.900000
v -0.250000 0.900000 0.850000
v -0.250000 1.900000 0.850000
v -0.200000 0.900000 0.900000
v -0.200000 1.900000 0.900000
v -0.200000 0.900000 0.850000
v -0.200000 1.900000 0.850000
vn -1.0000 0.0000 0.0000
vn 0.0000 0.0000 -1.0000
vn 1.0000 0.0000 0.0000
vn 0.0000 0.0000 1.0000
vn 0.0000 -1.0000 0.0000
vn 0.0000 1.0000 0.0000
usemtl None
s off
f 2//1 3//1 1//1
f 4//2 7//2 3//2
f 8//3 5//3 7//3
f 6//4 1//4 5//4
f 7//5 1//5 3//5
f 4//6 6//6 8//6
f 2//1 4//1 3//1
f 4//2 8//2 7//2
f 8//3 6//3 5//3
f 6//4 2//4 1//4
f 7//5 5//5 1//5
f 4//6 2//6 6//6
o Cube.003
v -0.250000 0.900000 0.650000
v -0.250000 1.900000 0.650000
v -0.250000 0.900000 0.600000
v -0.250000 1.900000 0.600000
v -0.200000 0.900000 0.650000
v -0.200000 1.900000 0.650000
v -0.200000 0.900000 0.600000
v -0.200000 1.900000 0.600000
vn -1.0000 0.0000 0.0000
vn 0.0000 0.0000 -1.0000
vn 1.0000 0.0000 0.0000
vn 0.0000 0.0000 1.0000
vn 0.0000 -1.0000 0.0000
vn 0.0000 1.0000 0.0000
usemtl None
s off
f 10//7 11//7 9//7
f 12//8 15//8 11//8
f 16//9 13//9 15//9
f 14//10 9//10 13//10
f 15//11 9//11 11//11
f 12//12 14//12 16//12
f 10//7 12//7 11//7
f 12//8 16//8 15//8
f 16//9 14//9 13//9
f 14//10 10//10 9//10
f 15//11 13//11 9//11
f 12//12 10//12 14//12
o Cube.002
v -0.250000 0.900000 0.400000
v -0.250000 1.900000 0.400000
v -0.250000 0.900000 0.350000
v -0.250000 1.900000 0.350000
v -0.200000 0.900000 0.400000
v -0.200000 1.900000 0.400000
v -0.200000 0.900000 0.350000
v -0.200000 1.900000 0.350000
vn -1.0000 0.0000 0.0000
vn 0.0000 0.0000 -1.0000
vn 1.0000 0.0000 0.0000
vn 0.0000 0.0000 1.0000
vn 0.0000 -1.0000 0.0000
vn 0.0000 1.0000 0.0000
usemtl None
s off
f 18//13 19//13 17//13
f 20//14 23//14 19//14
f 24//15 21//15 23//15
f 22//16 17//16 21//16
f 23//17 17//17 19//17
f 20//18 22//18 24//18
f 18//13 20//13 19//13
f 20//14 24//14 23//14
f 24//15 22//15 21//15
f 22//16 18//16 17//16
f 23//17 21//17 17//17
f 20//18 18//18 22//18
o Cube.001
v -0.250000 0.900000 0.160000
v -0.250000 1.900000 0.160000
v -0.250000 0.900000 0.110000
v -0.250000 1.900000 0.110000
v -0.200000 0.900000 0.160000
v -0.200000 1.900000 0.160000
v -0.200000 0.900000 0.110000
v -0.200000 1.900000 0.110000
vn -1.0000 0.0000 0.0000
vn 0.0000 0.0000 -1.0000
vn 1.0000 0.0000 0.0000
vn 0.0000 0.0000 1.0000
vn 0.0000 -1.0000 0.0000
vn 0.0000 1.0000 0.0000
usemtl None
s off
f 26//19 27//19 25//19
f 28//20 31//20 27//20
f 32//21 29//21 31//21
f 30//22 25//22 29//22
f 31//23 25//23 27//23
f 28//24 30//24 32//24
f 26//19 28//19 27//19
f 28//20 32//20 31//20
f 32//21 30//21 29//21
f 30//22 26//22 25//22
f 31//23 29//23 25//23
f 28//24 26//24 30//24
o Cube
v -0.200000 0.900000 0.000000
v -0.200000 0.900000 1.000000
v -0.200000 1.000000 1.000000
v -0.200000 1.000000 0.000000
v 0.300000 0.900000 0.000001
v 0.300000 0.900000 1.000000
v 0.300000 1.000000 1.000000
v 0.300000 1.000000 0.000000
v 0.100000 0.000000 0.000000
v 0.100000 0.000000 1.000000
v 0.000000 0.000000 1.000000
v 0.000000 0.000000 0.000000
v 0.100000 0.900000 0.000001
v 0.100000 0.900000 1.000000
v 0.000000 0.900000 1.000000
v 0.000000 0.900000 0.000000
v 0.000000 0.900000 0.400000
v 0.100000 0.900000 0.600000
v 0.000000 0.900000 0.400000
v 0.100000 0.900000 1.000000
v 0.100000 0.900000 0.000001
v 0.100000 0.900000 0.600000
vn -1.0000 0.0000 0.0000
vn 1.0000 0.0000 0.0000
vn 0.0000 -1.0000 0.0000
vn 0.0000 0.0000 1.0000
vn -0.0000 1.0000 0.0000
vn 0.0000 -0.0000 -1.0000
usemtl Material
s off
f 33//25 35//25 36//25
f 37//26 39//26 38//26
f 49//27 47//27 34//27
f 52//28 39//28 35//28
f 35//29 40//29 36//29
f 48//30 36//30 40//30
f 41//27 43//27 44//27
f 47//29 46//29 54//29
f 54//26 46//26 42//26
f 46//28 43//28 42//28
f 47//25 51//25 43//25
f 45//30 44//30 48//30
f 50//27 37//27 38//27
f 33//25 34//25 35//25
f 37//26 40//26 39//26
f 34//27 33//27 49//27
f 48//27 49//27 33//27
f 35//28 34//28 47//28
f 52//28 38//28 39//28
f 35//28 47//28 52//28
f 35//29 39//29 40//29
f 40//30 37//30 53//30
f 48//30 33//30 36//30
f 40//30 53//30 48//30
f 41//27 42//27 43//27
f 54//29 45//29 51//29
f 51//29 47//29 54//29
f 45//29 48//29 51//29
f 42//26 41//26 54//26
f 45//26 54//26 41//26
f 46//28 47//28 43//28
f 44//25 43//25 51//25
f 51//25 48//25 44//25
f 45//30 41//30 44//30
f 45//28 48//28 53//28
f 52//28 47//28 46//28
f 50//28 45//28 53//28
f 38//28 52//28 46//28
f 50//27 53//27 37//27
f 38//27 46//27 50//27
l 49 50
