{
    "accessors": {
        "accessor_index_0": {
            "bufferView": "bufferView_index",
            "byteOffset": 0,
            "byteStride": 0,
            "componentType": 5123,
            "count": 144,
            "type": "SCALAR"
        },
        "accessor_index_1": {
            "bufferView": "bufferView_index",
            "byteOffset": 288,
            "byteStride": 0,
            "componentType": 5123,
            "count": 120,
            "type": "SCALAR"
        },
        "accessor_normal": {
            "bufferView": "bufferView_vertex",
            "byteOffset": 12,
            "byteStride": 24,
            "componentType": 5126,
            "count": 160,
            "type": "VEC3"
        },
        "accessor_position": {
            "bufferView": "bufferView_vertex",
            "byteOffset": 0,
            "byteStride": 24,
            "componentType": 5126,
            "count": 160,
            "max": [
                0.3,
                1.9,
                1
            ],
            "min": [
                -0.25,
                0,
                0
            ],
            "type": "VEC3"
        }
    },
    "asset": {
        "generator": "OBJ2GLTF",
        "premultipliedAlpha": true,
        "profile": {
            "api": "WebGL",
            "version": "1.0"
        },
        "version": 1
    },
    "bufferViews": {
        "bufferView_index": {
            "buffer": "buffer_ledge-caged-1x0.5",
            "byteLength": 528,
            "byteOffset": 3840,
            "target": 34963
        },
        "bufferView_vertex": {
            "buffer": "buffer_ledge-caged-1x0.5",
            "byteLength": 3840,
            "byteOffset": 0,
            "target": 34962
        }
    },
    "buffers": {
        "buffer_ledge-caged-1x0.5": {
            "byteLength": 4368,
            "type": "arraybuffer",
            "uri": "ledge-caged-1x0.5.bin"
        }
    },
    "extensionsUsed": [],
    "images": {},
    "materials": {
        "material_Material": {
            "extensions": {},
            "name": "Material",
            "values": {
                "ambient": [
                    1,
                    1,
                    1,
                    1
                ],
                "diffuse": [
                    0.64,
                    0.64,
                    0.64,
                    1
                ],
                "emission": [
                    0,
                    0,
                    0,
                    1
                ],
                "shininess": 96.078431,
                "specular": [
                    0.5,
                    0.5,
                    0.5,
                    1
                ],
                "transparency": 1
            }
        },
        "material_None": {
            "extensions": {},
            "name": "None",
            "values": {
                "ambient": [
                    0,
                    0,
                    0,
                    1
                ],
                "diffuse": [
                    0.8,
                    0.8,
                    0.8,
                    1
                ],
                "emission": [
                    0,
                    0,
                    0,
                    1
                ],
                "shininess": 0,
                "specular": [
                    0.8,
                    0.8,
                    0.8,
                    1
                ],
                "transparency": 1
            }
        }
    },
    "meshes": {
        "mesh_ledge-caged-1x0.5": {
            "name": "ledge-caged-1x0.5",
            "primitives": [
                {
                    "attributes": {
                        "NORMAL": "accessor_normal",
                        "POSITION": "accessor_position"
                    },
                    "indices": "accessor_index_0",
                    "material": "material_None",
                    "mode": 4
                },
                {
                    "attributes": {
                        "NORMAL": "accessor_normal",
                        "POSITION": "accessor_position"
                    },
                    "indices": "accessor_index_1",
                    "material": "material_Material",
                    "mode": 4
                }
            ]
        }
    },
    "nodes": {
        "node_ledge-caged-1x0.5": {
            "children": [],
            "matrix": [
                1,
                0,
                0,
                0,
                0,
                1,
                0,
                0,
                0,
                0,
                1,
                0,
                0,
                0,
                0,
                1
            ],
            "meshes": [
                "mesh_ledge-caged-1x0.5"
            ],
            "name": "ledge-caged-1x0.5"
        }
    },
    "samplers": {
        "sampler_0": {}
    },
    "scene": "scene_ledge-caged-1x0.5",
    "scenes": {
        "scene_ledge-caged-1x0.5": {
            "nodes": [
                "node_ledge-caged-1x0.5"
            ]
        }
    },
    "textures": {}
}