{
    "accessors": {
        "accessor_0": {
            "bufferView": "bufferView_0",
            "byteOffset": 0,
            "byteStride": 0,
            "componentType": 5126,
            "count": 24,
            "max": [
                -0.20000000298023224,
                1.899999976158142,
                0.8999999761581421
            ],
            "min": [
                -0.25,
                0.8999999761581421,
                0.8500000238418579
            ],
            "type": "VEC3"
        },
        "accessor_1": {
            "bufferView": "bufferView_0",
            "byteOffset": 288,
            "byteStride": 0,
            "componentType": 5126,
            "count": 24,
            "max": [
                1,
                1,
                1
            ],
            "min": [
                -1,
                -1,
                -1
            ],
            "type": "VEC3"
        },
        "accessor_10": {
            "bufferView": "bufferView_0",
            "byteOffset": 2016,
            "byteStride": 0,
            "componentType": 5126,
            "count": 24,
            "max": [
                1,
                1,
                1
            ],
            "min": [
                -1,
                -1,
                -1
            ],
            "type": "VEC3"
        },
        "accessor_11": {
            "bufferView": "bufferView_1",
            "byteOffset": 216,
            "byteStride": 0,
            "componentType": 5123,
            "count": 36,
            "max": [
                23
            ],
            "min": [
                0
            ],
            "type": "SCALAR"
        },
        "accessor_12": {
            "bufferView": "bufferView_0",
            "byteOffset": 2304,
            "byteStride": 0,
            "componentType": 5126,
            "count": 64,
            "max": [
                0.30000001192092896,
                1,
                1
            ],
            "min": [
                -0.20000000298023224,
                0,
                0
            ],
            "type": "VEC3"
        },
        "accessor_13": {
            "bufferView": "bufferView_0",
            "byteOffset": 3072,
            "byteStride": 0,
            "componentType": 5126,
            "count": 64,
            "max": [
                1,
                1,
                1
            ],
            "min": [
                -1,
                -1,
                -1
            ],
            "type": "VEC3"
        },
        "accessor_14": {
            "bufferView": "bufferView_1",
            "byteOffset": 288,
            "byteStride": 0,
            "componentType": 5123,
            "count": 120,
            "max": [
                63
            ],
            "min": [
                0
            ],
            "type": "SCALAR"
        },
        "accessor_2": {
            "bufferView": "bufferView_1",
            "byteOffset": 0,
            "byteStride": 0,
            "componentType": 5123,
            "count": 36,
            "max": [
                23
            ],
            "min": [
                0
            ],
            "type": "SCALAR"
        },
        "accessor_3": {
            "bufferView": "bufferView_0",
            "byteOffset": 576,
            "byteStride": 0,
            "componentType": 5126,
            "count": 24,
            "max": [
                -0.20000000298023224,
                1.899999976158142,
                0.6499999761581421
            ],
            "min": [
                -0.25,
                0.8999999761581421,
                0.6000000238418579
            ],
            "type": "VEC3"
        },
        "accessor_4": {
            "bufferView": "bufferView_0",
            "byteOffset": 864,
            "byteStride": 0,
            "componentType": 5126,
            "count": 24,
            "max": [
                1,
                1,
                1
            ],
            "min": [
                -1,
                -1,
                -1
            ],
            "type": "VEC3"
        },
        "accessor_5": {
            "bufferView": "bufferView_1",
            "byteOffset": 72,
            "byteStride": 0,
            "componentType": 5123,
            "count": 36,
            "max": [
                23
            ],
            "min": [
                0
            ],
            "type": "SCALAR"
        },
        "accessor_6": {
            "bufferView": "bufferView_0",
            "byteOffset": 1152,
            "byteStride": 0,
            "componentType": 5126,
            "count": 24,
            "max": [
                -0.20000000298023224,
                1.899999976158142,
                0.4000000059604645
            ],
            "min": [
                -0.25,
                0.8999999761581421,
                0.3499999940395355
            ],
            "type": "VEC3"
        },
        "accessor_7": {
            "bufferView": "bufferView_0",
            "byteOffset": 1440,
            "byteStride": 0,
            "componentType": 5126,
            "count": 24,
            "max": [
                1,
                1,
                1
            ],
            "min": [
                -1,
                -1,
                -1
            ],
            "type": "VEC3"
        },
        "accessor_8": {
            "bufferView": "bufferView_1",
            "byteOffset": 144,
            "byteStride": 0,
            "componentType": 5123,
            "count": 36,
            "max": [
                23
            ],
            "min": [
                0
            ],
            "type": "SCALAR"
        },
        "accessor_9": {
            "bufferView": "bufferView_0",
            "byteOffset": 1728,
            "byteStride": 0,
            "componentType": 5126,
            "count": 24,
            "max": [
                -0.20000000298023224,
                1.899999976158142,
                0.1599999964237213
            ],
            "min": [
                -0.25,
                0.8999999761581421,
                0.10999999940395355
            ],
            "type": "VEC3"
        }
    },
    "animations": {},
    "asset": {
        "generator": "obj2gltf",
        "premultipliedAlpha": true,
        "profile": {
            "api": "WebGL",
            "version": "1.0"
        },
        "version": "1.0"
    },
    "bufferViews": {
        "bufferView_0": {
            "buffer": "buffer",
            "byteLength": 3840,
            "byteOffset": 0,
            "target": 34962
        },
        "bufferView_1": {
            "buffer": "buffer",
            "byteLength": 528,
            "byteOffset": 3840,
            "target": 34963
        }
    },
    "buffers": {
        "buffer": {
            "byteLength": 4368,
            "type": "arraybuffer",
            "uri": "data:application/octet-stream;base64,"
        }
    },
    "cameras": {},
    "extensionsUsed": [],
    "images": {},
    "materials": {
        "Material": {
            "values": {
                "ambient": [
                    1,
                    1,
                    1,
                    1
                ],
                "diffuse": [
                    0.64,
                    0.64,
                    0.64,
                    1
                ],
                "emission": [
                    0,
                    0,
                    0,
                    1
                ],
                "shininess": 96.078431,
                "specular": [
                    0.5,
                    0.5,
                    0.5,
                    1
                ],
                "transparency": 1
            }
        },
        "None": {
            "values": {
                "ambient": [
                    0,
                    0,
                    0,
                    1
                ],
                "diffuse": [
                    0.8,
                    0.8,
                    0.8,
                    1
                ],
                "emission": [
                    0,
                    0,
                    0,
                    1
                ],
                "shininess": 0,
                "specular": [
                    0.8,
                    0.8,
                    0.8,
                    1
                ],
                "transparency": 1
            }
        }
    },
    "meshes": {
        "Cube-Mesh": {
            "name": "Cube-Mesh",
            "primitives": [
                {
                    "attributes": {
                        "NORMAL": "accessor_13",
                        "POSITION": "accessor_12"
                    },
                    "indices": "accessor_14",
                    "material": "Material",
                    "mode": 4
                }
            ]
        },
        "Cube.001-Mesh": {
            "name": "Cube.001-Mesh",
            "primitives": [
                {
                    "attributes": {
                        "NORMAL": "accessor_10",
                        "POSITION": "accessor_9"
                    },
                    "indices": "accessor_11",
                    "material": "None",
                    "mode": 4
                }
            ]
        },
        "Cube.002-Mesh": {
            "name": "Cube.002-Mesh",
            "primitives": [
                {
                    "attributes": {
                        "NORMAL": "accessor_7",
                        "POSITION": "accessor_6"
                    },
                    "indices": "accessor_8",
                    "material": "None",
                    "mode": 4
                }
            ]
        },
        "Cube.003-Mesh": {
            "name": "Cube.003-Mesh",
            "primitives": [
                {
                    "attributes": {
                        "NORMAL": "accessor_4",
                        "POSITION": "accessor_3"
                    },
                    "indices": "accessor_5",
                    "material": "None",
                    "mode": 4
                }
            ]
        },
        "Cube.004-Mesh": {
            "name": "Cube.004-Mesh",
            "primitives": [
                {
                    "attributes": {
                        "NORMAL": "accessor_1",
                        "POSITION": "accessor_0"
                    },
                    "indices": "accessor_2",
                    "material": "None",
                    "mode": 4
                }
            ]
        }
    },
    "nodes": {
        "Cube": {
            "children": [],
            "matrix": [
                1,
                0,
                0,
                0,
                0,
                1,
                0,
                0,
                0,
                0,
                1,
                0,
                0,
                0,
                0,
                1
            ],
            "meshes": [
                "Cube-Mesh"
            ],
            "name": "Cube"
        },
        "Cube.001": {
            "children": [],
            "matrix": [
                1,
                0,
                0,
                0,
                0,
                1,
                0,
                0,
                0,
                0,
                1,
                0,
                0,
                0,
                0,
                1
            ],
            "meshes": [
                "Cube.001-Mesh"
            ],
            "name": "Cube.001"
        },
        "Cube.002": {
            "children": [],
            "matrix": [
                1,
                0,
                0,
                0,
                0,
                1,
                0,
                0,
                0,
                0,
                1,
                0,
                0,
                0,
                0,
                1
            ],
            "meshes": [
                "Cube.002-Mesh"
            ],
            "name": "Cube.002"
        },
        "Cube.003": {
            "children": [],
            "matrix": [
                1,
                0,
                0,
                0,
                0,
                1,
                0,
                0,
                0,
                0,
                1,
                0,
                0,
                0,
                0,
                1
            ],
            "meshes": [
                "Cube.003-Mesh"
            ],
            "name": "Cube.003"
        },
        "Cube.004": {
            "children": [],
            "matrix": [
                1,
                0,
                0,
                0,
                0,
                1,
                0,
                0,
                0,
                0,
                1,
                0,
                0,
                0,
                0,
                1
            ],
            "meshes": [
                "Cube.004-Mesh"
            ],
            "name": "Cube.004"
        }
    },
    "samplers": {},
    "scene": "scene",
    "scenes": {
        "scene": {
            "nodes": [
                "Cube.004",
                "Cube.003",
                "Cube.002",
                "Cube.001",
                "Cube"
            ]
        }
    },
    "skins": {},
    "textures": {}
}