# Blender v2.78 (sub 0) OBJ File: 'ceiling-3x3.blend'
# www.blender.org
mtllib ceiling-3x3.mtl
o Cube
v 3.000000 0.000000 -3.000000
v 3.000000 0.000000 0.000000
v -0.000000 0.000000 -0.000000
v 0.000000 0.000000 -3.000000
v 3.000000 0.500000 -3.000000
v 3.000000 0.500000 0.000000
v 0.000000 0.500000 -3.000000
v -0.000000 0.500000 -0.000000
vt 0.9999 0.9999
vt 0.0001 0.9999
vt 0.0001 0.0001
vt 0.9999 0.0001
vt 0.0001 0.0001
vt 0.9999 0.0001
vt 0.9999 0.9999
vt 0.0001 0.9999
vt 0.0000 0.0000
vt 0.0000 0.0000
vt 0.0000 0.0000
vt 0.0000 0.0000
vt 0.0000 0.0000
vt 0.0000 0.0000
vt 0.0000 0.0000
vt 0.0000 0.0000
vn 0.0000 -1.0000 0.0000
vn 0.0000 1.0000 0.0000
vn 1.0000 0.0000 0.0000
vn -1.0000 0.0000 -0.0000
vn 0.0000 0.0000 -1.0000
vn -0.0000 0.0000 1.0000
usemtl Material
s off
f 1/1/1 2/2/1 3/3/1 4/4/1
f 5/5/2 7/6/2 8/7/2 6/8/2
f 1/9/3 5/10/3 6/11/3 2/12/3
f 3/13/4 8/14/4 7/15/4 4/16/4
f 4/16/5 7/15/5 5/10/5 1/9/5
f 2/12/6 6/11/6 8/14/6 3/13/6
