{
    "accessors": {
        "accessor_index_0": {
            "bufferView": "bufferView_1",
            "byteOffset": 0,
            "byteStride": 0,
            "componentType": 5123,
            "count": 144,
            "max": [
                192
            ],
            "min": [
                0
            ],
            "type": "SCALAR"
        },
        "accessor_index_1": {
            "bufferView": "bufferView_1",
            "byteOffset": 288,
            "byteStride": 0,
            "componentType": 5123,
            "count": 21,
            "max": [
                74
            ],
            "min": [
                64
            ],
            "type": "SCALAR"
        },
        "accessor_index_2": {
            "bufferView": "bufferView_1",
            "byteOffset": 330,
            "byteStride": 0,
            "componentType": 5123,
            "count": 33,
            "max": [
                89
            ],
            "min": [
                75
            ],
            "type": "SCALAR"
        },
        "accessor_index_3": {
            "bufferView": "bufferView_1",
            "byteOffset": 396,
            "byteStride": 0,
            "componentType": 5123,
            "count": 117,
            "max": [
                160
            ],
            "min": [
                90
            ],
            "type": "SCALAR"
        },
        "accessor_index_4": {
            "bufferView": "bufferView_1",
            "byteOffset": 630,
            "byteStride": 0,
            "componentType": 5123,
            "count": 282,
            "max": [
                371
            ],
            "min": [
                193
            ],
            "type": "SCALAR"
        },
        "accessor_normal": {
            "bufferView": "bufferView_0",
            "byteOffset": 3936,
            "byteStride": 0,
            "componentType": 5126,
            "count": 328,
            "max": [
                1,
                1,
                1
            ],
            "min": [
                -1,
                -1,
                -1
            ],
            "type": "VEC3"
        },
        "accessor_position": {
            "bufferView": "bufferView_0",
            "byteOffset": 0,
            "byteStride": 0,
            "componentType": 5126,
            "count": 328,
            "max": [
                6.5,
                3,
                3
            ],
            "min": [
                -2,
                0,
                -5
            ],
            "type": "VEC3"
        },
        "accessor_uv": {
            "bufferView": "bufferView_0",
            "byteOffset": 7872,
            "byteStride": 0,
            "componentType": 5126,
            "count": 328,
            "max": [
                4.75,
                2
            ],
            "min": [
                -1.25,
                -2
            ],
            "type": "VEC2"
        }
    },
    "animations": {},
    "asset": {
        "generator": "OBJ2GLTF",
        "premultipliedAlpha": true,
        "profile": {
            "api": "WebGL",
            "version": "1.0"
        },
        "version": "1.0"
    },
    "bufferViews": {
        "bufferView_0": {
            "buffer": "buffer_0",
            "byteLength": 10496,
            "byteOffset": 0,
            "target": 34962
        },
        "bufferView_1": {
            "buffer": "buffer_0",
            "byteLength": 1194,
            "byteOffset": 10496,
            "target": 34963
        }
    },
    "buffers": {
        "buffer_0": {
            "byteLength": 11690,
            "type": "arraybuffer",
            "uri": "buffer_0.bin"
        }
    },
    "cameras": {},
    "extensions": {},
    "extensionsUsed": [],
    "images": {
        "image_Ceiling_Base_Color.png": {
            "uri": "Ceiling_Base_Color.png"
        },
        "image_Ceiling_Height.png": {
            "uri": "Ceiling_Height.png"
        },
        "image_Ceiling_Metallic.png": {
            "uri": "Ceiling_Metallic.png"
        },
        "image_Ceiling_Roughness.png": {
            "uri": "Ceiling_Roughness.png"
        },
        "image_Exterior_Base_Color.png": {
            "uri": "Exterior_Base_Color.png"
        },
        "image_Exterior_Height.png": {
            "uri": "Exterior_Height.png"
        },
        "image_Exterior_Metallic.png": {
            "uri": "Exterior_Metallic.png"
        },
        "image_Exterior_Roughness.png": {
            "uri": "Exterior_Roughness.png"
        },
        "image_Floor_Base_Color.png": {
            "uri": "Floor_Base_Color.png"
        },
        "image_Floor_Height.png": {
            "uri": "Floor_Height.png"
        },
        "image_Floor_Metallic.png": {
            "uri": "Floor_Metallic.png"
        },
        "image_Floor_Roughness.png": {
            "uri": "Floor_Roughness.png"
        },
        "image_Pillar_Base_Color.png": {
            "uri": "Pillar_Base_Color.png"
        },
        "image_Pillar_Height.png": {
            "uri": "Pillar_Height.png"
        },
        "image_Pillar_Metallic.png": {
            "uri": "Pillar_Metallic.png"
        },
        "image_Pillar_Roughness.png": {
            "uri": "Pillar_Roughness.png"
        },
        "image_Walls_Base_Color.png": {
            "uri": "Walls_Base_Color.png"
        },
        "image_Walls_Height.png": {
            "uri": "Walls_Height.png"
        },
        "image_Walls_Metallic.png": {
            "uri": "Walls_Metallic.png"
        },
        "image_Walls_Roughness.png": {
            "uri": "Walls_Roughness.png"
        }
    },
    "materials": {
        "material_Ceiling": {
            "extensions": {},
            "name": "Ceiling",
            "values": {
                "ambient": [
                    1,
                    1,
                    1,
                    1
                ],
                "baseColor": "texture_Ceiling_Base_Color.png",
                "diffuse": [
                    0.64,
                    0.64,
                    0.64,
                    1
                ],
                "emission": [
                    0,
                    0,
                    0,
                    1
                ],
                "height": "texture_Ceiling_Height.png",
                "metallic": "texture_Ceiling_Metallic.png",
                "roughness": "texture_Ceiling_Roughness.png",
                "shininess": 96.078431,
                "specular": [
                    0.5,
                    0.5,
                    0.5,
                    1
                ],
                "transparency": 1
            }
        },
        "material_Exterior": {
            "extensions": {},
            "name": "Exterior",
            "values": {
                "ambient": [
                    1,
                    1,
                    1,
                    1
                ],
                "baseColor": "texture_Exterior_Base_Color.png",
                "diffuse": [
                    0.64,
                    0.64,
                    0.64,
                    1
                ],
                "emission": [
                    0,
                    0,
                    0,
                    1
                ],
                "height": "texture_Exterior_Height.png",
                "metallic": "texture_Exterior_Metallic.png",
                "roughness": "texture_Exterior_Roughness.png",
                "shininess": 96.078431,
                "specular": [
                    0.5,
                    0.5,
                    0.5,
                    1
                ],
                "transparency": 1
            }
        },
        "material_Floor": {
            "extensions": {},
            "name": "Floor",
            "values": {
                "ambient": [
                    1,
                    1,
                    1,
                    1
                ],
                "baseColor": "texture_Floor_Base_Color.png",
                "diffuse": [
                    0.64,
                    0.64,
                    0.64,
                    1
                ],
                "emission": [
                    0,
                    0,
                    0,
                    1
                ],
                "height": "texture_Floor_Height.png",
                "metallic": "texture_Floor_Metallic.png",
                "roughness": "texture_Floor_Roughness.png",
                "shininess": 96.078431,
                "specular": [
                    0.5,
                    0.5,
                    0.5,
                    1
                ],
                "transparency": 1
            }
        },
        "material_Pillar": {
            "extensions": {},
            "name": "Pillar",
            "values": {
                "ambient": [
                    1,
                    1,
                    1,
                    1
                ],
                "baseColor": "texture_Pillar_Base_Color.png",
                "diffuse": [
                    0.64,
                    0.64,
                    0.64,
                    1
                ],
                "emission": [
                    0,
                    0,
                    0,
                    1
                ],
                "height": "texture_Pillar_Height.png",
                "metallic": "texture_Pillar_Metallic.png",
                "roughness": "texture_Pillar_Roughness.png",
                "shininess": 96.078431,
                "specular": [
                    0.5,
                    0.5,
                    0.5,
                    1
                ],
                "transparency": 1
            }
        },
        "material_Walls": {
            "extensions": {},
            "name": "Walls",
            "values": {
                "ambient": [
                    1,
                    1,
                    1,
                    1
                ],
                "baseColor": "texture_Walls_Base_Color.png",
                "diffuse": [
                    0.64,
                    0.64,
                    0.64,
                    1
                ],
                "emission": [
                    0,
                    0,
                    0,
                    1
                ],
                "height": "texture_Walls_Height.png",
                "metallic": "texture_Walls_Metallic.png",
                "roughness": "texture_Walls_Roughness.png",
                "shininess": 96.078431,
                "specular": [
                    0.5,
                    0.5,
                    0.5,
                    1
                ],
                "transparency": 1
            }
        }
    },
    "meshes": {
        "mesh_level1": {
            "name": "level1",
            "primitives": [
                {
                    "attributes": {
                        "NORMAL": "accessor_normal",
                        "POSITION": "accessor_position",
                        "TEXCOORD_0": "accessor_uv"
                    },
                    "indices": "accessor_index_0",
                    "material": "material_Pillar",
                    "mode": 4
                },
                {
                    "attributes": {
                        "NORMAL": "accessor_normal",
                        "POSITION": "accessor_position",
                        "TEXCOORD_0": "accessor_uv"
                    },
                    "indices": "accessor_index_1",
                    "material": "material_Floor",
                    "mode": 4
                },
                {
                    "attributes": {
                        "NORMAL": "accessor_normal",
                        "POSITION": "accessor_position",
                        "TEXCOORD_0": "accessor_uv"
                    },
                    "indices": "accessor_index_2",
                    "material": "material_Ceiling",
                    "mode": 4
                },
                {
                    "attributes": {
                        "NORMAL": "accessor_normal",
                        "POSITION": "accessor_position",
                        "TEXCOORD_0": "accessor_uv"
                    },
                    "indices": "accessor_index_3",
                    "material": "material_Exterior",
                    "mode": 4
                },
                {
                    "attributes": {
                        "NORMAL": "accessor_normal",
                        "POSITION": "accessor_position",
                        "TEXCOORD_0": "accessor_uv"
                    },
                    "indices": "accessor_index_4",
                    "material": "material_Walls",
                    "mode": 4
                }
            ]
        }
    },
    "nodes": {
        "rootNode": {
            "children": [],
            "matrix": [
                1,
                0,
                0,
                0,
                0,
                1,
                0,
                0,
                0,
                0,
                1,
                0,
                0,
                0,
                0,
                1
            ],
            "meshes": [
                "mesh_level1"
            ]
        }
    },
    "samplers": {
        "sampler_0": {}
    },
    "scene": "scene_level1",
    "scenes": {
        "scene_level1": {
            "nodes": [
                "rootNode"
            ]
        }
    },
    "skins": {},
    "textures": {
        "texture_Ceiling_Base_Color.png": {
            "format": 6407,
            "internalFormat": 6407,
            "sampler": "sampler_0",
            "source": "image_Ceiling_Base_Color.png",
            "target": 3553,
            "type": 5121
        },
        "texture_Ceiling_Height.png": {
            "format": 6403,
            "internalFormat": 33321,
            "sampler": "sampler_0",
            "source": "image_Ceiling_Height.png",
            "target": 3553,
            "type": 5121
        },
        "texture_Ceiling_Metallic.png": {
            "format": 6403,
            "internalFormat": 33321,
            "sampler": "sampler_0",
            "source": "image_Ceiling_Metallic.png",
            "target": 3553,
            "type": 5121
        },
        "texture_Ceiling_Roughness.png": {
            "format": 6403,
            "internalFormat": 33321,
            "sampler": "sampler_0",
            "source": "image_Ceiling_Roughness.png",
            "target": 3553,
            "type": 5121
        },
        "texture_Exterior_Base_Color.png": {
            "format": 6407,
            "internalFormat": 6407,
            "sampler": "sampler_0",
            "source": "image_Exterior_Base_Color.png",
            "target": 3553,
            "type": 5121
        },
        "texture_Exterior_Height.png": {
            "format": 6403,
            "internalFormat": 33321,
            "sampler": "sampler_0",
            "source": "image_Exterior_Height.png",
            "target": 3553,
            "type": 5121
        },
        "texture_Exterior_Metallic.png": {
            "format": 6403,
            "internalFormat": 33321,
            "sampler": "sampler_0",
            "source": "image_Exterior_Metallic.png",
            "target": 3553,
            "type": 5121
        },
        "texture_Exterior_Roughness.png": {
            "format": 6403,
            "internalFormat": 33321,
            "sampler": "sampler_0",
            "source": "image_Exterior_Roughness.png",
            "target": 3553,
            "type": 5121
        },
        "texture_Floor_Base_Color.png": {
            "format": 6407,
            "internalFormat": 6407,
            "sampler": "sampler_0",
            "source": "image_Floor_Base_Color.png",
            "target": 3553,
            "type": 5121
        },
        "texture_Floor_Height.png": {
            "format": 6403,
            "internalFormat": 33321,
            "sampler": "sampler_0",
            "source": "image_Floor_Height.png",
            "target": 3553,
            "type": 5121
        },
        "texture_Floor_Metallic.png": {
            "format": 6403,
            "internalFormat": 33321,
            "sampler": "sampler_0",
            "source": "image_Floor_Metallic.png",
            "target": 3553,
            "type": 5121
        },
        "texture_Floor_Roughness.png": {
            "format": 6403,
            "internalFormat": 33321,
            "sampler": "sampler_0",
            "source": "image_Floor_Roughness.png",
            "target": 3553,
            "type": 5121
        },
        "texture_Pillar_Base_Color.png": {
            "format": 6407,
            "internalFormat": 6407,
            "sampler": "sampler_0",
            "source": "image_Pillar_Base_Color.png",
            "target": 3553,
            "type": 5121
        },
        "texture_Pillar_Height.png": {
            "format": 6403,
            "internalFormat": 33321,
            "sampler": "sampler_0",
            "source": "image_Pillar_Height.png",
            "target": 3553,
            "type": 5121
        },
        "texture_Pillar_Metallic.png": {
            "format": 6403,
            "internalFormat": 33321,
            "sampler": "sampler_0",
            "source": "image_Pillar_Metallic.png",
            "target": 3553,
            "type": 5121
        },
        "texture_Pillar_Roughness.png": {
            "format": 6403,
            "internalFormat": 33321,
            "sampler": "sampler_0",
            "source": "image_Pillar_Roughness.png",
            "target": 3553,
            "type": 5121
        },
        "texture_Walls_Base_Color.png": {
            "format": 6407,
            "internalFormat": 6407,
            "sampler": "sampler_0",
            "source": "image_Walls_Base_Color.png",
            "target": 3553,
            "type": 5121
        },
        "texture_Walls_Height.png": {
            "format": 6403,
            "internalFormat": 33321,
            "sampler": "sampler_0",
            "source": "image_Walls_Height.png",
            "target": 3553,
            "type": 5121
        },
        "texture_Walls_Metallic.png": {
            "format": 6403,
            "internalFormat": 33321,
            "sampler": "sampler_0",
            "source": "image_Walls_Metallic.png",
            "target": 3553,
            "type": 5121
        },
        "texture_Walls_Roughness.png": {
            "format": 6403,
            "internalFormat": 33321,
            "sampler": "sampler_0",
            "source": "image_Walls_Roughness.png",
            "target": 3553,
            "type": 5121
        }
    }
}