# Blender v2.78 (sub 0) OBJ File: 'level1.blend'
# www.blender.org
mtllib level1.mtl
o Pillar.002_Cube.005
v -0.160000 0.000000 -2.800000
v -0.160000 2.500000 -2.800000
v -0.160000 0.000000 -3.200000
v -0.160000 2.500000 -3.200000
v 0.160000 0.000000 -2.800000
v 0.160000 2.500000 -2.800000
v 0.160000 0.000000 -3.200000
v 0.160000 2.500000 -3.200000
v -0.200000 2.500000 -3.160000
v -0.200000 0.000000 -3.160000
v 0.200000 0.000000 -3.160000
v 0.200000 2.500000 -3.160000
v -0.200000 0.000000 -2.836000
v -0.200000 2.500000 -2.836000
v 0.200000 2.500000 -2.836000
v 0.200000 0.000000 -2.836000
vt 0.1760 1.0000
vt 0.1600 0.0000
vt 0.1760 0.0000
vt 0.4496 1.0000
vt 0.3216 0.0000
vt 0.4496 0.0000
vt 0.3216 1.0000
vt 0.3056 0.0000
vt 0.0160 0.0000
vt 0.1440 1.0000
vt 0.0160 1.0000
vt 0.1440 0.0000
vt 0.1600 1.0000
vt 0.0000 0.0000
vt 0.0000 1.0000
vt 0.3056 1.0000
vt 0.3056 0.0000
vt 0.5792 1.0000
vt 0.4496 0.0000
vt 0.5792 0.0000
vt 0.1600 1.0000
vt 0.3056 1.0000
vt 0.1600 0.0000
vt 0.4496 1.0000
vn -0.7071 0.0000 -0.7071
vn 0.0000 0.0000 -1.0000
vn 0.7071 0.0000 -0.7071
vn 0.0000 0.0000 1.0000
vn -0.6690 0.0000 0.7433
vn 0.6690 0.0000 0.7433
vn -1.0000 0.0000 0.0000
vn 1.0000 0.0000 0.0000
usemtl Pillar
s off
f 9/1/1 3/2/1 10/3/1
f 4/4/2 7/5/2 3/6/2
f 8/7/3 11/8/3 7/5/3
f 6/9/4 1/10/4 5/11/4
f 2/12/5 13/13/5 1/10/5
f 15/14/6 5/11/6 16/15/6
f 14/16/7 10/3/7 13/17/7
f 12/18/8 16/19/8 11/20/8
f 9/1/1 4/21/1 3/2/1
f 4/4/2 8/7/2 7/5/2
f 8/7/3 12/22/3 11/8/3
f 6/9/4 2/12/4 1/10/4
f 2/12/5 14/23/5 13/13/5
f 15/14/6 6/9/6 5/11/6
f 14/16/7 9/1/7 10/3/7
f 12/18/8 15/24/8 16/19/8
o Pillar.001_Cube.005
v -0.160000 0.000000 -0.800000
v -0.160000 2.500000 -0.800000
v -0.160000 0.000000 -1.200000
v -0.160000 2.500000 -1.200000
v 0.160000 0.000000 -0.800000
v 0.160000 2.500000 -0.800000
v 0.160000 0.000000 -1.200000
v 0.160000 2.500000 -1.200000
v -0.200000 2.500000 -1.160000
v -0.200000 0.000000 -1.160000
v 0.200000 0.000000 -1.160000
v 0.200000 2.500000 -1.160000
v -0.200000 0.000000 -0.836000
v -0.200000 2.500000 -0.836000
v 0.200000 2.500000 -0.836000
v 0.200000 0.000000 -0.836000
vt 0.1760 1.0000
vt 0.1600 0.0000
vt 0.1760 0.0000
vt 0.4496 1.0000
vt 0.3216 0.0000
vt 0.4496 0.0000
vt 0.3216 1.0000
vt 0.3056 0.0000
vt 0.0160 0.0000
vt 0.1440 1.0000
vt 0.0160 1.0000
vt 0.1440 0.0000
vt 0.1600 1.0000
vt 0.0000 0.0000
vt 0.0000 1.0000
vt 0.3056 1.0000
vt 0.3056 0.0000
vt 0.5792 1.0000
vt 0.4496 0.0000
vt 0.5792 0.0000
vt 0.1600 1.0000
vt 0.3056 1.0000
vt 0.1600 0.0000
vt 0.4496 1.0000
vn -0.7071 0.0000 -0.7071
vn 0.0000 0.0000 -1.0000
vn 0.7071 0.0000 -0.7071
vn 0.0000 0.0000 1.0000
vn -0.6690 0.0000 0.7433
vn 0.6690 0.0000 0.7433
vn -1.0000 0.0000 0.0000
vn 1.0000 0.0000 0.0000
usemtl Pillar
s off
f 25/25/9 19/26/9 26/27/9
f 20/28/10 23/29/10 19/30/10
f 24/31/11 27/32/11 23/29/11
f 22/33/12 17/34/12 21/35/12
f 18/36/13 29/37/13 17/34/13
f 31/38/14 21/35/14 32/39/14
f 30/40/15 26/27/15 29/41/15
f 28/42/16 32/43/16 27/44/16
f 25/25/9 20/45/9 19/26/9
f 20/28/10 24/31/10 23/29/10
f 24/31/11 28/46/11 27/32/11
f 22/33/12 18/36/12 17/34/12
f 18/36/13 30/47/13 29/37/13
f 31/38/14 22/33/14 21/35/14
f 30/40/15 25/25/15 26/27/15
f 28/42/16 31/48/16 32/43/16
o Floor_Cube.008
v -2.000000 0.000000 3.000000
v -2.000000 0.000000 -5.000000
v 2.000000 0.000000 3.000000
v 2.000000 0.000000 -5.000000
v -2.000000 0.000000 0.000000
v 2.000000 0.000000 0.000000
v 2.000000 0.000000 3.000000
v 2.000000 0.000000 1.000000
v 6.000000 0.000000 3.000000
v 6.000000 0.000000 1.000000
v 2.000000 0.000000 -2.500000
vt 0.0000 0.0000
vt 0.5000 0.3750
vt 0.0000 0.3750
vt 0.5000 0.6875
vt 0.0000 1.0000
vt 0.5000 0.0000
vt 0.7500 0.5000
vt 0.5000 0.5000
vt 0.5000 0.0000
vt 0.5000 1.0000
vt 0.7500 0.0000
vn 0.0000 1.0000 0.0000
usemtl Floor
s off
f 33/49/17 38/50/17 37/51/17
f 37/51/17 43/52/17 34/53/17
f 41/54/17 40/55/17 39/56/17
f 33/49/17 35/57/17 38/50/17
f 36/58/17 34/53/17 43/52/17
f 37/51/17 38/50/17 43/52/17
f 41/54/17 42/59/17 40/55/17
o Ceiling_Cube.007
v -2.000000 2.500000 3.000000
v -2.000000 2.500000 -5.000000
v 2.000000 2.500000 3.000000
v 2.000000 2.500000 -5.000000
v -2.000000 2.500000 0.000000
v 2.000000 2.500000 0.000000
v 2.000000 2.500000 1.000000
v 2.000000 2.500000 3.000000
v 6.000000 2.500000 1.000000
v 6.000000 2.500000 3.000000
v 2.000000 2.500000 -2.500000
v 2.000000 2.500000 -0.500000
v 2.000000 2.500000 -1.900000
v 2.000000 2.500000 -4.500000
v 2.000000 2.500000 -3.100000
vt 0.5000 1.0000
vt 0.0000 0.6250
vt 0.5000 0.6250
vt 0.7500 0.5000
vt 0.5000 0.0000
vt 0.7500 0.0000
vt 0.5000 0.3125
vt 0.0000 0.0000
vt 0.0000 1.0000
vt 0.5000 0.5000
vt 0.5000 0.0000
vt 0.5000 0.0625
vt 0.5000 0.2375
vt 0.5000 0.5625
vt 0.5000 0.3875
vn 0.0000 -1.0000 0.0000
usemtl Ceiling
s off
f 46/60/18 48/61/18 49/62/18
f 52/63/18 51/64/18 50/65/18
f 54/66/18 48/61/18 45/67/18
f 46/60/18 44/68/18 48/61/18
f 52/63/18 53/69/18 51/64/18
f 45/67/18 47/70/18 57/71/18
f 58/72/18 54/66/18 45/67/18
f 45/67/18 57/71/18 58/72/18
f 49/62/18 48/61/18 55/73/18
f 54/66/18 56/74/18 48/61/18
f 55/73/18 48/61/18 56/74/18
o Exterior_Cube.006
v 2.080000 3.000000 0.500000
v 2.080000 0.000000 0.500000
v 6.500000 3.000000 0.500000
v 6.500000 0.000000 0.500000
v 2.080000 0.000000 -5.000000
v 2.080000 0.000000 0.000000
v 2.080000 3.000000 0.000000
v 2.080000 3.000000 0.500000
v 2.080000 0.000000 0.500000
v 2.080000 0.000000 -2.500000
v 2.080000 3.000000 -2.500000
v 2.080000 1.000000 0.000000
v 2.080000 1.000000 -2.500000
v 2.080000 1.000000 -2.500000
v 2.080000 1.000000 0.000000
v 2.080000 1.000000 0.000000
v 2.080000 1.000000 -5.000000
v 2.080000 3.000000 -0.500000
v 2.080000 1.000000 -0.500000
v 2.080000 3.000000 -1.900000
v 2.080000 1.000000 -1.900000
v 2.080000 1.000000 -5.000000
v 2.080000 1.000000 -2.500000
v 2.080000 1.000000 -0.500000
v 2.080000 1.000000 -0.500000
v 2.080000 1.000000 -1.900000
v 2.080000 1.000000 -1.900000
v 2.080000 2.000000 -0.500000
v 2.080000 2.000000 -1.900000
v -2.000000 3.000000 0.500000
v 2.080000 3.000000 0.500000
v -2.000000 3.000000 -5.000000
v 2.080000 3.000000 -5.000000
v -2.000000 3.000000 3.000000
v 6.500000 3.000000 3.000000
v -2.000000 3.000000 0.500000
v 6.500000 3.000000 0.500000
v 6.500000 3.000000 3.000000
v 6.500000 0.000000 3.000000
v 2.080000 1.000000 -3.100000
v 2.080000 3.000000 -3.100000
v 2.080000 2.000000 -3.100000
v 2.080000 3.000000 -5.000000
v 2.080000 2.000000 -5.000000
v 2.080000 2.000000 -4.481274
v 2.080000 1.000000 -5.000000
v 2.080000 1.000000 -4.481274
vt 0.6787 0.0000
vt 0.0000 1.0000
vt 0.0000 0.0000
vt 0.5000 1.0000
vt 0.2500 2.0000
vt 0.2500 0.5000
vt 0.0000 1.0000
vt -1.2500 0.5000
vt 0.0000 0.5000
vt 0.7500 0.0000
vt 0.4500 0.5000
vt 0.4500 0.0000
vt 0.7500 1.0000
vt -0.5000 0.5000
vt 0.7500 0.5000
vt 0.7500 0.5000
vt 0.5000 1.0000
vt 0.5000 0.0000
vt 0.5400 0.7500
vt 0.5400 2.0000
vt 0.5400 0.7500
vt 0.4500 1.0000
vt -0.2500 0.5000
vt 2.5400 0.2500
vt 0.5000 3.0000
vt 0.5000 0.2500
vt 4.7500 0.0000
vt 0.5000 1.2500
vt 0.5000 0.0000
vt 0.2500 2.0000
vt -1.0000 0.5000
vt 0.2500 0.5000
vt 0.7500 -1.0000
vt 1.0500 -0.5000
vt 0.7500 0.0000
vt 0.0500 -0.5000
vt 0.7406 -0.5000
vt 0.0500 0.0000
vt -0.2594 0.5000
vt 0.0000 0.0000
vt 0.0000 0.5000
vt 0.6787 1.0000
vt 0.5000 0.5000
vt 0.5000 1.0000
vt 0.5000 1.0000
vt 0.5000 2.0000
vt -1.2500 1.0000
vt 0.7500 1.0000
vt 0.4500 0.0000
vt 0.4500 0.0000
vt -0.5000 1.0000
vt 0.7500 0.0000
vt 0.7500 0.0000
vt 0.7500 0.0000
vt 0.7500 1.0000
vt 0.5400 2.0000
vt -0.2500 1.0000
vt 2.5400 3.0000
vt 4.7500 1.2500
vt -1.0000 2.0000
vt 1.0500 0.0000
vt 1.0500 -1.0000
vt 1.0000 0.0000
vt 1.0000 -0.5000
vt -0.2594 0.0000
vn 0.0000 0.0000 -1.0000
vn 1.0000 0.0000 0.0000
vn 0.0000 0.0000 1.0000
vn 0.0000 1.0000 0.0000
usemtl Exterior
s off
f 59/75/19 62/76/19 60/77/19
f 70/78/20 66/79/20 67/80/20
f 75/81/20 68/82/20 63/83/20
f 72/84/20 87/85/20 84/86/20
f 71/87/20 64/88/20 68/89/20
f 86/90/20 65/91/20 74/92/20
f 71/93/21 80/94/21 81/95/21
f 78/96/20 86/97/20 87/85/20
f 89/98/22 90/99/22 88/100/22
f 93/101/22 94/102/22 92/103/22
f 61/104/20 97/105/20 62/106/20
f 72/107/20 100/108/20 69/109/20
f 100/110/20 103/111/20 99/112/20
f 103/113/20 104/114/20 102/115/20
f 59/75/19 61/116/19 62/76/19
f 64/117/21 73/118/21 70/78/21
f 74/119/20 65/120/20 66/79/20
f 67/80/20 64/117/20 70/78/20
f 70/78/20 74/119/20 66/79/20
f 75/81/20 71/121/20 68/82/20
f 72/84/20 69/122/20 87/85/20
f 87/85/21 85/123/21 79/124/21
f 69/122/20 78/96/20 87/85/20
f 87/85/21 79/124/21 84/86/21
f 71/87/20 73/125/20 64/88/20
f 82/126/21 77/127/21 83/128/21
f 86/90/20 76/129/20 65/91/20
f 74/92/21 82/126/21 83/128/21
f 83/128/20 86/90/20 74/92/20
f 71/93/21 75/130/21 80/94/21
f 78/96/20 76/131/20 86/97/20
f 89/98/22 91/132/22 90/99/22
f 93/101/22 95/133/22 94/102/22
f 61/104/20 96/134/20 97/105/20
f 99/135/20 69/109/20 100/108/20
f 72/107/20 98/136/20 100/108/20
f 101/137/20 99/112/20 103/111/20
f 103/111/20 102/138/20 101/137/20
f 103/113/20 105/139/20 104/114/20
o Pillar_Cube.005
v -0.160000 0.000000 1.200000
v -0.160000 2.500000 1.200000
v -0.160000 0.000000 0.800000
v -0.160000 2.500000 0.800000
v 0.160000 0.000000 1.200000
v 0.160000 2.500000 1.200000
v 0.160000 0.000000 0.800000
v 0.160000 2.500000 0.800000
v -0.200000 2.500000 0.840000
v -0.200000 0.000000 0.840000
v 0.200000 0.000000 0.840000
v 0.200000 2.500000 0.840000
v -0.200000 0.000000 1.164000
v -0.200000 2.500000 1.164000
v 0.200000 2.500000 1.164000
v 0.200000 0.000000 1.164000
vt 0.1760 1.0000
vt 0.1600 0.0000
vt 0.1760 0.0000
vt 0.4496 1.0000
vt 0.3216 0.0000
vt 0.4496 0.0000
vt 0.3216 1.0000
vt 0.3056 0.0000
vt 0.0160 0.0000
vt 0.1440 1.0000
vt 0.0160 1.0000
vt 0.1440 0.0000
vt 0.1600 1.0000
vt 0.0000 0.0000
vt 0.0000 1.0000
vt 0.3056 1.0000
vt 0.3056 0.0000
vt 0.5792 1.0000
vt 0.4496 0.0000
vt 0.5792 0.0000
vt 0.1600 1.0000
vt 0.3056 1.0000
vt 0.1600 0.0000
vt 0.4496 1.0000
vn -0.7071 0.0000 -0.7071
vn 0.0000 0.0000 -1.0000
vn 0.7071 0.0000 -0.7071
vn 0.0000 0.0000 1.0000
vn -0.6690 0.0000 0.7433
vn 0.6690 0.0000 0.7433
vn -1.0000 0.0000 0.0000
vn 1.0000 0.0000 0.0000
usemtl Pillar
s off
f 114/140/23 108/141/23 115/142/23
f 109/143/24 112/144/24 108/145/24
f 113/146/25 116/147/25 112/144/25
f 111/148/26 106/149/26 110/150/26
f 107/151/27 118/152/27 106/149/27
f 120/153/28 110/150/28 121/154/28
f 119/155/29 115/142/29 118/156/29
f 117/157/30 121/158/30 116/159/30
f 114/140/23 109/160/23 108/141/23
f 109/143/24 113/146/24 112/144/24
f 113/146/25 117/161/25 116/147/25
f 111/148/26 107/151/26 106/149/26
f 107/151/27 119/162/27 118/152/27
f 120/153/28 111/148/28 110/150/28
f 119/155/29 114/140/29 115/142/29
f 117/157/30 120/163/30 121/158/30
o Walls_Cube.001
v -2.000000 0.000000 3.000000
v -2.000000 2.500000 3.000000
v -2.000000 0.000000 -5.000000
v -2.000000 2.500000 -5.000000
v 2.000000 0.000000 3.000000
v 2.000000 2.500000 3.000000
v 2.000000 0.000000 -5.000000
v 2.000000 2.500000 -5.000000
v -2.000000 0.000000 0.000000
v -2.000000 2.500000 0.000000
v 2.000000 0.000000 0.000000
v 2.000000 2.500000 0.000000
v 2.000000 2.500000 1.000000
v 2.000000 2.500000 3.000000
v 2.000000 0.000000 3.000000
v 2.000000 0.000000 1.000000
v 6.000000 2.500000 1.000000
v 6.000000 2.500000 3.000000
v 6.000000 0.000000 3.000000
v 6.000000 0.000000 1.000000
v 2.000000 1.000000 -5.000000
v 2.000000 2.500000 -2.500000
v 2.000000 1.000000 0.000000
v 2.000000 1.000000 -2.500000
v 2.000000 1.000000 -2.500000
v 2.000000 1.000000 -2.500000
v 2.000000 1.000000 0.000000
v 2.000000 1.000000 0.000000
v 2.000000 1.000000 -5.000000
v 2.000000 1.000000 -5.000000
v 2.000000 2.500000 -0.500000
v 2.000000 2.000000 -4.500000
v 2.000000 1.000000 -0.500000
v 2.000000 1.000000 -4.500000
v 2.000000 2.000000 -3.100000
v 2.000000 1.000000 -1.900000
v 2.002068 1.000000 -3.100000
v 2.000000 2.000000 -4.500000
v 2.000000 2.000000 -3.100000
v 2.000000 2.500000 -3.100000
v 2.000000 2.000000 -4.500000
v 2.002068 2.000000 -3.100000
v 2.000000 1.000000 -0.500000
v 2.000000 1.000000 -0.500000
v 2.000000 1.000000 -1.900000
v 2.000000 1.000000 -1.900000
v 2.000000 2.000000 -0.500000
v 2.000000 2.000000 -1.900000
v 2.080000 1.000000 -4.500000
v 2.082068 1.000000 -3.100000
v 2.080000 2.000000 -4.500000
v 2.082068 2.000000 -3.100000
v 2.080000 2.000000 -0.500000
v 2.080000 1.000000 -0.500000
v 2.080000 2.000000 -1.900000
v 2.080000 1.000000 -1.900000
v 2.000000 1.000000 -5.000000
v 2.000000 2.500000 -2.500000
v 2.000000 1.000000 0.000000
v 2.000000 1.000000 -2.500000
v 2.000000 1.000000 -2.500000
v 2.000000 1.000000 -2.500000
v 2.000000 1.000000 0.000000
v 2.000000 1.000000 0.000000
v 2.000000 1.000000 -5.000000
v 2.000000 1.000000 -5.000000
v 2.000000 1.000000 -4.500000
v 2.000000 1.000000 -3.100000
v 2.000000 1.000000 -0.500000
v 2.000000 1.000000 -1.900000
v 2.080000 1.000000 -5.000000
v 2.080000 1.000000 0.000000
v 2.080000 1.000000 -2.500000
v 2.080000 1.000000 -2.500000
v 2.080000 1.000000 -2.500000
v 2.080000 1.000000 0.000000
v 2.080000 1.000000 0.000000
v 2.080000 1.000000 -5.000000
v 2.080000 1.000000 -5.000000
v 2.080000 1.000000 -4.500000
v 2.080000 1.000000 -3.100000
v 2.080000 1.000000 -3.100000
v 2.080000 1.000000 -2.500000
v 2.080000 1.000000 -0.500000
v 2.080000 1.000000 -1.900000
v 2.000000 0.000000 -5.000000
v 2.000000 1.000000 -5.000000
v 2.000000 0.000000 -2.500000
v 2.000000 1.000000 -2.500000
v 2.000000 0.000000 0.000000
v 2.000000 1.000000 0.000000
v 2.000000 2.500000 0.000000
v 2.000000 2.500000 1.000000
v 2.000000 2.500000 -1.900000
v 2.000000 1.000000 -1.900000
v 2.000000 1.000000 0.000000
v 2.000000 1.000000 -0.500000
v 2.000000 2.500000 -0.500000
v 2.000000 2.500000 -1.900000
v 2.000000 2.500000 -4.500000
v 2.000000 2.500000 -3.100000
v 2.000000 2.500000 -4.500000
v 2.000000 1.000000 -4.500000
vt 0.2631 0.8419
vt 0.0000 0.3157
vt 0.2631 0.3157
vt 0.6314 0.0000
vt 0.6314 0.0000
vt 0.7893 0.4210
vt 0.0000 0.0000
vt 0.0000 0.0000
vt 0.0000 0.0000
vt 0.5262 0.8419
vt 0.2631 0.4210
vt 0.5262 0.4210
vt 0.0000 0.0000
vt 0.0000 0.0000
vt 0.0000 0.0000
vt 0.0000 0.0000
vt 0.2631 0.0000
vt 0.2631 0.0000
vt 0.5262 0.4210
vt 0.2631 0.4210
vt 0.8945 0.1052
vt 0.8945 0.4210
vt 0.8945 0.4210
vt 0.0000 0.0000
vt 0.0000 0.0000
vt 0.9998 0.5262
vt 0.7893 0.7893
vt 0.7893 0.5262
vt 0.7893 0.8419
vt 0.5262 0.4210
vt 0.7893 0.4210
vt 0.0000 0.0000
vt 0.0000 0.0000
vt 0.0000 0.0000
vt 0.0000 0.0000
vt 0.0000 0.0000
vt 1.0000 0.2105
vt 0.9998 0.0631
vt 1.0000 0.0000
vt 0.8524 0.7893
vt 0.7893 0.8945
vt 0.7893 0.7893
vt 0.0000 0.0000
vt 0.0000 0.0000
vt 0.0000 0.0000
vt 0.0000 0.0000
vt 0.9472 0.2631
vt 0.9472 0.4104
vt 0.9472 0.2631
vt 0.9558 0.2631
vt 0.9642 0.4104
vt 0.9558 0.4104
vt 0.7893 0.9472
vt 0.7893 0.8840
vt 0.7893 0.6841
vt 0.9642 0.4104
vt 0.9726 0.2631
vt 0.9726 0.4104
vt 0.9556 0.2631
vt 0.9474 0.4104
vt 0.9198 0.5262
vt 0.9282 0.4210
vt 0.9282 0.5262
vt 0.8945 0.5262
vt 0.9030 0.4210
vt 0.9030 0.5262
vt 0.9114 0.5262
vt 0.9198 0.4210
vt 0.9198 0.5262
vt 0.9030 0.5262
vt 0.9114 0.4210
vt 0.9114 0.5262
vt 0.9766 0.7893
vt 0.9682 0.9366
vt 0.9682 0.7893
vt 0.0000 0.0000
vt 0.0000 0.0000
vt 0.0000 0.0000
vt 0.0000 0.0000
vt 0.0000 0.0000
vt 0.0000 0.0000
vt 0.8945 0.3683
vt 0.8945 0.3052
vt 0.8945 0.1052
vt 0.7893 0.6841
vt 0.7893 0.6209
vt 0.7893 0.4210
vt 0.0000 0.0000
vt 0.0000 0.0000
vt 0.8945 0.0000
vt 0.7893 0.2631
vt 0.7893 0.0000
vt 0.8945 0.2631
vt 0.7893 0.5262
vt 0.9998 0.2631
vt 0.8945 0.0000
vt 0.9998 0.0000
vt 0.8524 0.7893
vt 0.9156 0.9472
vt 0.8524 0.9472
vt 0.9472 0.2631
vt 0.8945 0.4210
vt 0.8945 0.2631
vt 0.1052 0.9893
vt 0.0526 0.8419
vt 0.1052 0.8419
vt 0.0526 0.8419
vt 0.0000 0.9893
vt 0.0000 0.8419
vt 0.9682 0.9472
vt 0.9156 0.7893
vt 0.9682 0.7893
vt 0.0000 0.8419
vt 0.5262 0.4210
vt 0.6314 0.0000
vt 0.5262 0.0000
vt 0.7893 0.0000
vt 0.0000 0.0000
vt 0.2631 0.8419
vt 0.0000 0.0000
vt 0.5262 0.0000
vt 0.8945 0.2105
vt 0.9998 0.7893
vt 0.5262 0.8419
vt 0.0000 0.0000
vt 1.0000 0.2631
vt 1.0000 0.2631
vt 1.0000 0.0000
vt 0.7893 0.8945
vt 0.8524 0.9472
vt 0.7893 0.8945
vt 0.7893 0.9472
vt 0.0000 0.0000
vt 0.0000 0.0000
vt 0.9642 0.2631
vt 0.7893 0.9472
vt 0.7893 0.7367
vt 0.7893 0.6841
vt 0.9642 0.2631
vt 0.9558 0.4104
vt 0.9198 0.4210
vt 0.8945 0.4210
vt 0.9114 0.4210
vt 0.9030 0.4210
vt 0.9766 0.9366
vt 0.8945 0.1052
vt 0.8945 0.3683
vt 0.8945 0.1579
vt 0.7893 0.6841
vt 0.7893 0.4736
vt 0.7893 0.4210
vt 0.0000 0.0000
vt 0.8945 0.5262
vt 0.8945 0.2631
vt 0.9156 0.7893
vt 0.9472 0.4210
vt 0.0526 0.9893
vt 0.0526 0.9893
vt 0.9156 0.9472
vn 1.0000 0.0000 0.0000
vn 0.0000 0.0000 1.0000
vn 0.0000 0.0000 -1.0000
vn -1.0000 0.0000 0.0000
vn 0.0000 -1.0000 -0.0000
vn -1.0000 -0.0021 -0.0034
vn 0.0000 1.0000 0.0000
vn 1.0000 0.0000 0.0065
vn -1.0000 -0.0041 0.0015
usemtl Walls
s off
f 124/164/31 131/165/31 130/166/31
f 150/167/32 151/168/32 125/169/32
f 126/170/32 137/171/32 136/172/32
f 122/173/33 127/174/33 126/175/33
f 164/176/32 157/177/32 154/178/32
f 130/166/31 123/179/31 122/180/31
f 141/181/32 134/182/32 137/183/32
f 133/184/32 135/185/32 127/186/32
f 127/187/32 136/172/32 135/188/32
f 140/189/34 138/190/34 141/191/34
f 139/192/33 136/193/33 135/194/33
f 146/195/32 144/196/32 148/197/32
f 150/198/32 145/199/32 146/195/32
f 155/200/35 158/201/35 145/202/35
f 147/203/36 156/204/36 158/205/36
f 157/177/32 165/206/32 154/178/32
f 159/207/32 156/208/32 153/209/32
f 162/210/32 160/211/32 159/212/32
f 158/213/37 170/214/37 155/215/37
f 145/216/31 166/217/31 144/218/31
f 175/219/37 167/220/37 165/221/37
f 172/222/35 163/223/35 162/210/35
f 170/224/32 162/225/32 155/226/32
f 173/227/33 158/228/33 163/229/33
f 177/230/32 169/231/32 167/232/32
f 174/233/33 165/234/33 168/235/33
f 176/236/35 168/237/35 169/238/35
f 182/239/32 180/240/32 184/241/32
f 186/242/32 181/243/32 178/244/32
f 181/245/34 189/246/34 178/247/34
f 181/248/31 191/249/31 180/250/31
f 150/198/32 207/251/32 208/252/32
f 207/253/34 210/254/34 208/255/34
f 209/256/34 212/257/34 210/254/34
f 214/258/34 132/259/34 137/260/34
f 183/261/34 215/262/34 179/263/34
f 152/264/34 217/265/34 133/266/34
f 168/267/34 220/268/34 169/269/34
f 162/270/34 222/271/34 221/272/34
f 151/273/34 223/274/34 129/275/34
f 124/164/31 125/276/31 131/165/31
f 125/169/32 124/277/32 150/167/32
f 150/167/32 142/278/32 151/168/32
f 124/277/32 128/279/32 150/167/32
f 151/168/32 129/280/32 125/169/32
f 126/170/32 132/281/32 137/171/32
f 122/173/33 123/282/33 127/174/33
f 164/176/32 166/283/32 157/177/32
f 130/166/31 131/165/31 123/179/31
f 141/181/32 138/284/32 134/182/32
f 133/184/32 134/285/32 135/185/32
f 127/187/32 126/170/32 136/172/32
f 140/189/34 139/286/34 138/190/34
f 139/192/33 140/287/33 136/193/33
f 146/195/32 145/199/32 144/196/32
f 150/198/32 142/288/32 145/199/32
f 145/202/31 142/289/31 151/290/31
f 145/202/31 151/290/31 155/200/31
f 158/201/38 147/291/38 145/202/38
f 163/292/33 158/205/33 156/204/33
f 147/203/34 143/293/34 156/204/34
f 156/204/32 160/294/32 163/292/32
f 143/293/34 161/295/34 156/204/34
f 157/177/32 167/296/32 165/206/32
f 159/207/32 160/297/32 156/208/32
f 162/210/35 163/223/35 160/211/35
f 158/213/37 171/298/37 170/214/37
f 145/216/31 147/299/31 166/217/31
f 166/217/32 164/300/32 149/301/32
f 149/301/31 144/218/31 166/217/31
f 175/219/37 177/302/37 167/220/37
f 172/222/35 173/303/35 163/223/35
f 170/224/32 172/304/32 162/225/32
f 173/227/33 171/305/33 158/228/33
f 177/230/32 176/306/32 169/231/32
f 174/233/33 175/307/33 165/234/33
f 176/236/35 174/308/35 168/237/35
f 182/239/32 181/243/32 180/240/32
f 186/242/32 182/239/32 181/243/32
f 187/309/34 178/247/34 189/246/34
f 181/245/34 183/310/34 189/246/34
f 189/246/32 188/311/32 187/309/32
f 181/248/31 183/312/31 191/249/31
f 191/249/32 190/313/32 185/314/32
f 185/314/31 180/250/31 191/249/31
f 150/198/32 128/315/32 207/251/32
f 207/253/34 209/256/34 210/254/34
f 209/256/34 211/316/34 212/257/34
f 214/258/34 213/317/34 132/259/34
f 183/261/34 216/318/34 215/262/34
f 152/264/34 218/319/34 217/265/34
f 168/267/34 219/320/34 220/268/34
f 162/270/39 163/321/39 222/271/39
f 151/273/34 224/322/34 223/274/34
l 192 199
l 193 197
l 200 192
l 198 193
l 194 195
l 201 202
l 194 196
l 202 203
l 204 196
l 206 205
