{
    "accessors": {
        "accessor_index_0": {
            "bufferView": "bufferView_index",
            "byteOffset": 0,
            "byteStride": 0,
            "componentType": 5123,
            "count": 630,
            "type": "SCALAR"
        },
        "accessor_index_1": {
            "bufferView": "bufferView_index",
            "byteOffset": 1260,
            "byteStride": 0,
            "componentType": 5123,
            "count": 480,
            "type": "SCALAR"
        },
        "accessor_position": {
            "bufferView": "bufferView_vertex",
            "byteOffset": 0,
            "byteStride": 24,
            "componentType": 5126,
            "count": 590,
            "min": [
                -27.075001,
                -0.5,
                -35.407501
            ],
            "max": [
                27.075001,
                3.200001,
                35.407501
            ],
            "type": "VEC3"
        },
        "accessor_normal": {
            "bufferView": "bufferView_vertex",
            "byteOffset": 12,
            "byteStride": 24,
            "componentType": 5126,
            "count": 590,
            "type": "VEC3"
        }
    },
    "asset": {
        "generator": "OBJ2GLTF",
        "premultipliedAlpha": true,
        "profile": {
            "api": "WebGL",
            "version": "1.0"
        },
        "version": 1
    },
    "buffers": {
        "buffer_level02": {
            "byteLength": 16380,
            "type": "arraybuffer",
            "uri": "level02.bin"
        }
    },
    "bufferViews": {
        "bufferView_vertex": {
            "buffer": "buffer_level02",
            "byteLength": 14160,
            "byteOffset": 0,
            "target": 34962
        },
        "bufferView_index": {
            "buffer": "buffer_level02",
            "byteLength": 2220,
            "byteOffset": 14160,
            "target": 34963
        }
    },
    "extensionsUsed": [],
    "images": {},
    "materials": {
        "material_None": {
            "name": "None",
            "extensions": {},
            "values": {
                "ambient": [
                    0,
                    0,
                    0,
                    1
                ],
                "diffuse": [
                    0.8,
                    0.8,
                    0.8,
                    1
                ],
                "emission": [
                    0,
                    0,
                    0,
                    1
                ],
                "specular": [
                    0.8,
                    0.8,
                    0.8,
                    1
                ],
                "shininess": 0,
                "transparency": 1
            },
            "technique": "technique0"
        },
        "material_Material": {
            "name": "Material",
            "extensions": {},
            "values": {
                "ambient": [
                    1,
                    1,
                    1,
                    1
                ],
                "diffuse": [
                    0.64,
                    0.64,
                    0.64,
                    1
                ],
                "emission": [
                    0,
                    0,
                    0,
                    1
                ],
                "specular": [
                    0.5,
                    0.5,
                    0.5,
                    1
                ],
                "shininess": 96.078431,
                "transparency": 1
            },
            "technique": "technique1"
        }
    },
    "meshes": {
        "mesh_level02": {
            "name": "level02",
            "primitives": [
                {
                    "attributes": {
                        "POSITION": "accessor_position",
                        "NORMAL": "accessor_normal"
                    },
                    "indices": "accessor_index_0",
                    "material": "material_None",
                    "mode": 4
                },
                {
                    "attributes": {
                        "POSITION": "accessor_position",
                        "NORMAL": "accessor_normal"
                    },
                    "indices": "accessor_index_1",
                    "material": "material_Material",
                    "mode": 4
                }
            ]
        }
    },
    "nodes": {
        "node_level02": {
            "children": [],
            "matrix": [
                1,
                0,
                0,
                0,
                0,
                1,
                0,
                0,
                0,
                0,
                1,
                0,
                0,
                0,
                0,
                1
            ],
            "meshes": [
                "mesh_level02"
            ],
            "name": "level02"
        }
    },
    "samplers": {
        "sampler_0": {}
    },
    "scene": "scene_level02",
    "scenes": {
        "scene_level02": {
            "nodes": [
                "node_level02"
            ]
        }
    },
    "textures": {},
    "programs": {
        "program0": {
            "attributes": [
                "a_position",
                "a_normal"
            ],
            "fragmentShader": "fragmentShader0",
            "vertexShader": "vertexShader0"
        },
        "program1": {
            "attributes": [
                "a_position",
                "a_normal"
            ],
            "fragmentShader": "fragmentShader1",
            "vertexShader": "vertexShader1"
        }
    },
    "shaders": {
        "vertexShader0": {
            "type": 35633,
            "uri": "",
            "extras": {
                "source": "precision highp float;\nuniform mat4 u_modelViewMatrix;\nuniform mat3 u_normalMatrix;\nuniform mat4 u_projectionMatrix;\nattribute vec3 a_position;\nvarying vec3 v_positionEC;\nattribute vec3 a_normal;\nvarying vec3 v_normal;\nvoid main(void) {\n  vec4 pos = u_modelViewMatrix * vec4(a_position,1.0);\n  v_positionEC = pos.xyz;\n  gl_Position = u_projectionMatrix * pos;\n  v_normal = u_normalMatrix * a_normal;\n}\n"
            }
        },
        "fragmentShader0": {
            "type": 35632,
            "uri": "",
            "extras": {
                "source": "precision highp float;\nuniform vec4 u_ambient;\nuniform vec4 u_diffuse;\nuniform vec4 u_emission;\nuniform vec4 u_specular;\nuniform float u_shininess;\nuniform float u_transparency;\nvarying vec3 v_positionEC;\nvarying vec3 v_normal;\nvoid main(void) {\n  vec3 normal = normalize(v_normal);\n  vec4 diffuse = u_diffuse;\n  vec3 diffuseLight = vec3(0.0, 0.0, 0.0);\n  vec3 specular = u_specular.rgb;\n  vec3 specularLight = vec3(0.0, 0.0, 0.0);\n  vec3 emission = u_emission.rgb;\n  vec3 ambient = u_ambient.rgb;\n  vec3 viewDir = -normalize(v_positionEC);\n  vec3 ambientLight = vec3(0.0, 0.0, 0.0);\n  ambientLight += vec3(0.1, 0.1, 0.1);\n  vec3 l = normalize(czm_sunDirectionEC);\n  diffuseLight += vec3(1.0, 1.0, 1.0) * max(dot(normal,l), 0.);\n  vec3 h = normalize(l + viewDir);\n  float specularIntensity = max(0., pow(max(dot(normal, h), 0.), u_shininess));\n  specularLight += vec3(1.0, 1.0, 1.0) * specularIntensity;\n  vec3 color = vec3(0.0, 0.0, 0.0);\n  color += diffuse.rgb * diffuseLight;\n  color += specular * specularLight;\n  color += emission;\n  color += ambient * ambientLight;\n  gl_FragColor = vec4(color * diffuse.a, diffuse.a * u_transparency);\n}\n"
            }
        },
        "vertexShader1": {
            "type": 35633,
            "uri": "",
            "extras": {
                "source": "precision highp float;\nuniform mat4 u_modelViewMatrix;\nuniform mat3 u_normalMatrix;\nuniform mat4 u_projectionMatrix;\nattribute vec3 a_position;\nvarying vec3 v_positionEC;\nattribute vec3 a_normal;\nvarying vec3 v_normal;\nvoid main(void) {\n  vec4 pos = u_modelViewMatrix * vec4(a_position,1.0);\n  v_positionEC = pos.xyz;\n  gl_Position = u_projectionMatrix * pos;\n  v_normal = u_normalMatrix * a_normal;\n}\n"
            }
        },
        "fragmentShader1": {
            "type": 35632,
            "uri": "",
            "extras": {
                "source": "precision highp float;\nuniform vec4 u_ambient;\nuniform vec4 u_diffuse;\nuniform vec4 u_emission;\nuniform vec4 u_specular;\nuniform float u_shininess;\nuniform float u_transparency;\nvarying vec3 v_positionEC;\nvarying vec3 v_normal;\nvoid main(void) {\n  vec3 normal = normalize(v_normal);\n  vec4 diffuse = u_diffuse;\n  vec3 diffuseLight = vec3(0.0, 0.0, 0.0);\n  vec3 specular = u_specular.rgb;\n  vec3 specularLight = vec3(0.0, 0.0, 0.0);\n  vec3 emission = u_emission.rgb;\n  vec3 ambient = u_ambient.rgb;\n  vec3 viewDir = -normalize(v_positionEC);\n  vec3 ambientLight = vec3(0.0, 0.0, 0.0);\n  ambientLight += vec3(0.1, 0.1, 0.1);\n  vec3 l = normalize(czm_sunDirectionEC);\n  diffuseLight += vec3(1.0, 1.0, 1.0) * max(dot(normal,l), 0.);\n  vec3 h = normalize(l + viewDir);\n  float specularIntensity = max(0., pow(max(dot(normal, h), 0.), u_shininess));\n  specularLight += vec3(1.0, 1.0, 1.0) * specularIntensity;\n  vec3 color = vec3(0.0, 0.0, 0.0);\n  color += diffuse.rgb * diffuseLight;\n  color += specular * specularLight;\n  color += emission;\n  color += ambient * ambientLight;\n  gl_FragColor = vec4(color * diffuse.a, diffuse.a * u_transparency);\n}\n"
            }
        }
    },
    "techniques": {
        "technique0": {
            "attributes": {
                "a_position": "position",
                "a_normal": "normal"
            },
            "parameters": {
                "modelViewMatrix": {
                    "semantic": "MODELVIEW",
                    "type": 35676
                },
                "normalMatrix": {
                    "semantic": "MODELVIEWINVERSETRANSPOSE",
                    "type": 35675
                },
                "projectionMatrix": {
                    "semantic": "PROJECTION",
                    "type": 35676
                },
                "ambient": {
                    "type": 35666
                },
                "diffuse": {
                    "type": 35666
                },
                "emission": {
                    "type": 35666
                },
                "specular": {
                    "type": 35666
                },
                "shininess": {
                    "type": 5126
                },
                "transparency": {
                    "type": 5126
                },
                "position": {
                    "semantic": "POSITION",
                    "type": 35665
                },
                "normal": {
                    "semantic": "NORMAL",
                    "type": 35665
                }
            },
            "program": "program0",
            "states": {
                "enable": [
                    2884,
                    2929
                ]
            },
            "uniforms": {
                "u_modelViewMatrix": "modelViewMatrix",
                "u_normalMatrix": "normalMatrix",
                "u_projectionMatrix": "projectionMatrix",
                "u_ambient": "ambient",
                "u_diffuse": "diffuse",
                "u_emission": "emission",
                "u_specular": "specular",
                "u_shininess": "shininess",
                "u_transparency": "transparency"
            }
        },
        "technique1": {
            "attributes": {
                "a_position": "position",
                "a_normal": "normal"
            },
            "parameters": {
                "modelViewMatrix": {
                    "semantic": "MODELVIEW",
                    "type": 35676
                },
                "normalMatrix": {
                    "semantic": "MODELVIEWINVERSETRANSPOSE",
                    "type": 35675
                },
                "projectionMatrix": {
                    "semantic": "PROJECTION",
                    "type": 35676
                },
                "ambient": {
                    "type": 35666
                },
                "diffuse": {
                    "type": 35666
                },
                "emission": {
                    "type": 35666
                },
                "specular": {
                    "type": 35666
                },
                "shininess": {
                    "type": 5126
                },
                "transparency": {
                    "type": 5126
                },
                "position": {
                    "semantic": "POSITION",
                    "type": 35665
                },
                "normal": {
                    "semantic": "NORMAL",
                    "type": 35665
                }
            },
            "program": "program1",
            "states": {
                "enable": [
                    2884,
                    2929
                ]
            },
            "uniforms": {
                "u_modelViewMatrix": "modelViewMatrix",
                "u_normalMatrix": "normalMatrix",
                "u_projectionMatrix": "projectionMatrix",
                "u_ambient": "ambient",
                "u_diffuse": "diffuse",
                "u_emission": "emission",
                "u_specular": "specular",
                "u_shininess": "shininess",
                "u_transparency": "transparency"
            }
        }
    }
}