# Blender v2.78 (sub 0) OBJ File: 'door-frame.blend'
# www.blender.org
mtllib door-frame.mtl
o Cube.002_Cube.004
v 0.114000 0.000000 -0.742500
v -0.114000 0.000000 -0.742500
v 0.114000 2.475000 -0.742500
v -0.114000 2.475000 -0.742500
v 0.114000 0.000000 -0.841500
v -0.114000 0.000000 -0.841500
v 0.114000 2.475000 -0.841500
v -0.114000 2.475000 -0.841500
vt 0.2500 0.9615
vt 0.3750 0.0000
vt 0.3750 0.9615
vt 0.8333 0.0000
vt 0.8750 0.9615
vt 0.8333 0.9615
vt 0.1250 1.0000
vt 0.0000 0.0385
vt 0.1250 0.0385
vt 0.7917 0.9615
vt 0.7500 0.0000
vt 0.7917 0.0000
vt 0.6250 0.5769
vt 0.6667 0.6923
vt 0.6250 0.6923
vt 0.2500 0.0000
vt 0.8750 0.0000
vt 0.0000 1.0000
vt 0.7500 0.9615
vt 0.6667 0.5769
vn -0.0000 -0.0000 1.0000
vn 1.0000 -0.0000 0.0000
vn 0.0000 0.0000 -1.0000
vn -1.0000 -0.0000 -0.0000
vn 0.0000 -1.0000 0.0000
usemtl DoorFrame
s off
f 1/1/1 4/2/1 2/3/1
f 1/4/2 7/5/2 3/6/2
f 5/7/3 8/8/3 7/9/3
f 4/10/4 6/11/4 2/12/4
f 2/13/5 5/14/5 1/15/5
f 1/1/1 3/16/1 4/2/1
f 1/4/2 5/17/2 7/5/2
f 5/7/3 6/18/3 8/8/3
f 4/10/4 8/19/4 6/11/4
f 2/13/5 6/20/5 5/14/5
o Cube.001_Cube.003
v 0.114000 2.475000 -0.742500
v -0.114000 2.475000 -0.742500
v 0.114000 2.475000 0.742500
v -0.114000 2.475000 0.742500
v 0.114000 2.475000 0.841500
v -0.114000 2.475000 0.841500
v 0.114000 2.475000 -0.841500
v -0.114000 2.475000 -0.841500
v 0.114000 2.574000 0.841500
v 0.114000 2.574000 -0.841500
v -0.114000 2.574000 0.841500
v -0.114000 2.574000 -0.841500
vt 0.5000 0.0000
vt 0.6250 0.6538
vt 0.5000 0.6538
vt 0.6250 0.0000
vt 0.7500 0.5769
vt 0.7500 0.0000
vt 0.9167 0.0000
vt 0.9583 0.6538
vt 0.9167 0.6538
vt 1.0000 0.6538
vt 0.9583 0.0000
vt 1.0000 0.0000
vt 0.0000 0.0385
vt 0.1250 0.0000
vt 0.1250 0.0385
vt 0.1250 0.0385
vt 0.2500 0.0000
vt 0.2500 0.0385
vt 0.6250 0.0000
vt 0.6250 0.5769
vt 0.9583 0.0000
vt 0.9583 0.6538
vt 0.0000 0.0000
vt 0.1250 0.0000
vn 0.0000 1.0000 0.0000
vn 0.0000 -1.0000 0.0000
vn 1.0000 0.0000 0.0000
vn -1.0000 0.0000 -0.0000
vn 0.0000 0.0000 -1.0000
vn -0.0000 0.0000 1.0000
usemtl DoorFrame
s off
f 18/21/6 19/22/6 17/23/6
f 9/24/7 12/25/7 10/26/7
f 15/27/8 17/28/8 13/29/8
f 14/30/9 20/31/9 16/32/9
f 16/33/10 18/34/10 15/35/10
f 13/36/11 19/37/11 14/38/11
f 18/21/6 20/39/6 19/22/6
f 9/24/7 11/40/7 12/25/7
f 15/27/8 18/41/8 17/28/8
f 14/30/9 19/42/9 20/31/9
f 16/33/10 20/43/10 18/34/10
f 13/36/11 17/44/11 19/37/11
o Cube
v 0.114000 0.000000 0.742500
v -0.114000 0.000000 0.742500
v 0.114000 2.475000 0.742500
v -0.114000 2.475000 0.742500
v 0.114000 0.000000 0.742500
v -0.114000 0.000000 0.742500
v 0.114000 2.475000 0.742500
v -0.114000 2.475000 0.742500
v 0.114000 0.000000 0.742500
v -0.114000 0.000000 0.742500
v 0.114000 2.475000 0.742500
v -0.114000 2.475000 0.742500
v 0.114000 0.000000 0.841500
v -0.114000 0.000000 0.841500
v 0.114000 2.475000 0.841500
v -0.114000 2.475000 0.841500
v 0.114000 2.475000 -0.841500
v -0.114000 2.475000 -0.841500
v 0.114000 2.475000 0.841500
v -0.114000 2.475000 0.841500
v 0.114000 2.475000 -0.841500
v -0.114000 2.475000 -0.841500
vt 0.3750 0.9615
vt 0.5000 0.0000
vt 0.5000 0.9615
vt 0.0000 0.0000
vt 0.0000 0.0000
vt 0.0000 0.0000
vt 0.0000 0.0000
vt 0.0000 0.0000
vt 0.0000 0.0000
vt 0.0000 0.0000
vt 0.8750 0.0000
vt 0.9167 0.9615
vt 0.8750 0.9615
vt 0.0000 0.0000
vt 0.0000 0.0000
vt 0.0000 0.0000
vt 0.0000 0.0000
vt 0.1250 0.0385
vt 0.2500 1.0000
vt 0.1250 1.0000
vt 0.6667 0.6923
vt 0.7083 0.5769
vt 0.7083 0.6923
vt 0.8333 0.9615
vt 0.7917 0.0000
vt 0.8333 0.0000
vt 0.3750 0.0000
vt 0.0000 0.0000
vt 0.9167 0.0000
vt 0.2500 0.0385
vt 0.6667 0.5769
vt 0.7917 0.9615
vn 0.0000 -0.0000 -1.0000
vn 0.0000 0.0000 1.0000
vn -1.0000 -0.0000 -0.0000
vn 0.0000 -1.0000 0.0000
vn 1.0000 0.0000 0.0000
usemtl DoorFrame
s off
f 31/45/12 30/46/12 32/47/12
f 21/48/13 27/49/13 25/50/13
f 22/51/13 25/50/13 26/52/13
f 24/53/13 26/52/13 28/54/13
f 30/55/14 36/56/14 32/57/14
f 25/50/13 31/58/13 29/59/13
f 28/54/13 30/60/13 32/61/13
f 26/52/13 29/59/13 30/60/13
f 35/62/13 34/63/13 33/64/13
f 30/65/15 33/66/15 34/67/15
f 31/68/16 33/69/16 29/70/16
f 31/45/12 29/71/12 30/46/12
f 21/48/13 23/72/13 27/49/13
f 22/51/13 21/48/13 25/50/13
f 24/53/13 22/51/13 26/52/13
f 30/55/14 34/73/14 36/56/14
f 25/50/13 27/49/13 31/58/13
f 28/54/13 26/52/13 30/60/13
f 26/52/13 25/50/13 29/59/13
f 35/62/13 36/74/13 34/63/13
f 30/65/15 29/75/15 33/66/15
f 31/68/16 35/76/16 33/69/16
l 35 39
l 36 40
l 37 41
l 38 42
