# Blender v2.78 (sub 0) OBJ File: 'parking-block.blend'
# www.blender.org
mtllib parking-block.mtl
o Cube_Cube.001
v 0.000903 0.000000 0.000000
v 0.000903 0.203200 -0.051579
v 0.000903 0.000000 -0.203200
v 0.000903 0.203200 -0.149637
v 2.438400 0.000000 0.000000
v 2.438400 0.203200 -0.051579
v 2.438400 0.000000 -0.203200
v 2.438400 0.203200 -0.149637
v 0.000903 0.150616 0.000000
v 0.000903 0.150183 -0.203200
v 2.438400 0.150183 -0.203200
v 2.438400 0.150616 0.000000
vt 1.0000 0.0000
vt 0.7770 0.0616
vt 0.7770 0.0000
vt 0.6123 1.0000
vt 0.7770 0.0000
vt 0.7770 1.0000
vt 0.9418 0.0834
vt 0.7770 0.1667
vt 0.7770 0.0834
vt 0.1653 0.0000
vt 0.0000 1.0000
vt 0.0000 0.0000
vt 0.2230 0.0000
vt 0.4459 1.0000
vt 0.2230 1.0000
vt 0.5535 1.0000
vt 0.4459 0.0000
vt 0.5535 0.0000
vt 0.8358 0.0834
vt 1.0000 0.0618
vt 0.9434 0.0834
vt 1.0000 0.1053
vt 0.9423 0.1667
vt 0.2230 1.0000
vt 0.2230 0.0000
vt 0.6123 0.0000
vt 0.1653 1.0000
vt 0.4459 0.0000
vt 0.4459 1.0000
vt 1.0000 0.1456
vn -1.0000 -0.0000 0.0000
vn 0.0000 -0.0000 -1.0000
vn 1.0000 -0.0000 0.0000
vn 0.0000 -0.0000 1.0000
vn 0.0000 -1.0000 -0.0000
vn 0.0000 1.0000 0.0000
vn 0.0000 0.7107 -0.7035
vn 0.0000 0.7003 0.7139
usemtl None
s off
f 1/1/1 10/2/1 3/3/1
f 10/4/2 7/5/2 3/6/2
f 11/7/3 5/8/3 7/9/3
f 12/10/4 1/11/4 5/12/4
f 7/13/5 1/14/5 3/15/5
f 4/16/6 6/17/6 8/18/6
f 4/19/1 9/20/1 2/21/1
f 8/18/7 10/4/7 4/16/7
f 8/22/3 12/23/3 11/7/3
f 2/24/8 12/10/8 6/25/8
f 1/1/1 9/20/1 10/2/1
f 10/4/2 11/26/2 7/5/2
f 11/7/3 12/23/3 5/8/3
f 12/10/4 9/27/4 1/11/4
f 7/13/5 5/28/5 1/14/5
f 4/16/6 2/29/6 6/17/6
f 4/19/1 10/2/1 9/20/1
f 8/18/7 11/26/7 10/4/7
f 8/22/3 6/30/3 12/23/3
f 2/24/8 9/27/8 12/10/8
