{
    "accessors": {
        "accessor_index_0": {
            "bufferView": "bufferView_1",
            "byteOffset": 0,
            "byteStride": 0,
            "componentType": 5123,
            "count": 7260,
            "max": [
                5876
            ],
            "min": [
                0
            ],
            "type": "SCALAR"
        },
        "accessor_index_1": {
            "bufferView": "bufferView_1",
            "byteOffset": 14520,
            "byteStride": 0,
            "componentType": 5123,
            "count": 7260,
            "max": [
                6284
            ],
            "min": [
                2247
            ],
            "type": "SCALAR"
        },
        "accessor_normal": {
            "bufferView": "bufferView_0",
            "byteOffset": 75420,
            "byteStride": 0,
            "componentType": 5126,
            "count": 6285,
            "max": [
                1,
                1,
                1
            ],
            "min": [
                -1,
                -1,
                -1
            ],
            "type": "VEC3"
        },
        "accessor_position": {
            "bufferView": "bufferView_0",
            "byteOffset": 0,
            "byteStride": 0,
            "componentType": 5126,
            "count": 6285,
            "max": [
                2.4384000301361084,
                0.20319999754428864,
                0
            ],
            "min": [
                0,
                0,
                -0.20319999754428864
            ],
            "type": "VEC3"
        },
        "accessor_uv": {
            "bufferView": "bufferView_0",
            "byteOffset": 150840,
            "byteStride": 0,
            "componentType": 5126,
            "count": 6285,
            "max": [
                15.97920036315918,
                16.673900604248047
            ],
            "min": [
                -15.97920036315918,
                -14.879799842834473
            ],
            "type": "VEC2"
        }
    },
    "animations": {},
    "asset": {
        "generator": "OBJ2GLTF",
        "premultipliedAlpha": true,
        "profile": {
            "api": "WebGL",
            "version": "1.0"
        },
        "version": "1.0"
    },
    "bufferViews": {
        "bufferView_0": {
            "buffer": "parking-block_buffer",
            "byteLength": 201120,
            "byteOffset": 0,
            "target": 34962
        },
        "bufferView_1": {
            "buffer": "parking-block_buffer",
            "byteLength": 29040,
            "byteOffset": 201120,
            "target": 34963
        }
    },
    "buffers": {
        "parking-block_buffer": {
            "byteLength": 230160,
            "type": "arraybuffer",
            "uri": "data:application/octet-stream;base64,"
        }
    },
    "cameras": {},
    "extensions": {},
    "extensionsUsed": [],
    "images": {
        "Asphalt_Painted_White": {
            "uri": "data:image/jpeg;base64,"
        }
    },
    "materials": {
        "material_Asphalt_Painted_White": {
            "extensions": {},
            "name": "Asphalt_Painted_White",
            "values": {
                "ambient": [
                    1,
                    1,
                    1,
                    1
                ],
                "diffuse": "texture_Asphalt_Painted_White",
                "emission": [
                    0,
                    0,
                    0,
                    1
                ],
                "shininess": 96.078431,
                "specular": [
                    0.5,
                    0.5,
                    0.5,
                    1
                ],
                "transparency": 1
            }
        },
        "material_material": {
            "extensions": {},
            "name": "material",
            "values": {
                "ambient": [
                    1,
                    1,
                    1,
                    1
                ],
                "diffuse": [
                    0.694118,
                    0.717647,
                    0.745098,
                    1
                ],
                "emission": [
                    0,
                    0,
                    0,
                    1
                ],
                "shininess": 96.078431,
                "specular": [
                    0.5,
                    0.5,
                    0.5,
                    1
                ],
                "transparency": 1
            }
        }
    },
    "meshes": {
        "mesh_parking-block": {
            "name": "parking-block",
            "primitives": [
                {
                    "attributes": {
                        "NORMAL": "accessor_normal",
                        "POSITION": "accessor_position",
                        "TEXCOORD_0": "accessor_uv"
                    },
                    "indices": "accessor_index_0",
                    "material": "material_Asphalt_Painted_White",
                    "mode": 4
                },
                {
                    "attributes": {
                        "NORMAL": "accessor_normal",
                        "POSITION": "accessor_position",
                        "TEXCOORD_0": "accessor_uv"
                    },
                    "indices": "accessor_index_1",
                    "material": "material_material",
                    "mode": 4
                }
            ]
        }
    },
    "nodes": {
        "rootNode": {
            "children": [],
            "matrix": [
                1,
                0,
                0,
                0,
                0,
                1,
                0,
                0,
                0,
                0,
                1,
                0,
                0,
                0,
                0,
                1
            ],
            "meshes": [
                "mesh_parking-block"
            ]
        }
    },
    "samplers": {
        "sampler_0": {
            "magFilter": 9729,
            "minFilter": 9986,
            "wrapS": 10497,
            "wrapT": 10497
        }
    },
    "scene": "scene_parking-block",
    "scenes": {
        "scene_parking-block": {
            "nodes": [
                "rootNode"
            ]
        }
    },
    "skins": {},
    "textures": {
        "texture_Asphalt_Painted_White": {
            "format": 6407,
            "internalFormat": 6407,
            "sampler": "sampler_0",
            "source": "Asphalt_Painted_White",
            "target": 3553,
            "type": 5121
        }
    }
}