{
    "accessors": {
        "accessor_0": {
            "bufferView": "bufferView_0",
            "byteOffset": 0,
            "byteStride": 0,
            "componentType": 5126,
            "count": 36,
            "max": [
                2.4384000301361084,
                0.20319999754428864,
                0
            ],
            "min": [
                0.0009030000073835254,
                0,
                -0.20319999754428864
            ],
            "type": "VEC3"
        },
        "accessor_1": {
            "bufferView": "bufferView_0",
            "byteOffset": 432,
            "byteStride": 0,
            "componentType": 5126,
            "count": 36,
            "max": [
                1,
                1,
                1
            ],
            "min": [
                -1,
                -1,
                -1
            ],
            "type": "VEC3"
        },
        "accessor_2": {
            "bufferView": "bufferView_0",
            "byteOffset": 864,
            "byteStride": 0,
            "componentType": 5126,
            "count": 36,
            "max": [
                1,
                1
            ],
            "min": [
                0,
                0
            ],
            "type": "VEC2"
        },
        "accessor_3": {
            "bufferView": "bufferView_1",
            "byteOffset": 0,
            "byteStride": 0,
            "componentType": 5123,
            "count": 60,
            "max": [
                35
            ],
            "min": [
                0
            ],
            "type": "SCALAR"
        }
    },
    "animations": {},
    "asset": {
        "generator": "obj2gltf",
        "premultipliedAlpha": true,
        "profile": {
            "api": "WebGL",
            "version": "1.0"
        },
        "version": "1.0"
    },
    "bufferViews": {
        "bufferView_0": {
            "buffer": "buffer",
            "byteLength": 1152,
            "byteOffset": 0,
            "target": 34962
        },
        "bufferView_1": {
            "buffer": "buffer",
            "byteLength": 120,
            "byteOffset": 1152,
            "target": 34963
        }
    },
    "buffers": {
        "buffer": {
            "byteLength": 1272,
            "type": "arraybuffer",
            "uri": "data:application/octet-stream;base64,"
        }
    },
    "cameras": {},
    "extensionsUsed": [],
    "images": {
        "image_None_Base_Color.png": {
            "uri": "None_Base_Color.png"
        },
        "image_None_Height.png": {
            "uri": "None_Height.png"
        },
        "image_None_Metallic.png": {
            "uri": "None_Metallic.png"
        },
        "image_None_Normal.png": {
            "uri": "None_Normal.png"
        },
        "image_None_Roughness.png": {
            "uri": "None_Roughness.png"
        }
    },
    "materials": {
        "None": {
            "values": {
                "ambient": [
                    0,
                    0,
                    0,
                    1
                ],
                "baseColor": "texture_None_Base_Color.png",
                "diffuse": [
                    0.8,
                    0.8,
                    0.8,
                    1
                ],
                "emission": [
                    0,
                    0,
                    0,
                    1
                ],
                "height": "texture_None_Height.png",
                "metallic": "texture_None_Metallic.png",
                "normal": "texture_None_Normal.png",
                "roughness": "texture_None_Roughness.png",
                "shininess": 0,
                "specular": [
                    0.8,
                    0.8,
                    0.8,
                    1
                ],
                "transparency": 1
            }
        }
    },
    "meshes": {
        "Cube_Cube.001-Mesh": {
            "name": "Cube_Cube.001-Mesh",
            "primitives": [
                {
                    "attributes": {
                        "NORMAL": "accessor_1",
                        "POSITION": "accessor_0",
                        "TEXCOORD_0": "accessor_2"
                    },
                    "indices": "accessor_3",
                    "material": "None",
                    "mode": 4
                }
            ]
        }
    },
    "nodes": {
        "Cube_Cube.001": {
            "children": [],
            "matrix": [
                1,
                0,
                0,
                0,
                0,
                1,
                0,
                0,
                0,
                0,
                1,
                0,
                0,
                0,
                0,
                1
            ],
            "meshes": [
                "Cube_Cube.001-Mesh"
            ],
            "name": "Cube_Cube.001"
        }
    },
    "samplers": {
        "sampler_0": {}
    },
    "scene": "scene",
    "scenes": {
        "scene": {
            "nodes": [
                "Cube_Cube.001"
            ]
        }
    },
    "skins": {},
    "textures": {
        "texture_None_Base_Color.png": {
            "format": 6407,
            "internalFormat": 6407,
            "sampler": "sampler_0",
            "source": "image_None_Base_Color.png",
            "target": 3553,
            "type": 5121
        },
        "texture_None_Height.png": {
            "format": 6403,
            "internalFormat": 33321,
            "sampler": "sampler_0",
            "source": "image_None_Height.png",
            "target": 3553,
            "type": 5121
        },
        "texture_None_Metallic.png": {
            "format": 6403,
            "internalFormat": 33321,
            "sampler": "sampler_0",
            "source": "image_None_Metallic.png",
            "target": 3553,
            "type": 5121
        },
        "texture_None_Normal.png": {
            "format": 6407,
            "internalFormat": 6407,
            "sampler": "sampler_0",
            "source": "image_None_Normal.png",
            "target": 3553,
            "type": 5121
        },
        "texture_None_Roughness.png": {
            "format": 6403,
            "internalFormat": 33321,
            "sampler": "sampler_0",
            "source": "image_None_Roughness.png",
            "target": 3553,
            "type": 5121
        }
    }
}