{
    "accessors": {
        "accessor_index_0": {
            "bufferView": "bufferView_index",
            "byteOffset": 0,
            "byteStride": 0,
            "componentType": 5123,
            "count": 108,
            "type": "SCALAR"
        },
        "accessor_position": {
            "bufferView": "bufferView_vertex",
            "byteOffset": 0,
            "byteStride": 24,
            "componentType": 5126,
            "count": 108,
            "min": [
                -0.9341719746589661,
                -0.9341719746589661,
                -0.9341719746589661
            ],
            "max": [
                0.9341719746589661,
                0.9341719746589661,
                0.9341719746589661
            ],
            "type": "VEC3"
        },
        "accessor_normal": {
            "bufferView": "bufferView_vertex",
            "byteOffset": 12,
            "byteStride": 24,
            "componentType": 5126,
            "count": 108,
            "type": "VEC3"
        }
    },
    "asset": {
        "generator": "OBJ2GLTF",
        "premultipliedAlpha": true,
        "profile": {
            "api": "WebGL",
            "version": "1.0"
        },
        "version": 1
    },
    "buffers": {
        "buffer_dodecahedron": {
            "byteLength": 2808,
            "type": "arraybuffer",
            "uri": "dodecahedron.bin"
        }
    },
    "bufferViews": {
        "bufferView_vertex": {
            "buffer": "buffer_dodecahedron",
            "byteLength": 2592,
            "byteOffset": 0,
            "target": 34962
        },
        "bufferView_index": {
            "buffer": "buffer_dodecahedron",
            "byteLength": 216,
            "byteOffset": 2592,
            "target": 34963
        }
    },
    "extensionsUsed": [],
    "images": {},
    "materials": {
        "material_czmDefaultMat": {
            "name": "czmDefaultMat",
            "extensions": {},
            "values": {
                "ambient": [
                    0,
                    0,
                    0,
                    1
                ],
                "diffuse": [
                    0.5,
                    0.5,
                    0.5,
                    1
                ],
                "emission": [
                    0,
                    0,
                    0,
                    1
                ],
                "specular": [
                    0,
                    0,
                    0,
                    1
                ],
                "shininess": 0,
                "transparency": 1
            }
        }
    },
    "meshes": {
        "mesh_dodecahedron": {
            "name": "dodecahedron",
            "primitives": [
                {
                    "attributes": {
                        "POSITION": "accessor_position",
                        "NORMAL": "accessor_normal"
                    },
                    "indices": "accessor_index_0",
                    "material": "material_czmDefaultMat",
                    "mode": 4
                }
            ]
        }
    },
    "nodes": {
        "node_dodecahedron": {
            "children": [],
            "matrix": [
                1,
                0,
                0,
                0,
                0,
                1,
                0,
                0,
                0,
                0,
                1,
                0,
                0,
                0,
                0,
                1
            ],
            "meshes": [
                "mesh_dodecahedron"
            ],
            "name": "dodecahedron"
        }
    },
    "samplers": {
        "sampler_0": {}
    },
    "scene": "scene_dodecahedron",
    "scenes": {
        "scene_dodecahedron": {
            "nodes": [
                "node_dodecahedron"
            ]
        }
    },
    "textures": {}
}
