# Blender v2.78 (sub 0) OBJ File: 'cardboard-box.blend'
# www.blender.org
mtllib cardboard-box.mtl
o Cube
v 0.500000 0.000000 -0.500000
v 0.500000 0.000000 0.500000
v -0.500000 0.000000 0.500000
v -0.500000 0.000000 -0.500000
v 0.500000 0.875000 -0.500000
v 0.500000 0.875000 0.500000
v -0.500000 0.875000 0.500000
v -0.500000 0.875000 -0.500000
vt 0.6815 0.6815
vt 0.3185 0.3185
vt 0.6815 0.3185
vt 0.3185 0.6815
vt 0.6815 0.3185
vt 0.6815 0.6815
vt 0.9991 0.3185
vt 0.9991 0.6815
vt 0.3185 0.0009
vt 0.6815 0.0009
vt 0.3185 0.3185
vt 0.0009 0.6815
vt 0.0009 0.3185
vt 0.6815 0.9991
vt 0.3185 0.6815
vt 0.3185 0.9991
vn 0.0000 -1.0000 0.0000
vn 0.0000 1.0000 0.0000
vn 1.0000 -0.0000 0.0000
vn 0.0000 -0.0000 1.0000
vn -1.0000 -0.0000 -0.0000
vn 0.0000 0.0000 -1.0000
usemtl Material
s off
f 2/1/1 4/2/1 1/3/1
f 8/4/2 6/5/2 5/6/2
f 5/6/3 2/7/3 1/8/3
f 6/5/4 3/9/4 2/10/4
f 7/11/5 4/12/5 3/13/5
f 1/14/6 8/4/6 5/6/6
f 2/1/1 3/15/1 4/2/1
f 8/4/2 7/11/2 6/5/2
f 5/6/3 6/5/3 2/7/3
f 6/5/4 7/11/4 3/9/4
f 7/11/5 8/4/5 4/12/5
f 1/14/6 4/16/6 8/4/6
