# Blender v2.78 (sub 0) OBJ File: 'door-hex-frame-1x2.blend'
# www.blender.org
mtllib door-hex-frame-1x2.mtl
o Cube_Cube.007
v 0.000000 0.000000 1.000000
v 0.000000 2.000000 1.000000
v 0.000000 2.000000 0.749999
v 0.000000 1.000000 0.999998
v 0.000000 0.000000 0.749999
v 0.100000 0.000000 0.749999
v 0.100000 0.000000 1.000000
v 0.100000 2.000000 1.000000
v 0.100000 2.000000 0.749999
v 0.100000 1.000000 0.999998
v 0.000000 2.000000 0.250001
v 0.000000 2.000000 0.000000
v 0.000000 0.000000 0.000000
v 0.000000 0.000000 0.250001
v 0.000000 1.000000 0.000002
v 0.100000 2.000000 0.000000
v 0.100000 2.000000 0.250001
v 0.100000 0.000000 0.000000
v 0.100000 0.000000 0.250001
v 0.100000 1.000000 0.000002
v 0.110000 1.909091 0.232272
v 0.120000 1.818182 0.209545
v 0.120000 1.727273 0.186818
v 0.120000 1.636364 0.164091
v 0.120000 1.545455 0.141364
v 0.120000 1.454545 0.118636
v 0.120000 1.363636 0.095909
v 0.120000 1.272727 0.073182
v 0.120000 1.181818 0.050455
v 0.110000 1.090909 0.027728
v -0.010000 1.090909 0.022729
v -0.020000 1.181818 0.045456
v -0.020000 1.272727 0.068183
v -0.020000 1.363636 0.090910
v -0.020000 1.454545 0.113638
v -0.020000 1.545455 0.136365
v -0.020000 1.636364 0.159092
v -0.020000 1.727273 0.181819
v -0.020000 1.818182 0.204546
v -0.010000 1.909091 0.227274
v -0.010000 0.090909 0.227274
v -0.020000 0.181818 0.204546
v -0.020000 0.272727 0.181819
v -0.020000 0.363636 0.159092
v -0.020000 0.454545 0.136365
v -0.020000 0.545455 0.113638
v -0.020000 0.636364 0.090910
v -0.020000 0.727273 0.068183
v -0.020000 0.818182 0.045456
v -0.010000 0.909091 0.022729
v 0.110000 0.909091 0.022729
v 0.120000 0.818182 0.045456
v 0.120000 0.727273 0.068183
v 0.120000 0.636364 0.090910
v 0.120000 0.545455 0.113638
v 0.120000 0.454545 0.136365
v 0.120000 0.363636 0.159092
v 0.120000 0.272727 0.181819
v 0.120000 0.181818 0.204546
v 0.110000 0.090909 0.227274
v 0.110000 0.090909 0.772726
v 0.120000 0.181818 0.795454
v 0.120000 0.272727 0.818181
v 0.120000 0.363636 0.840908
v 0.120000 0.454545 0.863635
v 0.120000 0.545455 0.886362
v 0.120000 0.636364 0.909090
v 0.120000 0.727273 0.931817
v 0.120000 0.818182 0.954544
v 0.110000 0.909091 0.977271
v -0.010000 0.909091 0.977271
v -0.020000 0.818182 0.954544
v -0.020000 0.727273 0.931817
v -0.020000 0.636364 0.909090
v -0.020000 0.545455 0.886362
v -0.020000 0.454545 0.863635
v -0.020000 0.363636 0.840908
v -0.020000 0.272727 0.818181
v -0.020000 0.181818 0.795454
v -0.010000 0.090909 0.772726
v 0.110000 1.090909 0.977271
v 0.120000 1.181818 0.954544
v 0.120000 1.272727 0.931817
v 0.120000 1.363636 0.909090
v 0.120000 1.454545 0.886362
v 0.120000 1.545455 0.863635
v 0.120000 1.636364 0.840908
v 0.120000 1.727273 0.818181
v 0.120000 1.818182 0.795454
v 0.110000 1.909091 0.772726
v -0.010000 1.909091 0.772726
v -0.020000 1.818182 0.795454
v -0.020000 1.727273 0.818181
v -0.020000 1.636364 0.840908
v -0.020000 1.545454 0.863635
v -0.020000 1.454545 0.886362
v -0.020000 1.363636 0.909090
v -0.020000 1.272727 0.931817
v -0.020000 1.181818 0.954544
v -0.010000 1.090909 0.977271
v 0.100000 1.000000 0.000000
v 0.000000 1.000000 1.000000
v 0.100000 1.000000 1.000000
v 0.000000 1.000000 0.000000
vt 0.0000 0.0000
vt 0.9330 0.2500
vt 0.0000 0.0000
vt 0.0000 0.0000
vt 0.0000 0.0000
vt 0.0000 0.0000
vt 0.0000 0.0000
vt 0.0000 0.0000
vt 0.0000 0.0000
vt 0.0000 0.0000
vt 0.0000 0.0000
vt 0.6079 0.0623
vt 0.7159 0.1246
vt 0.7159 0.1247
vt 0.0000 0.0000
vt 0.0000 0.0000
vt 0.0000 0.0000
vt 0.0000 0.0000
vt 0.0000 0.0000
vt 0.0000 0.0000
vt 0.0000 0.0000
vt 0.0000 0.0000
vt 0.0000 0.0000
vt 0.0000 0.0000
vt 0.0000 0.0000
vt 0.0000 0.0000
vt 0.0000 0.0000
vt 0.0000 0.0000
vt 0.0000 0.0000
vt 0.0000 0.0000
vt 0.0000 0.0000
vt 0.0000 0.0000
vt 0.0000 0.0000
vt 0.0000 0.0000
vt 0.0000 0.0000
vt 0.0000 0.0000
vt 0.0000 0.0000
vt 0.0000 0.0000
vt 0.0000 0.0000
vt 0.0000 0.0000
vt 0.0000 0.0000
vt 0.0000 0.0000
vt 0.0000 0.0000
vt 0.0000 0.0000
vt 0.0000 0.0000
vt 0.0000 0.0000
vt 0.7158 0.1246
vt 0.7158 0.1246
vt 0.7158 0.1246
vt 0.7161 0.1247
vt 0.7160 0.1247
vt 0.0000 0.0000
vt 0.0000 0.0000
vt 0.0000 0.0000
vt 0.0000 0.0000
vt 0.0000 0.0000
vt 0.0000 0.0000
vt 0.0000 0.0000
vt 0.0000 0.0000
vt 0.6683 0.0972
vt 0.0000 0.0000
vt 0.6582 0.0914
vt 0.6280 0.0739
vt 0.6381 0.0797
vt 0.5776 0.0448
vt 0.0000 0.0000
vt 0.0000 0.0000
vt 0.0000 0.0000
vt 0.0000 0.0000
vt 0.0000 0.0000
vt 0.0000 0.0000
vt 0.0000 0.0000
vt 0.0000 0.0000
vt 0.0000 0.0000
vt 0.0000 0.0000
vt 0.0000 0.0000
vt 0.0000 0.0000
vt 0.7161 0.1248
vt 0.6784 0.1030
vt 0.7159 0.1247
vt 0.7160 0.1247
vt 0.6482 0.0855
vt 0.7160 0.1247
vt 0.5877 0.0506
vt 0.6179 0.0681
vt 0.5978 0.0565
vt 0.5675 0.0390
vt 0.7158 0.1246
vt 0.0000 0.0000
vt 0.0000 0.0000
vt 0.0000 0.0000
vt 0.0000 0.0000
vt 0.0000 0.0000
vt 0.0000 0.0000
vt 0.0000 0.0000
vt 0.0000 0.0000
vt 0.0000 0.0000
vt 0.0000 0.0000
vt 0.0000 0.0000
vt 0.0000 0.0000
vt 0.0000 0.0000
vt 0.0000 0.0000
vt 0.0000 0.0000
vt 0.0000 0.0000
vt 0.0000 0.0000
vt 0.0000 0.0000
vt 0.0000 0.0000
vt 0.0000 0.0000
vn 0.0000 -1.0000 0.0000
vn 0.0000 0.0000 1.0000
vn 0.0000 1.0000 0.0000
vn 0.0000 -0.2425 -0.9701
vn 0.0000 0.2425 -0.9701
vn 0.0000 0.0000 -1.0000
vn -0.0346 -0.2424 0.9696
vn -0.0000 0.2425 0.9701
vn 0.9153 0.0000 -0.4027
vn 0.9966 -0.0199 -0.0797
vn 0.9940 -0.1093 0.0000
vn 0.9940 0.1093 0.0000
vn 0.9967 0.0195 -0.0782
vn 0.9182 -0.0020 -0.3961
vn -0.9940 0.1093 -0.0000
vn -0.9966 0.0199 -0.0797
vn -0.9153 0.0000 -0.4027
vn -0.9966 -0.0199 -0.0797
vn -0.9940 -0.1093 0.0000
vn 0.9153 0.0000 0.4027
vn 0.9966 -0.0199 0.0797
vn 0.9966 0.0199 0.0797
vn -0.9966 0.0199 0.0797
vn -0.9153 0.0000 0.4027
vn -0.9966 -0.0199 0.0797
vn 0.0000 -0.1914 0.9815
vn -0.0347 -0.2388 0.9705
vn -0.0404 -0.2381 0.9704
vn -0.0399 -0.2875 0.9570
vn 0.0000 -0.2425 0.9701
vn -0.0403 -0.2465 0.9683
vn 0.9942 0.1073 0.0000
vn 0.9407 0.0000 -0.3393
vn -0.9940 0.1095 0.0000
vn 0.9949 0.1007 0.0000
vn 0.9959 -0.0905 0.0000
vn -0.9956 -0.0941 0.0000
vn -0.9946 0.1034 0.0000
usemtl None
s off
f 7/1/1 5/2/1 6/3/1
f 103/4/2 2/5/2 102/6/2
f 2/5/3 9/7/3 3/8/3
f 91/9/4 89/10/4 92/11/4
f 74/12/5 67/13/5 66/14/5
f 12/15/3 17/16/3 16/17/3
f 104/18/6 16/17/6 101/19/6
f 18/20/1 14/21/1 13/22/1
f 36/23/7 26/24/7 25/25/7
f 59/26/8 42/27/8 41/28/8
f 101/19/9 51/29/9 18/20/9
f 56/30/10 57/31/10 18/20/10
f 18/20/11 60/32/11 19/33/11
f 16/17/12 21/34/12 22/35/12
f 26/24/13 27/36/13 16/17/13
f 30/37/14 16/17/14 29/38/14
f 40/39/15 12/15/15 39/40/15
f 37/41/16 38/42/16 12/15/16
f 31/43/17 12/15/17 104/18/17
f 13/22/17 50/44/17 104/18/17
f 47/45/18 48/46/18 13/22/18
f 41/28/19 13/22/19 14/21/19
f 7/1/20 69/47/20 70/48/20
f 67/13/21 68/49/21 7/1/21
f 7/1/11 61/50/11 62/51/11
f 90/52/12 8/53/12 89/10/12
f 87/54/22 88/55/22 8/53/22
f 103/4/20 81/56/20 8/53/20
f 91/9/15 2/5/15 3/8/15
f 97/57/23 98/58/23 2/5/23
f 2/5/24 100/59/24 102/6/24
f 80/60/19 1/61/19 79/62/19
f 76/63/25 77/64/25 1/61/25
f 71/65/24 1/61/24 102/6/24
f 7/1/1 1/61/1 5/2/1
f 1/61/2 7/1/2 103/4/2
f 103/4/2 8/53/2 2/5/2
f 102/6/2 1/61/2 103/4/2
f 2/5/3 8/53/3 9/7/3
f 10/66/4 4/67/4 100/59/4
f 100/59/4 99/68/4 81/56/4
f 97/57/4 96/69/4 84/70/4
f 99/68/4 82/71/4 81/56/4
f 81/56/4 10/66/4 100/59/4
f 83/72/4 82/71/4 98/58/4
f 86/73/4 85/74/4 95/75/4
f 84/70/4 83/72/4 97/57/4
f 99/68/4 98/58/4 82/71/4
f 95/75/4 94/76/4 87/54/4
f 98/58/4 97/57/4 83/72/4
f 85/74/4 96/69/4 95/75/4
f 89/10/4 88/55/4 93/77/4
f 87/54/4 86/73/4 95/75/4
f 96/69/4 85/74/4 84/70/4
f 93/77/4 92/11/4 89/10/4
f 91/9/4 3/8/4 9/7/4
f 9/7/4 90/52/4 91/9/4
f 88/55/4 87/54/4 93/77/4
f 94/76/4 93/77/4 87/54/4
f 91/9/4 90/52/4 89/10/4
f 6/78/5 5/79/5 80/60/5
f 80/60/5 79/62/5 61/50/5
f 77/64/5 76/63/5 65/80/5
f 79/62/5 62/51/5 61/50/5
f 61/50/5 6/78/5 80/60/5
f 63/81/5 62/51/5 78/82/5
f 65/80/5 64/83/5 77/64/5
f 68/49/5 67/13/5 74/12/5
f 64/83/5 63/81/5 77/64/5
f 69/47/5 68/49/5 72/84/5
f 66/14/5 65/80/5 76/63/5
f 79/62/5 78/82/5 62/51/5
f 76/63/5 75/85/5 66/14/5
f 74/12/5 73/86/5 68/49/5
f 72/84/5 71/65/5 70/48/5
f 4/87/5 10/88/5 70/48/5
f 70/48/5 69/47/5 72/84/5
f 63/81/5 78/82/5 77/64/5
f 75/85/5 74/12/5 66/14/5
f 71/65/5 4/87/5 70/48/5
f 68/49/5 73/86/5 72/84/5
f 12/15/3 11/89/3 17/16/3
f 18/20/6 13/22/6 104/18/6
f 104/18/6 12/15/6 16/17/6
f 101/19/6 18/20/6 104/18/6
f 18/20/1 19/33/1 14/21/1
f 17/16/26 11/89/26 21/34/26
f 40/39/27 39/40/27 22/35/27
f 37/41/7 36/23/7 25/25/7
f 39/40/7 38/42/7 23/90/7
f 21/34/28 11/89/28 40/39/28
f 23/90/7 22/35/7 39/40/7
f 25/25/7 24/91/7 37/41/7
f 27/36/7 26/24/7 35/92/7
f 29/38/7 28/93/7 33/94/7
f 20/95/29 30/37/29 31/43/29
f 31/43/30 15/96/30 20/95/30
f 33/94/7 32/97/7 29/38/7
f 35/92/7 34/98/7 27/36/7
f 32/97/27 30/37/27 29/38/27
f 30/37/31 32/97/31 31/43/31
f 24/91/7 38/42/7 37/41/7
f 28/93/7 34/98/7 33/94/7
f 34/98/7 28/93/7 27/36/7
f 38/42/7 24/91/7 23/90/7
f 22/35/31 21/34/31 40/39/31
f 35/92/7 26/24/7 36/23/7
f 20/95/8 15/96/8 50/44/8
f 50/44/8 49/99/8 52/100/8
f 48/46/8 47/45/8 54/101/8
f 45/102/8 44/103/8 57/31/8
f 47/45/8 46/104/8 54/101/8
f 20/95/8 50/44/8 51/29/8
f 52/100/8 51/29/8 50/44/8
f 53/105/8 52/100/8 48/46/8
f 49/99/8 48/46/8 52/100/8
f 44/103/8 43/106/8 58/107/8
f 41/28/8 14/21/8 19/33/8
f 43/106/8 42/27/8 58/107/8
f 53/105/8 48/46/8 54/101/8
f 56/30/8 55/108/8 45/102/8
f 54/101/8 46/104/8 55/108/8
f 42/27/8 59/26/8 58/107/8
f 19/33/8 60/32/8 41/28/8
f 58/107/8 57/31/8 44/103/8
f 60/32/8 59/26/8 41/28/8
f 46/104/8 45/102/8 55/108/8
f 57/31/8 56/30/8 45/102/8
f 52/100/9 18/20/9 51/29/9
f 101/19/32 20/95/32 51/29/32
f 18/20/10 52/100/10 53/105/10
f 18/20/10 53/105/10 54/101/10
f 58/107/10 59/26/10 18/20/10
f 55/108/10 56/30/10 18/20/10
f 57/31/10 58/107/10 18/20/10
f 18/20/10 54/101/10 55/108/10
f 18/20/11 59/26/11 60/32/11
f 16/17/12 17/16/12 21/34/12
f 16/17/13 22/35/13 23/90/13
f 16/17/13 23/90/13 24/91/13
f 27/36/13 28/93/13 16/17/13
f 25/25/13 26/24/13 16/17/13
f 16/17/13 24/91/13 25/25/13
f 28/93/13 29/38/13 16/17/13
f 30/37/33 101/19/33 16/17/33
f 40/39/15 11/89/15 12/15/15
f 32/97/16 33/94/16 12/15/16
f 34/98/16 35/92/16 12/15/16
f 35/92/16 36/23/16 12/15/16
f 12/15/16 33/94/16 34/98/16
f 38/42/16 39/40/16 12/15/16
f 12/15/16 36/23/16 37/41/16
f 31/43/17 32/97/17 12/15/17
f 15/96/34 104/18/34 50/44/34
f 13/22/17 49/99/17 50/44/17
f 42/27/18 43/106/18 13/22/18
f 45/102/18 46/104/18 13/22/18
f 13/22/18 43/106/18 44/103/18
f 44/103/18 45/102/18 13/22/18
f 48/46/18 49/99/18 13/22/18
f 46/104/18 47/45/18 13/22/18
f 41/28/19 42/27/19 13/22/19
f 70/48/35 10/88/35 103/4/35
f 103/4/20 7/1/20 70/48/20
f 63/81/21 64/83/21 7/1/21
f 66/14/21 67/13/21 7/1/21
f 64/83/21 65/80/21 7/1/21
f 7/1/21 62/51/21 63/81/21
f 68/49/21 69/47/21 7/1/21
f 65/80/21 66/14/21 7/1/21
f 7/1/11 6/3/11 61/50/11
f 90/52/12 9/7/12 8/53/12
f 83/72/22 84/70/22 8/53/22
f 86/73/22 87/54/22 8/53/22
f 84/70/22 85/74/22 8/53/22
f 8/53/22 82/71/22 83/72/22
f 88/55/22 89/10/22 8/53/22
f 85/74/22 86/73/22 8/53/22
f 82/71/20 8/53/20 81/56/20
f 103/4/36 10/66/36 81/56/36
f 91/9/15 92/11/15 2/5/15
f 2/5/23 92/11/23 93/77/23
f 94/76/23 95/75/23 2/5/23
f 2/5/23 93/77/23 94/76/23
f 98/58/23 99/68/23 2/5/23
f 96/69/23 97/57/23 2/5/23
f 2/5/23 95/75/23 96/69/23
f 4/67/37 102/6/37 100/59/37
f 2/5/24 99/68/24 100/59/24
f 80/60/19 5/2/19 1/61/19
f 72/84/25 73/86/25 1/61/25
f 74/12/25 75/85/25 1/61/25
f 77/64/25 78/82/25 1/61/25
f 75/85/25 76/63/25 1/61/25
f 1/61/25 73/86/25 74/12/25
f 78/82/25 79/62/25 1/61/25
f 102/6/38 4/67/38 71/65/38
f 71/65/24 72/84/24 1/61/24
