{
    "accessors": {
        "accessor_index_0": {
            "bufferView": "bufferView_index",
            "byteOffset": 0,
            "byteStride": 0,
            "componentType": 5123,
            "count": 594,
            "type": "SCALAR"
        },
        "accessor_normal": {
            "bufferView": "bufferView_vertex",
            "byteOffset": 12,
            "byteStride": 32,
            "componentType": 5126,
            "count": 293,
            "type": "VEC3"
        },
        "accessor_position": {
            "bufferView": "bufferView_vertex",
            "byteOffset": 0,
            "byteStride": 32,
            "componentType": 5126,
            "count": 293,
            "max": [
                0.12,
                2,
                1
            ],
            "min": [
                -0.02,
                0,
                0
            ],
            "type": "VEC3"
        },
        "accessor_uv": {
            "bufferView": "bufferView_vertex",
            "byteOffset": 24,
            "byteStride": 32,
            "componentType": 5126,
            "count": 293,
            "type": "VEC2"
        }
    },
    "asset": {
        "generator": "OBJ2GLTF",
        "premultipliedAlpha": true,
        "profile": {
            "api": "WebGL",
            "version": "1.0"
        },
        "version": 1
    },
    "bufferViews": {
        "bufferView_index": {
            "buffer": "buffer_door-hex-frame-1x2",
            "byteLength": 1188,
            "byteOffset": 9376,
            "target": 34963
        },
        "bufferView_vertex": {
            "buffer": "buffer_door-hex-frame-1x2",
            "byteLength": 9376,
            "byteOffset": 0,
            "target": 34962
        }
    },
    "buffers": {
        "buffer_door-hex-frame-1x2": {
            "byteLength": 10564,
            "type": "arraybuffer",
            "uri": "door-hex-frame-1x2.bin"
        }
    },
    "extensionsUsed": [],
    "images": {},
    "materials": {
        "material_None": {
            "extensions": {},
            "name": "None",
            "values": {
                "ambient": [
                    0,
                    0,
                    0,
                    1
                ],
                "diffuse": [
                    0.8,
                    0.8,
                    0.8,
                    1
                ],
                "emission": [
                    0,
                    0,
                    0,
                    1
                ],
                "shininess": 0,
                "specular": [
                    0.8,
                    0.8,
                    0.8,
                    1
                ],
                "transparency": 1
            }
        }
    },
    "meshes": {
        "mesh_door-hex-frame-1x2": {
            "name": "door-hex-frame-1x2",
            "primitives": [
                {
                    "attributes": {
                        "NORMAL": "accessor_normal",
                        "POSITION": "accessor_position",
                        "TEXCOORD_0": "accessor_uv"
                    },
                    "indices": "accessor_index_0",
                    "material": "material_None",
                    "mode": 4
                }
            ]
        }
    },
    "nodes": {
        "node_door-hex-frame-1x2": {
            "children": [],
            "matrix": [
                1,
                0,
                0,
                0,
                0,
                1,
                0,
                0,
                0,
                0,
                1,
                0,
                0,
                0,
                0,
                1
            ],
            "meshes": [
                "mesh_door-hex-frame-1x2"
            ],
            "name": "door-hex-frame-1x2"
        }
    },
    "samplers": {
        "sampler_0": {}
    },
    "scene": "scene_door-hex-frame-1x2",
    "scenes": {
        "scene_door-hex-frame-1x2": {
            "nodes": [
                "node_door-hex-frame-1x2"
            ]
        }
    },
    "textures": {}
}