{
    "accessors": {
        "accessor_0": {
            "bufferView": "bufferView_0",
            "byteOffset": 0,
            "byteStride": 0,
            "componentType": 5126,
            "count": 293,
            "max": [
                0.11999999731779099,
                2,
                1
            ],
            "min": [
                -0.019999999552965164,
                0,
                0
            ],
            "type": "VEC3"
        },
        "accessor_1": {
            "bufferView": "bufferView_0",
            "byteOffset": 3516,
            "byteStride": 0,
            "componentType": 5126,
            "count": 293,
            "max": [
                0.9966999888420105,
                1,
                1
            ],
            "min": [
                -0.9965999722480774,
                -1,
                -1
            ],
            "type": "VEC3"
        },
        "accessor_2": {
            "bufferView": "bufferView_0",
            "byteOffset": 7032,
            "byteStride": 0,
            "componentType": 5126,
            "count": 293,
            "max": [
                0.9330000281333923,
                1
            ],
            "min": [
                0,
                0.75
            ],
            "type": "VEC2"
        },
        "accessor_3": {
            "bufferView": "bufferView_1",
            "byteOffset": 0,
            "byteStride": 0,
            "componentType": 5123,
            "count": 594,
            "max": [
                292
            ],
            "min": [
                0
            ],
            "type": "SCALAR"
        }
    },
    "animations": {},
    "asset": {
        "generator": "obj2gltf",
        "premultipliedAlpha": true,
        "profile": {
            "api": "WebGL",
            "version": "1.0"
        },
        "version": "1.0"
    },
    "bufferViews": {
        "bufferView_0": {
            "buffer": "buffer",
            "byteLength": 9376,
            "byteOffset": 0,
            "target": 34962
        },
        "bufferView_1": {
            "buffer": "buffer",
            "byteLength": 1188,
            "byteOffset": 9376,
            "target": 34963
        }
    },
    "buffers": {
        "buffer": {
            "byteLength": 10564,
            "type": "arraybuffer",
            "uri": "data:application/octet-stream;base64,"
        }
    },
    "cameras": {},
    "extensionsUsed": [],
    "images": {},
    "materials": {
        "None": {
            "values": {
                "ambient": [
                    0,
                    0,
                    0,
                    1
                ],
                "diffuse": [
                    0.8,
                    0.8,
                    0.8,
                    1
                ],
                "emission": [
                    0,
                    0,
                    0,
                    1
                ],
                "shininess": 0,
                "specular": [
                    0.8,
                    0.8,
                    0.8,
                    1
                ],
                "transparency": 1
            }
        }
    },
    "meshes": {
        "Cube_Cube.007-Mesh": {
            "name": "Cube_Cube.007-Mesh",
            "primitives": [
                {
                    "attributes": {
                        "NORMAL": "accessor_1",
                        "POSITION": "accessor_0",
                        "TEXCOORD_0": "accessor_2"
                    },
                    "indices": "accessor_3",
                    "material": "None",
                    "mode": 4
                }
            ]
        }
    },
    "nodes": {
        "Cube_Cube.007": {
            "children": [],
            "matrix": [
                1,
                0,
                0,
                0,
                0,
                1,
                0,
                0,
                0,
                0,
                1,
                0,
                0,
                0,
                0,
                1
            ],
            "meshes": [
                "Cube_Cube.007-Mesh"
            ],
            "name": "Cube_Cube.007"
        }
    },
    "samplers": {},
    "scene": "scene",
    "scenes": {
        "scene": {
            "nodes": [
                "Cube_Cube.007"
            ]
        }
    },
    "skins": {},
    "textures": {}
}