# Blender v2.78 (sub 0) OBJ File: 'wall-4-corner.blend'
# www.blender.org
mtllib wall-4-corner.mtl
o Cube
v 0.070711 0.000000 -0.070711
v 0.070711 0.000000 0.070711
v -0.070711 0.000000 0.070711
v -0.070710 0.000000 -0.070711
v 0.070711 4.000000 -0.070710
v 0.070710 4.000000 0.070711
v -0.070711 4.000000 0.070710
v -0.070711 4.000000 -0.070711
vt 0.0000 0.0000
vt 0.0000 0.0000
vt 0.0000 0.0000
vt 0.0000 0.0000
vt 0.0000 0.0000
vt 0.0000 0.0000
vt 0.1001 0.0500
vt 0.1500 1.0000
vt 0.1000 1.0000
vt 0.1500 0.0501
vt 0.2000 1.0000
vt 0.1000 0.9500
vt 0.0500 0.0000
vt 0.1000 0.0000
vt 0.0001 0.0001
vt 0.0500 0.9499
vt 0.0001 0.9500
vt 0.0000 0.0000
vt 0.0000 0.0000
vt 0.1501 0.0500
vt 0.2000 0.0501
vt 0.0500 0.9500
vn 0.0000 -1.0000 0.0000
vn 0.0000 1.0000 0.0000
vn 1.0000 -0.0000 0.0000
vn -0.0000 -0.0000 1.0000
vn -1.0000 -0.0000 -0.0000
vn 0.0000 0.0000 -1.0000
usemtl Material
s off
f 1/1/1 3/2/1 4/3/1
f 8/4/2 6/5/2 5/6/2
f 5/7/3 2/8/3 1/9/3
f 6/10/4 3/11/4 2/8/4
f 7/12/5 4/13/5 3/14/5
f 1/15/6 8/16/6 5/17/6
f 1/1/1 2/18/1 3/2/1
f 8/4/2 7/19/2 6/5/2
f 5/7/3 6/20/3 2/8/3
f 6/10/4 7/21/4 3/11/4
f 7/12/5 8/22/5 4/13/5
f 1/15/6 4/13/6 8/16/6
