{
    "accessors": {
        "accessor_0": {
            "bufferView": "bufferView_0",
            "byteOffset": 0,
            "byteStride": 0,
            "componentType": 5126,
            "count": 12,
            "max": [
                0.800000011920929,
                3.950000047683716,
                0.05000000074505806
            ],
            "min": [
                -0.800000011920929,
                2.549999952316284,
                -0.05000000074505806
            ],
            "type": "VEC3"
        },
        "accessor_1": {
            "bufferView": "bufferView_0",
            "byteOffset": 144,
            "byteStride": 0,
            "componentType": 5126,
            "count": 12,
            "max": [
                0,
                0,
                1
            ],
            "min": [
                0,
                0,
                1
            ],
            "type": "VEC3"
        },
        "accessor_10": {
            "bufferView": "bufferView_0",
            "byteOffset": 1104,
            "byteStride": 0,
            "componentType": 5126,
            "count": 20,
            "max": [
                1,
                0,
                1
            ],
            "min": [
                -1,
                -1,
                -1
            ],
            "type": "VEC3"
        },
        "accessor_11": {
            "bufferView": "bufferView_0",
            "byteOffset": 1344,
            "byteStride": 0,
            "componentType": 5126,
            "count": 20,
            "max": [
                1,
                1
            ],
            "min": [
                0,
                -0.00039999998989515007
            ],
            "type": "VEC2"
        },
        "accessor_12": {
            "bufferView": "bufferView_1",
            "byteOffset": 108,
            "byteStride": 0,
            "componentType": 5123,
            "count": 30,
            "max": [
                19
            ],
            "min": [
                0
            ],
            "type": "SCALAR"
        },
        "accessor_13": {
            "bufferView": "bufferView_0",
            "byteOffset": 1504,
            "byteStride": 0,
            "componentType": 5126,
            "count": 16,
            "max": [
                1.5,
                4,
                0.10000099986791611
            ],
            "min": [
                -1.5,
                2.5,
                -0.10000000149011612
            ],
            "type": "VEC3"
        },
        "accessor_14": {
            "bufferView": "bufferView_0",
            "byteOffset": 1696,
            "byteStride": 0,
            "componentType": 5126,
            "count": 16,
            "max": [
                0,
                1,
                1
            ],
            "min": [
                0,
                -1,
                -1
            ],
            "type": "VEC3"
        },
        "accessor_15": {
            "bufferView": "bufferView_0",
            "byteOffset": 1888,
            "byteStride": 0,
            "componentType": 5126,
            "count": 16,
            "max": [
                1,
                1
            ],
            "min": [
                0,
                0.05000000074505806
            ],
            "type": "VEC2"
        },
        "accessor_16": {
            "bufferView": "bufferView_1",
            "byteOffset": 168,
            "byteStride": 0,
            "componentType": 5123,
            "count": 24,
            "max": [
                15
            ],
            "min": [
                0
            ],
            "type": "SCALAR"
        },
        "accessor_17": {
            "bufferView": "bufferView_0",
            "byteOffset": 2016,
            "byteStride": 0,
            "componentType": 5126,
            "count": 20,
            "max": [
                -0.75,
                4,
                0.10000000149011612
            ],
            "min": [
                -1.5,
                0,
                -0.10000000149011612
            ],
            "type": "VEC3"
        },
        "accessor_18": {
            "bufferView": "bufferView_0",
            "byteOffset": 2256,
            "byteStride": 0,
            "componentType": 5126,
            "count": 20,
            "max": [
                1,
                0,
                1
            ],
            "min": [
                -1,
                -1,
                -1
            ],
            "type": "VEC3"
        },
        "accessor_19": {
            "bufferView": "bufferView_0",
            "byteOffset": 2496,
            "byteStride": 0,
            "componentType": 5126,
            "count": 20,
            "max": [
                1,
                1
            ],
            "min": [
                0,
                -0.00039999998989515007
            ],
            "type": "VEC2"
        },
        "accessor_2": {
            "bufferView": "bufferView_1",
            "byteOffset": 0,
            "byteStride": 0,
            "componentType": 5123,
            "count": 18,
            "max": [
                11
            ],
            "min": [
                0
            ],
            "type": "SCALAR"
        },
        "accessor_20": {
            "bufferView": "bufferView_1",
            "byteOffset": 216,
            "byteStride": 0,
            "componentType": 5123,
            "count": 30,
            "max": [
                19
            ],
            "min": [
                0
            ],
            "type": "SCALAR"
        },
        "accessor_3": {
            "bufferView": "bufferView_0",
            "byteOffset": 288,
            "byteStride": 0,
            "componentType": 5126,
            "count": 12,
            "max": [
                1.4500000476837158,
                3.950000047683716,
                0.05000000074505806
            ],
            "min": [
                0.800000011920929,
                0.05000000074505806,
                -0.05000000074505806
            ],
            "type": "VEC3"
        },
        "accessor_4": {
            "bufferView": "bufferView_0",
            "byteOffset": 432,
            "byteStride": 0,
            "componentType": 5126,
            "count": 12,
            "max": [
                0,
                0,
                1
            ],
            "min": [
                0,
                0,
                1
            ],
            "type": "VEC3"
        },
        "accessor_5": {
            "bufferView": "bufferView_1",
            "byteOffset": 36,
            "byteStride": 0,
            "componentType": 5123,
            "count": 18,
            "max": [
                11
            ],
            "min": [
                0
            ],
            "type": "SCALAR"
        },
        "accessor_6": {
            "bufferView": "bufferView_0",
            "byteOffset": 576,
            "byteStride": 0,
            "componentType": 5126,
            "count": 12,
            "max": [
                -0.800000011920929,
                3.950000047683716,
                0.05000000074505806
            ],
            "min": [
                -1.4500000476837158,
                0.05000000074505806,
                -0.05000000074505806
            ],
            "type": "VEC3"
        },
        "accessor_7": {
            "bufferView": "bufferView_0",
            "byteOffset": 720,
            "byteStride": 0,
            "componentType": 5126,
            "count": 12,
            "max": [
                0,
                0,
                1
            ],
            "min": [
                0,
                0,
                1
            ],
            "type": "VEC3"
        },
        "accessor_8": {
            "bufferView": "bufferView_1",
            "byteOffset": 72,
            "byteStride": 0,
            "componentType": 5123,
            "count": 18,
            "max": [
                11
            ],
            "min": [
                0
            ],
            "type": "SCALAR"
        },
        "accessor_9": {
            "bufferView": "bufferView_0",
            "byteOffset": 864,
            "byteStride": 0,
            "componentType": 5126,
            "count": 20,
            "max": [
                1.5,
                4,
                0.10000099986791611
            ],
            "min": [
                0.7499989867210388,
                0,
                -0.10000000149011612
            ],
            "type": "VEC3"
        }
    },
    "animations": {},
    "asset": {
        "generator": "obj2gltf",
        "premultipliedAlpha": true,
        "profile": {
            "api": "WebGL",
            "version": "1.0"
        },
        "version": "1.0"
    },
    "bufferViews": {
        "bufferView_0": {
            "buffer": "buffer",
            "byteLength": 2656,
            "byteOffset": 0,
            "target": 34962
        },
        "bufferView_1": {
            "buffer": "buffer",
            "byteLength": 276,
            "byteOffset": 2656,
            "target": 34963
        }
    },
    "buffers": {
        "buffer": {
            "byteLength": 2932,
            "type": "arraybuffer",
            "uri": "data:application/octet-stream;base64,"
        }
    },
    "cameras": {},
    "extensionsUsed": [],
    "images": {
        "image_Material_Base_Color.png": {
            "uri": "Material_Base_Color.png"
        },
        "image_Material_Height.png": {
            "uri": "Material_Height.png"
        },
        "image_Material_Metallic.png": {
            "uri": "Material_Metallic.png"
        },
        "image_Material_Roughness.png": {
            "uri": "Material_Roughness.png"
        }
    },
    "materials": {
        "Material": {
            "values": {
                "ambient": [
                    1,
                    1,
                    1,
                    1
                ],
                "baseColor": "texture_Material_Base_Color.png",
                "diffuse": [
                    0.64,
                    0.64,
                    0.64,
                    1
                ],
                "emission": [
                    0,
                    0,
                    0,
                    1
                ],
                "height": "texture_Material_Height.png",
                "metallic": "texture_Material_Metallic.png",
                "roughness": "texture_Material_Roughness.png",
                "shininess": 96.078431,
                "specular": [
                    0.5,
                    0.5,
                    0.5,
                    1
                ],
                "transparency": 1
            }
        },
        "None": {
            "values": {
                "ambient": [
                    0,
                    0,
                    0,
                    1
                ],
                "diffuse": [
                    0.8,
                    0.8,
                    0.8,
                    1
                ],
                "emission": [
                    0,
                    0,
                    0,
                    1
                ],
                "shininess": 0,
                "specular": [
                    0.8,
                    0.8,
                    0.8,
                    1
                ],
                "transparency": 1
            }
        }
    },
    "meshes": {
        "Cube-Mesh": {
            "name": "Cube-Mesh",
            "primitives": [
                {
                    "attributes": {
                        "NORMAL": "accessor_18",
                        "POSITION": "accessor_17",
                        "TEXCOORD_0": "accessor_19"
                    },
                    "indices": "accessor_20",
                    "material": "Material",
                    "mode": 4
                }
            ]
        },
        "Cube.001-Mesh": {
            "name": "Cube.001-Mesh",
            "primitives": [
                {
                    "attributes": {
                        "NORMAL": "accessor_14",
                        "POSITION": "accessor_13",
                        "TEXCOORD_0": "accessor_15"
                    },
                    "indices": "accessor_16",
                    "material": "Material",
                    "mode": 4
                }
            ]
        },
        "Cube.002_Cube.003-Mesh": {
            "name": "Cube.002_Cube.003-Mesh",
            "primitives": [
                {
                    "attributes": {
                        "NORMAL": "accessor_10",
                        "POSITION": "accessor_9",
                        "TEXCOORD_0": "accessor_11"
                    },
                    "indices": "accessor_12",
                    "material": "Material",
                    "mode": 4
                }
            ]
        },
        "Plane-Mesh": {
            "name": "Plane-Mesh",
            "primitives": [
                {
                    "attributes": {
                        "NORMAL": "accessor_7",
                        "POSITION": "accessor_6"
                    },
                    "indices": "accessor_8",
                    "material": "None",
                    "mode": 4
                }
            ]
        },
        "Plane.001-Mesh": {
            "name": "Plane.001-Mesh",
            "primitives": [
                {
                    "attributes": {
                        "NORMAL": "accessor_4",
                        "POSITION": "accessor_3"
                    },
                    "indices": "accessor_5",
                    "material": "None",
                    "mode": 4
                }
            ]
        },
        "Plane.002-Mesh": {
            "name": "Plane.002-Mesh",
            "primitives": [
                {
                    "attributes": {
                        "NORMAL": "accessor_1",
                        "POSITION": "accessor_0"
                    },
                    "indices": "accessor_2",
                    "material": "None",
                    "mode": 4
                }
            ]
        }
    },
    "nodes": {
        "Cube": {
            "children": [],
            "matrix": [
                1,
                0,
                0,
                0,
                0,
                1,
                0,
                0,
                0,
                0,
                1,
                0,
                0,
                0,
                0,
                1
            ],
            "meshes": [
                "Cube-Mesh"
            ],
            "name": "Cube"
        },
        "Cube.001": {
            "children": [],
            "matrix": [
                1,
                0,
                0,
                0,
                0,
                1,
                0,
                0,
                0,
                0,
                1,
                0,
                0,
                0,
                0,
                1
            ],
            "meshes": [
                "Cube.001-Mesh"
            ],
            "name": "Cube.001"
        },
        "Cube.002_Cube.003": {
            "children": [],
            "matrix": [
                1,
                0,
                0,
                0,
                0,
                1,
                0,
                0,
                0,
                0,
                1,
                0,
                0,
                0,
                0,
                1
            ],
            "meshes": [
                "Cube.002_Cube.003-Mesh"
            ],
            "name": "Cube.002_Cube.003"
        },
        "Plane": {
            "children": [],
            "matrix": [
                1,
                0,
                0,
                0,
                0,
                1,
                0,
                0,
                0,
                0,
                1,
                0,
                0,
                0,
                0,
                1
            ],
            "meshes": [
                "Plane-Mesh"
            ],
            "name": "Plane"
        },
        "Plane.001": {
            "children": [],
            "matrix": [
                1,
                0,
                0,
                0,
                0,
                1,
                0,
                0,
                0,
                0,
                1,
                0,
                0,
                0,
                0,
                1
            ],
            "meshes": [
                "Plane.001-Mesh"
            ],
            "name": "Plane.001"
        },
        "Plane.002": {
            "children": [],
            "matrix": [
                1,
                0,
                0,
                0,
                0,
                1,
                0,
                0,
                0,
                0,
                1,
                0,
                0,
                0,
                0,
                1
            ],
            "meshes": [
                "Plane.002-Mesh"
            ],
            "name": "Plane.002"
        }
    },
    "samplers": {
        "sampler_0": {}
    },
    "scene": "scene",
    "scenes": {
        "scene": {
            "nodes": [
                "Plane.002",
                "Plane.001",
                "Plane",
                "Cube.002_Cube.003",
                "Cube.001",
                "Cube"
            ]
        }
    },
    "skins": {},
    "textures": {
        "texture_Material_Base_Color.png": {
            "format": 6407,
            "internalFormat": 6407,
            "sampler": "sampler_0",
            "source": "image_Material_Base_Color.png",
            "target": 3553,
            "type": 5121
        },
        "texture_Material_Height.png": {
            "format": 6403,
            "internalFormat": 33321,
            "sampler": "sampler_0",
            "source": "image_Material_Height.png",
            "target": 3553,
            "type": 5121
        },
        "texture_Material_Metallic.png": {
            "format": 6403,
            "internalFormat": 33321,
            "sampler": "sampler_0",
            "source": "image_Material_Metallic.png",
            "target": 3553,
            "type": 5121
        },
        "texture_Material_Roughness.png": {
            "format": 6403,
            "internalFormat": 33321,
            "sampler": "sampler_0",
            "source": "image_Material_Roughness.png",
            "target": 3553,
            "type": 5121
        }
    }
}