# Blender v2.78 (sub 0) OBJ File: 'door-hex-1x2.blend'
# www.blender.org
mtllib door-hex-1x2.mtl
o Circle
v 0.025000 1.000000 0.000002
v 0.025000 2.000000 0.250001
v 0.025000 2.000000 0.749999
v 0.025000 1.000000 0.999998
v 0.025000 0.000000 0.749999
v 0.025000 0.000000 0.250001
v 0.025000 1.000000 0.999998
v 0.025000 0.000000 0.749999
v 0.075000 2.000000 0.250001
v 0.075000 1.000000 0.000002
v 0.075000 2.000000 0.749999
v 0.075000 1.000000 0.999998
v 0.075000 0.000000 0.749999
v 0.075000 0.000000 0.250001
vt 0.0000 0.0000
vt 0.0000 0.0000
vt 0.0000 0.0000
vt 0.9330 0.2500
vt 0.5000 0.0000
vt 0.9330 0.2500
vt 0.0670 0.7500
vt 0.5000 0.0000
vt 0.5000 1.0000
vt 0.0000 0.0000
vt 0.0000 0.0000
vt 0.0000 0.0000
vt 0.0000 0.0000
vt 0.0000 0.0000
vt 0.0000 0.0000
vt 0.0000 0.0000
vt 0.5000 0.0000
vt 0.0000 0.0000
vt 0.9330 0.7500
vt 0.0670 0.2500
vt 0.9330 0.2500
vt 0.0000 0.0000
vt 0.0000 0.0000
vt 0.0000 0.0000
vn 0.0000 -1.0000 0.0000
vn 0.0000 0.0000 1.0000
vn 1.0000 -0.0000 0.0000
vn 0.0000 0.2425 0.9701
vn 0.0000 0.2425 -0.9701
vn 0.0000 -0.2425 -0.9701
vn 0.0000 -0.2425 0.9701
vn 0.0000 1.0000 0.0000
vn -1.0000 0.0000 0.0000
usemtl None
s off
f 6/1/1 13/2/1 5/3/1
f 5/4/2 7/5/2 8/6/2
f 9/7/3 12/8/3 10/9/3
f 4/10/4 11/11/4 3/12/4
f 2/13/5 10/14/5 1/15/5
f 1/15/6 14/16/6 6/1/6
f 5/4/7 12/8/7 4/17/7
f 3/12/8 9/18/8 2/13/8
f 1/15/9 6/1/9 4/10/9
f 6/1/1 14/16/1 13/2/1
f 5/4/2 4/17/2 7/5/2
f 14/19/3 10/9/3 12/8/3
f 9/7/3 11/20/3 12/8/3
f 12/8/3 13/21/3 14/19/3
f 4/10/4 12/22/4 11/11/4
f 2/13/5 9/18/5 10/14/5
f 1/15/6 10/14/6 14/16/6
f 5/4/7 13/21/7 12/8/7
f 3/12/8 11/11/8 9/18/8
f 3/12/9 2/13/9 1/15/9
f 5/3/2 7/23/2 8/24/2
f 8/24/9 4/10/9 6/1/9
f 3/12/9 1/15/9 4/10/9
f 6/1/2 5/3/2 8/24/2
