{
    "accessors": {
        "accessor_0": {
            "bufferView": "bufferView_0",
            "byteOffset": 0,
            "byteStride": 0,
            "componentType": 5126,
            "count": 44,
            "max": [
                0.07500000298023224,
                2,
                0.9999979734420776
            ],
            "min": [
                0.02500000037252903,
                0,
                0.0000019999999949504854
            ],
            "type": "VEC3"
        },
        "accessor_1": {
            "bufferView": "bufferView_0",
            "byteOffset": 528,
            "byteStride": 0,
            "componentType": 5126,
            "count": 44,
            "max": [
                1,
                1,
                1
            ],
            "min": [
                -1,
                -1,
                -0.9700999855995178
            ],
            "type": "VEC3"
        },
        "accessor_2": {
            "bufferView": "bufferView_0",
            "byteOffset": 1056,
            "byteStride": 0,
            "componentType": 5126,
            "count": 44,
            "max": [
                0.9330000281333923,
                1
            ],
            "min": [
                0,
                0
            ],
            "type": "VEC2"
        },
        "accessor_3": {
            "bufferView": "bufferView_1",
            "byteOffset": 0,
            "byteStride": 0,
            "componentType": 5123,
            "count": 72,
            "max": [
                43
            ],
            "min": [
                0
            ],
            "type": "SCALAR"
        }
    },
    "animations": {},
    "asset": {
        "generator": "obj2gltf",
        "premultipliedAlpha": true,
        "profile": {
            "api": "WebGL",
            "version": "1.0"
        },
        "version": "1.0"
    },
    "bufferViews": {
        "bufferView_0": {
            "buffer": "buffer",
            "byteLength": 1408,
            "byteOffset": 0,
            "target": 34962
        },
        "bufferView_1": {
            "buffer": "buffer",
            "byteLength": 144,
            "byteOffset": 1408,
            "target": 34963
        }
    },
    "buffers": {
        "buffer": {
            "byteLength": 1552,
            "type": "arraybuffer",
            "uri": "data:application/octet-stream;base64,"
        }
    },
    "cameras": {},
    "extensionsUsed": [],
    "images": {},
    "materials": {
        "None": {
            "values": {
                "ambient": [
                    0,
                    0,
                    0,
                    1
                ],
                "diffuse": [
                    0.8,
                    0.8,
                    0.8,
                    1
                ],
                "emission": [
                    0,
                    0,
                    0,
                    1
                ],
                "shininess": 0,
                "specular": [
                    0.8,
                    0.8,
                    0.8,
                    1
                ],
                "transparency": 1
            }
        }
    },
    "meshes": {
        "Circle-Mesh": {
            "name": "Circle-Mesh",
            "primitives": [
                {
                    "attributes": {
                        "NORMAL": "accessor_1",
                        "POSITION": "accessor_0",
                        "TEXCOORD_0": "accessor_2"
                    },
                    "indices": "accessor_3",
                    "material": "None",
                    "mode": 4
                }
            ]
        }
    },
    "nodes": {
        "Circle": {
            "children": [],
            "matrix": [
                1,
                0,
                0,
                0,
                0,
                1,
                0,
                0,
                0,
                0,
                1,
                0,
                0,
                0,
                0,
                1
            ],
            "meshes": [
                "Circle-Mesh"
            ],
            "name": "Circle"
        }
    },
    "samplers": {},
    "scene": "scene",
    "scenes": {
        "scene": {
            "nodes": [
                "Circle"
            ]
        }
    },
    "skins": {},
    "textures": {}
}