# Blender v2.78 (sub 0) OBJ File: 'airlock.blend'
# www.blender.org
mtllib airlock.mtl
o wf3_Cube.016
v -0.111460 2.376185 1.400103
v -0.111460 2.876185 1.400103
v -0.111460 2.376185 0.098143
v -0.111460 2.876185 0.098143
v 0.288540 2.376185 1.400103
v 0.288540 2.876185 1.400103
v 0.288540 2.376185 0.098143
v 0.288540 2.876185 0.098143
vt 0.0004 0.0001
vt 0.9998 0.3075
vt 0.0003 0.3072
vt 0.0000 0.0000
vt 0.0000 0.0000
vt 0.0000 0.0000
vt 0.9996 0.9217
vt 0.0002 0.6142
vt 0.9997 0.6146
vt 0.0000 0.0000
vt 0.0000 0.0000
vt 0.0000 0.0000
vt 0.0000 0.0000
vt 0.9999 0.0004
vt 0.0001 0.9213
vt 0.0000 0.0000
vn -1.0000 0.0000 0.0000
vn 0.0000 0.0000 -1.0000
vn 1.0000 0.0000 0.0000
vn 0.0000 0.0000 1.0000
vn 0.0000 -1.0000 0.0000
vn 0.0000 1.0000 0.0000
usemtl Wall4
s off
f 2/1/1 3/2/1 1/3/1
f 4/4/2 7/5/2 3/6/2
f 8/7/3 5/8/3 7/9/3
f 6/10/4 1/11/4 5/12/4
f 7/9/5 1/3/5 3/2/5
f 4/4/6 6/10/6 8/13/6
f 2/1/1 4/14/1 3/2/1
f 4/4/2 8/13/2 7/5/2
f 8/7/3 6/15/3 5/8/3
f 6/10/4 2/16/4 1/11/4
f 7/9/5 5/8/5 1/3/5
f 4/4/6 2/16/6 6/10/6
o wl1_Cube.004
v 0.000000 0.047154 0.165995
v 0.000000 0.847545 -0.634396
v 0.000000 -0.112924 0.005916
v 0.000000 0.687467 -0.794474
v 3.000000 0.047154 0.165995
v 3.000000 0.847545 -0.634396
v 3.000000 -0.112924 0.005916
v 3.000000 0.687467 -0.794474
vt 0.0000 0.0000
vt 0.0000 0.0000
vt 0.0000 0.0000
vt 0.0000 0.0000
vt 0.0000 0.0000
vt 0.0000 0.0000
vt 0.0000 0.0000
vt 3.0000 0.9999
vt 0.0001 0.0001
vt 3.0000 0.0001
vt 0.0000 0.0000
vt 0.0001 0.9999
vn -1.0000 0.0000 0.0000
vn 0.0000 -0.7071 -0.7071
vn 1.0000 0.0000 0.0000
vn 0.0000 0.7071 0.7071
vn 0.0000 -0.7071 0.7071
vn 0.0000 0.7071 -0.7071
usemtl Wall0
s off
f 10/17/7 11/18/7 9/19/7
f 12/20/8 15/21/8 11/18/8
f 16/22/9 13/23/9 15/21/9
f 14/24/10 9/25/10 13/26/10
f 15/21/11 9/19/11 11/18/11
f 12/20/12 14/27/12 16/22/12
f 10/17/7 12/20/7 11/18/7
f 12/20/8 16/22/8 15/21/8
f 16/22/9 14/27/9 13/23/9
f 14/24/10 10/28/10 9/25/10
f 15/21/11 13/23/11 9/19/11
f 12/20/12 10/17/12 14/27/12
o floor_Cube
v 3.110000 -0.125000 -0.254140
v 3.110000 -0.125000 1.745860
v -0.110000 -0.125000 1.745860
v -0.109999 -0.125000 -0.254140
v 3.110001 0.125000 -0.254139
v 3.109999 0.125000 1.745861
v -0.110001 0.125000 1.745860
v -0.110000 0.125000 -0.254140
vt 0.0000 0.0000
vt 0.0000 0.0000
vt 0.0000 0.0000
vt 0.0001 0.9999
vt 0.9999 0.0001
vt 0.9999 0.9999
vt 0.0000 0.0000
vt 0.0000 0.0000
vt 0.0000 0.0000
vt 0.0000 0.0000
vt 0.0000 0.0000
vt 0.0001 0.0001
vn 0.0000 -1.0000 0.0000
vn 0.0000 1.0000 0.0000
vn 1.0000 -0.0000 0.0000
vn -0.0000 -0.0000 1.0000
vn -1.0000 -0.0000 -0.0000
vn 0.0000 0.0000 -1.0000
usemtl Floor
s off
f 18/29/13 20/30/13 17/31/13
f 24/32/14 22/33/14 21/34/14
f 21/35/15 18/29/15 17/31/15
f 22/36/16 19/37/16 18/29/16
f 23/38/17 20/30/17 19/37/17
f 17/31/18 24/39/18 21/35/18
f 18/29/13 19/37/13 20/30/13
f 24/32/14 23/40/14 22/33/14
f 21/35/15 22/36/15 18/29/15
f 22/36/16 23/38/16 19/37/16
f 23/38/17 24/39/17 20/30/17
f 17/31/18 20/30/18 24/39/18
o wl2_Cube.005
v 0.000000 0.759666 -0.594474
v 0.000000 2.009666 -0.594474
v 0.000000 0.759666 -0.794474
v 0.000000 2.009666 -0.794474
v 3.000000 0.759666 -0.594474
v 3.000000 2.009666 -0.594474
v 3.000000 0.759666 -0.794474
v 3.000000 2.009666 -0.794474
vt 0.0000 0.0000
vt 0.0000 0.0000
vt 0.0000 0.0000
vt 0.0000 0.0000
vt 0.0000 0.0000
vt 0.0000 0.0000
vt 0.0000 0.0000
vt 3.0000 0.9999
vt 0.0001 0.0001
vt 3.0000 0.0001
vt 0.0000 0.0000
vt 0.0001 0.9999
vn -1.0000 0.0000 0.0000
vn 0.0000 0.0000 -1.0000
vn 1.0000 0.0000 0.0000
vn 0.0000 0.0000 1.0000
vn 0.0000 -1.0000 0.0000
vn 0.0000 1.0000 0.0000
usemtl Wall1
s off
f 26/41/19 27/42/19 25/43/19
f 28/44/20 31/45/20 27/42/20
f 32/46/21 29/47/21 31/45/21
f 30/48/22 25/49/22 29/50/22
f 31/45/23 25/43/23 27/42/23
f 28/44/24 30/51/24 32/46/24
f 26/41/19 28/44/19 27/42/19
f 28/44/20 32/46/20 31/45/20
f 32/46/21 30/51/21 29/47/21
f 30/48/22 26/52/22 25/49/22
f 31/45/23 29/47/23 25/43/23
f 28/44/24 26/41/24 30/51/24
o wl3_Cube.006
v 0.000000 1.927389 -0.634396
v 0.000000 2.727779 0.165995
v 0.000000 2.087467 -0.794474
v 0.000000 2.887857 0.005916
v 3.000000 1.927389 -0.634396
v 3.000000 2.727779 0.165995
v 3.000000 2.087467 -0.794474
v 3.000000 2.887857 0.005916
vt 0.0000 0.0000
vt 0.0000 0.0000
vt 0.0000 0.0000
vt 0.0000 0.0000
vt 0.0000 0.0000
vt 0.0000 0.0000
vt 3.0000 0.9999
vt 0.0001 0.0001
vt 3.0000 0.0001
vt 0.0000 0.0000
vt 0.0000 0.0000
vt 0.0001 0.9999
vn -1.0000 0.0000 0.0000
vn 0.0000 0.7071 -0.7071
vn 1.0000 -0.0000 0.0000
vn 0.0000 -0.7071 0.7071
vn 0.0000 -0.7071 -0.7071
vn 0.0000 0.7071 0.7071
usemtl Wall2
s off
f 33/53/25 36/54/25 35/55/25
f 36/54/26 39/56/26 35/55/26
f 40/57/27 37/58/27 39/56/27
f 38/59/28 33/60/28 37/61/28
f 39/56/29 33/53/29 35/55/29
f 36/54/30 38/62/30 40/57/30
f 33/53/25 34/63/25 36/54/25
f 36/54/26 40/57/26 39/56/26
f 40/57/27 38/62/27 37/58/27
f 38/59/28 34/64/28 33/60/28
f 39/56/29 37/58/29 33/53/29
f 36/54/30 34/63/30 38/62/30
o ceil_Cube.007
v 3.000000 2.645063 -0.254140
v 3.000000 2.645063 1.745860
v -0.000000 2.645063 1.745860
v 0.000000 2.645063 -0.254140
v 3.000001 2.895063 -0.254139
v 2.999999 2.895063 1.745861
v -0.000000 2.895063 1.745860
v 0.000000 2.895063 -0.254140
vt 0.0001 0.9999
vt 0.9999 0.0001
vt 0.9999 0.9999
vt 0.0000 0.0000
vt 0.0000 0.0000
vt 0.0000 0.0000
vt 0.0000 0.0000
vt 0.0000 0.0000
vt 0.0000 0.0000
vt 0.0000 0.0000
vt 0.0000 0.0000
vt 0.0001 0.0001
vn 0.0000 -1.0000 0.0000
vn 0.0000 1.0000 -0.0000
vn 1.0000 -0.0000 0.0000
vn -0.0000 -0.0000 1.0000
vn -1.0000 -0.0000 -0.0000
vn 0.0000 0.0000 -1.0000
usemtl Ceiling
s off
f 42/65/31 44/66/31 41/67/31
f 48/68/32 46/69/32 45/70/32
f 45/70/33 42/71/33 41/72/33
f 46/69/34 43/73/34 42/71/34
f 47/74/35 44/75/35 43/73/35
f 41/72/36 48/68/36 45/70/36
f 42/65/31 43/76/31 44/66/31
f 48/68/32 47/74/32 46/69/32
f 45/70/33 46/69/33 42/71/33
f 46/69/34 47/74/34 43/73/34
f 47/74/35 48/68/35 44/75/35
f 41/72/36 44/75/36 48/68/36
o wr1_Cube.008
v 3.000000 0.687467 2.295969
v 3.000000 -0.112924 1.495579
v 3.000000 0.847545 2.135891
v 3.000000 0.047154 1.335500
v 0.000000 0.687467 2.295969
v -0.000000 -0.112924 1.495579
v 0.000000 0.847545 2.135891
v 0.000000 0.047154 1.335500
vt 0.0000 0.0000
vt 0.0000 0.0000
vt 0.0000 0.0000
vt 0.0001 0.0001
vt 3.0000 0.9999
vt 0.0001 0.9999
vt 0.0000 0.0000
vt 0.0000 0.0000
vt 0.0000 0.0000
vt 0.0000 0.0000
vt 0.0000 0.0000
vt 3.0000 0.0001
vn 1.0000 0.0000 -0.0000
vn 0.0000 0.7071 -0.7071
vn -1.0000 0.0000 0.0000
vn -0.0000 -0.7071 0.7071
vn 0.0000 0.7071 0.7071
vn -0.0000 -0.7071 -0.7071
usemtl Wall0
s off
f 49/77/37 52/78/37 51/79/37
f 52/80/38 55/81/38 51/82/38
f 56/83/39 53/84/39 55/85/39
f 54/86/40 49/77/40 53/84/40
f 55/85/41 49/77/41 51/79/41
f 52/78/42 54/86/42 56/83/42
f 49/77/37 50/87/37 52/78/37
f 52/80/38 56/88/38 55/81/38
f 56/83/39 54/86/39 53/84/39
f 54/86/40 50/87/40 49/77/40
f 55/85/41 53/84/41 49/77/41
f 52/78/42 50/87/42 54/86/42
o wr2_Cube.009
v 3.000000 2.009665 2.294657
v 3.000000 0.759666 2.294657
v 3.000000 2.009665 2.094657
v 3.000000 0.759666 2.094657
v 0.000000 2.009666 2.294657
v -0.000000 0.759666 2.294657
v 0.000000 2.009666 2.094657
v -0.000000 0.759666 2.094657
vt 0.0000 0.0000
vt 0.0000 0.0000
vt 0.0000 0.0000
vt 0.0001 0.9999
vt 3.0000 0.0001
vt 3.0000 0.9999
vt 0.0000 0.0000
vt 0.0000 0.0000
vt 0.0000 0.0000
vt 0.0000 0.0000
vt 0.0000 0.0000
vt 0.0001 0.0001
vn 1.0000 -0.0000 0.0000
vn 0.0000 0.0000 -1.0000
vn -1.0000 0.0000 0.0000
vn 0.0000 0.0000 1.0000
vn 0.0000 1.0000 0.0000
vn -0.0000 -1.0000 0.0000
usemtl Wall1
s off
f 58/89/43 59/90/43 57/91/43
f 59/92/44 64/93/44 63/94/44
f 64/95/45 61/96/45 63/97/45
f 61/96/46 58/89/46 57/91/46
f 63/97/47 57/91/47 59/90/47
f 60/98/48 62/99/48 64/95/48
f 58/89/43 60/98/43 59/90/43
f 59/92/44 60/100/44 64/93/44
f 64/95/45 62/99/45 61/96/45
f 61/96/46 62/99/46 58/89/46
f 63/97/47 61/96/47 57/91/47
f 60/98/48 58/89/48 62/99/48
o wr3_Cube.010
v 3.000000 2.887861 1.494266
v 3.000000 2.087470 2.294657
v 3.000000 2.727783 1.334188
v 3.000000 1.927392 2.134579
v 0.000000 2.887861 1.494266
v 0.000000 2.087471 2.294657
v 0.000000 2.727783 1.334188
v 0.000000 1.927392 2.134579
vt 0.0000 0.0000
vt 0.0000 0.0000
vt 0.0000 0.0000
vt 0.0001 0.0001
vt 3.0000 0.9999
vt 0.0001 0.9999
vt 0.0000 0.0000
vt 0.0000 0.0000
vt 0.0000 0.0000
vt 0.0000 0.0000
vt 0.0000 0.0000
vt 3.0000 0.0001
vn 1.0000 0.0000 0.0000
vn -0.0000 -0.7071 -0.7071
vn -1.0000 0.0000 -0.0000
vn 0.0000 0.7071 0.7071
vn 0.0000 0.7071 -0.7071
vn -0.0000 -0.7071 0.7071
usemtl Wall2
s off
f 65/101/49 68/102/49 67/103/49
f 68/104/50 71/105/50 67/106/50
f 72/107/51 69/108/51 71/109/51
f 69/108/52 66/110/52 65/101/52
f 71/109/53 65/101/53 67/103/53
f 68/102/54 70/111/54 72/107/54
f 65/101/49 66/110/49 68/102/49
f 68/104/50 72/112/50 71/105/50
f 72/107/51 70/111/51 69/108/51
f 69/108/52 70/111/52 66/110/52
f 71/109/53 69/108/53 65/101/53
f 68/102/54 66/110/54 70/111/54
o wf1_Cube.011
v -0.111458 -0.187500 -0.901857
v -0.111458 -0.187500 0.098143
v -0.111458 2.937500 0.098143
v -0.111458 2.937499 -0.901857
v 0.288542 -0.187501 -0.901857
v 0.288542 -0.187499 0.098143
v 0.288542 2.937500 0.098143
v 0.288542 2.937500 -0.901857
vt 0.9999 0.4000
vt 0.0001 0.0001
vt 0.9999 0.0001
vt 0.0001 0.9599
vt 0.9999 0.5600
vt 0.9999 0.9599
vt 0.0000 0.0000
vt 0.0000 0.0000
vt 0.0000 0.0000
vt 0.0001 0.4000
vt 0.0000 0.0000
vt 0.0000 0.0000
vt 0.0000 0.0000
vt 0.0000 0.0000
vt 0.0001 0.5600
vt 0.0000 0.0000
vn -1.0000 0.0000 0.0000
vn 1.0000 -0.0000 0.0000
vn -0.0000 -1.0000 0.0000
vn -0.0000 0.0000 1.0000
vn -0.0000 1.0000 -0.0000
vn 0.0000 -0.0000 -1.0000
usemtl Wall3
s off
f 74/113/55 76/114/55 73/115/55
f 80/116/56 78/117/56 77/118/56
f 77/119/57 74/120/57 73/121/57
f 78/117/58 75/122/58 74/113/58
f 79/123/59 76/124/59 75/125/59
f 73/121/60 80/126/60 77/119/60
f 74/113/55 75/122/55 76/114/55
f 80/116/56 79/127/56 78/117/56
f 77/119/57 78/128/57 74/120/57
f 78/117/58 79/127/58 75/122/58
f 79/123/59 80/126/59 76/124/59
f 73/121/60 76/124/60 80/126/60
o wf2_Cube.012
v -0.111458 -0.187500 1.400103
v -0.111458 -0.187500 2.400103
v -0.111458 2.937500 2.400103
v -0.111458 2.937499 1.400103
v 0.288542 -0.187501 1.400104
v 0.288542 -0.187499 2.400104
v 0.288542 2.937500 2.400103
v 0.288542 2.937500 1.400103
vt 0.9999 0.9599
vt 0.0001 0.5600
vt 0.9999 0.5600
vt 0.0001 0.4000
vt 0.9999 0.0001
vt 0.9999 0.4000
vt 0.0000 0.0000
vt 0.0000 0.0000
vt 0.0000 0.0000
vt 0.0000 0.0000
vt 0.0000 0.0000
vt 0.0000 0.0000
vt 0.0000 0.0000
vt 0.0001 0.9599
vt 0.0001 0.0001
vt 0.0000 0.0000
vn -1.0000 0.0000 0.0000
vn 1.0000 -0.0000 0.0000
vn -0.0000 -1.0000 0.0000
vn -0.0000 0.0000 1.0000
vn -0.0000 1.0000 -0.0000
vn 0.0000 -0.0000 -1.0000
usemtl Wall3
s off
f 82/129/61 84/130/61 81/131/61
f 88/132/62 86/133/62 85/134/62
f 85/135/63 82/136/63 81/137/63
f 86/138/64 83/139/64 82/136/64
f 87/140/65 84/141/65 83/139/65
f 81/131/66 88/132/66 85/134/66
f 82/129/61 83/142/61 84/130/61
f 88/132/62 87/143/62 86/133/62
f 85/135/63 86/138/63 82/136/63
f 86/138/64 87/140/64 83/139/64
f 87/140/65 88/144/65 84/141/65
f 81/131/66 84/130/66 88/132/66
o wf1.001_Cube.017
v 2.695818 -0.187500 -0.901857
v 2.695818 -0.187500 0.098143
v 2.695818 2.937500 0.098143
v 2.695818 2.937500 -0.901857
v 3.095818 -0.187501 -0.901857
v 3.095818 -0.187499 0.098143
v 3.095819 2.937500 0.098143
v 3.095819 2.937500 -0.901857
vt 0.9999 0.4000
vt 0.0001 0.0001
vt 0.9999 0.0001
vt 0.0001 0.9599
vt 0.9999 0.5600
vt 0.9999 0.9599
vt 0.3333 0.3333
vt 0.6667 0.0000
vt 0.6667 0.3333
vt 0.0001 0.4000
vt 0.6667 0.3333
vt 1.0000 0.0000
vt 1.0000 0.3333
vt 0.3333 0.6667
vt 0.0001 0.5600
vt 0.3333 0.0000
vt 0.6667 0.0000
vt 0.6667 0.6667
vn -1.0000 0.0000 0.0000
vn 1.0000 -0.0000 0.0000
vn -0.0000 -1.0000 0.0000
vn -0.0000 0.0000 1.0000
vn -0.0000 1.0000 -0.0000
vn 0.0000 -0.0000 -1.0000
usemtl Wall3
s off
f 90/145/67 92/146/67 89/147/67
f 96/148/68 94/149/68 93/150/68
f 93/151/69 90/152/69 89/153/69
f 94/149/70 91/154/70 90/145/70
f 95/155/71 92/156/71 91/157/71
f 89/153/72 96/158/72 93/151/72
f 90/145/67 91/154/67 92/146/67
f 96/148/68 95/159/68 94/149/68
f 93/151/69 94/160/69 90/152/69
f 94/149/70 95/159/70 91/154/70
f 95/155/71 96/161/71 92/156/71
f 89/153/72 92/162/72 96/158/72
o wf2.001_Cube.018
v 2.695818 -0.187500 1.400103
v 2.695818 -0.187500 2.400103
v 2.695818 2.937500 2.400103
v 2.695818 2.937500 1.400103
v 3.095818 -0.187501 1.400104
v 3.095818 -0.187499 2.400104
v 3.095819 2.937500 2.400103
v 3.095819 2.937500 1.400103
vt 0.9999 0.9599
vt 0.0001 0.5600
vt 0.9999 0.5600
vt 0.0001 0.4000
vt 0.9999 0.0001
vt 0.9999 0.4000
vt 0.3333 0.3333
vt 0.6667 0.0000
vt 0.6667 0.3333
vt 0.0000 0.0000
vt 0.3333 0.3333
vt 0.0000 0.3333
vt 0.6667 0.3333
vt 1.0000 0.0000
vt 1.0000 0.3333
vt 0.0001 0.9599
vt 0.0001 0.0001
vt 0.3333 0.0000
vt 0.3333 0.0000
vt 0.6667 0.0000
vn -1.0000 0.0000 0.0000
vn 1.0000 -0.0000 0.0000
vn -0.0000 -1.0000 0.0000
vn 0.0000 0.0000 1.0000
vn -0.0000 1.0000 -0.0000
vn 0.0000 -0.0000 -1.0000
usemtl Wall3
s off
f 98/163/73 100/164/73 97/165/73
f 104/166/74 102/167/74 101/168/74
f 101/169/75 98/170/75 97/171/75
f 102/172/76 99/173/76 98/174/76
f 103/175/77 100/176/77 99/177/77
f 97/165/78 104/166/78 101/168/78
f 98/163/73 99/178/73 100/164/73
f 104/166/74 103/179/74 102/167/74
f 101/169/75 102/180/75 98/170/75
f 102/172/76 103/181/76 99/173/76
f 103/175/77 104/182/77 100/176/77
f 97/165/78 100/164/78 104/166/78
o wf3.001_Cube.019
v 2.695817 2.376185 1.400103
v 2.695817 2.876185 1.400103
v 2.695817 2.376185 0.098143
v 2.695817 2.876185 0.098143
v 3.095817 2.376185 1.400103
v 3.095817 2.876185 1.400103
v 3.095817 2.376185 0.098143
v 3.095817 2.876185 0.098143
vt 0.0004 0.0001
vt 0.9998 0.3075
vt 0.0003 0.3072
vt 0.0000 0.0000
vt 0.0000 0.0000
vt 0.0000 0.0000
vt 0.9996 0.9217
vt 0.0002 0.6142
vt 0.9997 0.6146
vt 0.0000 0.0000
vt 0.0000 0.0000
vt 0.0000 0.0000
vt 0.0000 0.0000
vt 0.9999 0.0004
vt 0.0001 0.9213
vt 0.0000 0.0000
vn -1.0000 0.0000 0.0000
vn 0.0000 0.0000 -1.0000
vn 1.0000 0.0000 0.0000
vn 0.0000 0.0000 1.0000
vn 0.0000 -1.0000 0.0000
vn 0.0000 1.0000 0.0000
usemtl Wall4
s off
f 106/183/79 107/184/79 105/185/79
f 108/186/80 111/187/80 107/188/80
f 112/189/81 109/190/81 111/191/81
f 110/192/82 105/193/82 109/194/82
f 111/191/83 105/185/83 107/184/83
f 108/186/84 110/192/84 112/195/84
f 106/183/79 108/196/79 107/184/79
f 108/186/80 112/195/80 111/187/80
f 112/189/81 110/197/81 109/190/81
f 110/192/82 106/198/82 105/193/82
f 111/191/83 109/190/83 105/185/83
f 108/186/84 106/198/84 110/192/84
