# Blender v2.78 (sub 0) OBJ File: 'airlock.blend'
# www.blender.org
mtllib airlock.mtl
o Cube.014
v 0.104564 2.816383 0.742500
v 0.104564 2.816383 -0.742500
v 0.104564 2.629778 -0.926559
v 0.104564 2.681489 0.875554
v 0.104564 2.552066 -0.796500
v 0.104564 2.558463 0.796500
v 0.084133 2.681489 0.875554
v 0.084133 2.816383 0.742500
v 0.084133 2.816383 -0.742500
v 0.084133 2.629778 -0.926559
v 0.084133 2.552066 -0.796500
v 0.084133 2.558463 0.796500
vt 0.6418 0.0282
vt 0.9660 0.0839
vt 0.9774 0.0296
vt 0.9660 0.0839
vt 0.6418 0.0282
vt 0.9774 0.0296
vt 0.9940 0.0555
vt 0.9940 0.0555
vt 0.6144 0.0446
vt 0.6531 0.0839
vt 0.6144 0.0446
vt 0.6531 0.0839
vn 1.0000 -0.0000 0.0000
vn -1.0000 0.0000 0.0000
vn 0.0000 -0.5406 0.8413
vn 0.0000 0.7022 -0.7119
vn 0.0000 0.7022 0.7119
vn 0.0000 -1.0000 0.0040
vn 0.0000 -0.8584 -0.5129
vn 0.0000 1.0000 0.0000
usemtl AirlockInterior
s off
f 5/1/1 1/2/1 6/3/1
f 8/4/2 11/5/2 12/6/2
f 7/7/3 6/3/3 4/8/3
f 10/9/4 2/10/4 3/11/4
f 8/4/5 4/8/5 1/2/5
f 12/6/6 5/1/6 6/3/6
f 11/5/7 3/11/7 5/1/7
f 9/12/8 1/2/8 2/10/8
f 4/8/1 6/3/1 1/2/1
f 5/1/1 3/11/1 2/10/1
f 2/10/1 1/2/1 5/1/1
f 11/5/2 8/4/2 9/12/2
f 7/7/2 8/4/2 12/6/2
f 9/12/2 10/9/2 11/5/2
f 7/7/3 12/6/3 6/3/3
f 10/9/4 9/12/4 2/10/4
f 8/4/5 7/7/5 4/8/5
f 12/6/6 11/5/6 5/1/6
f 11/5/7 10/9/7 3/11/7
f 9/12/8 8/4/8 1/2/8
o Cube.013_Cube.012
v 0.104564 2.141483 -1.408191
v 0.104564 0.674900 -1.408191
v 0.104564 0.000000 -0.796500
v 0.104564 2.629778 -0.926559
v 0.104564 2.552066 -0.796500
v 0.084133 2.141483 -1.408191
v 0.084133 0.674900 -1.408191
v 0.084133 2.629778 -0.926559
v 0.084133 0.000000 -0.796500
v 0.084133 2.552066 -0.796500
vt 0.8012 0.9550
vt 0.8012 0.1795
vt 0.6153 0.3845
vt 0.6153 0.3845
vt 0.8012 0.9550
vt 0.6153 0.8302
vt 0.8012 0.1795
vt 0.6153 0.8302
vt 0.7617 0.9786
vt 0.7617 0.9786
vn 1.0000 -0.0000 -0.0000
vn -1.0000 0.0000 0.0000
vn 0.0000 -0.6716 -0.7410
vn 0.0000 0.0000 -1.0000
vn 0.0000 0.8584 0.5129
vn 0.0000 0.7022 -0.7119
vn 0.0000 0.0000 1.0000
usemtl AirlockInterior
s off
f 17/13/9 15/14/9 14/15/9
f 19/16/10 22/17/10 18/18/10
f 21/19/11 14/15/11 15/14/11
f 19/16/12 13/20/12 14/15/12
f 20/21/13 17/13/13 16/22/13
f 18/18/14 16/22/14 13/20/14
f 22/17/15 15/14/15 17/13/15
f 14/15/9 13/20/9 17/13/9
f 16/22/9 17/13/9 13/20/9
f 20/21/10 18/18/10 22/17/10
f 19/16/10 21/19/10 22/17/10
f 21/19/11 19/16/11 14/15/11
f 19/16/12 18/18/12 13/20/12
f 20/21/13 22/17/13 17/13/13
f 18/18/14 20/21/14 16/22/14
f 22/17/15 21/19/15 15/14/15
o Cube.012_Cube.011
v 2.899174 2.141483 -1.408191
v 2.899174 0.674900 -1.408191
v 2.899174 0.000000 -0.796500
v 2.899174 2.629778 -0.926559
v 2.899174 2.552066 -0.796500
v 2.919174 2.141483 -1.408191
v 2.919174 0.674900 -1.408191
v 2.919174 2.629778 -0.926559
v 2.919174 0.000000 -0.796500
v 2.919174 2.552066 -0.796500
vt 0.6153 0.3845
vt 0.8012 0.9550
vt 0.6153 0.8302
vt 0.8012 0.9550
vt 0.8012 0.1795
vt 0.6153 0.3845
vt 0.8012 0.1795
vt 0.6153 0.8302
vt 0.7617 0.9786
vt 0.7617 0.9786
vn -1.0000 0.0000 0.0000
vn 1.0000 0.0000 0.0000
vn 0.0000 0.0000 1.0000
vn 0.0000 -0.6716 -0.7409
vn 0.0000 0.0000 -1.0000
vn 0.0000 0.8584 0.5129
vn 0.0000 0.7022 -0.7119
vn 0.0000 -0.6716 -0.7410
vn 0.0000 0.7022 -0.7120
usemtl AirlockInterior
s off
f 24/23/16 27/24/16 23/25/16
f 32/26/17 31/27/17 29/28/17
f 31/27/18 27/24/18 25/29/18
f 29/28/19 25/29/19 24/23/19
f 28/30/20 24/23/20 23/25/20
f 32/26/21 26/31/21 27/24/21
f 30/32/22 23/25/22 26/31/22
f 26/31/16 23/25/16 27/24/16
f 24/23/16 25/29/16 27/24/16
f 29/28/17 28/30/17 32/26/17
f 30/32/17 32/26/17 28/30/17
f 31/27/18 32/26/18 27/24/18
f 29/28/23 31/27/23 25/29/23
f 28/30/20 29/28/20 24/23/20
f 32/26/21 30/32/21 26/31/21
f 30/32/24 28/30/24 23/25/24
o Cube.011_Cube.010
v 2.899174 2.816383 0.742500
v 2.899174 2.816383 -0.742500
v 2.899174 2.629778 -0.926559
v 2.899174 2.681489 0.875554
v 2.899174 2.552066 -0.796500
v 2.899174 2.558463 0.796500
v 2.899174 2.681489 0.875554
v 2.899174 2.816383 0.742500
v 2.899174 2.816383 -0.742500
v 2.899174 2.629778 -0.926559
v 2.899174 2.552066 -0.796500
v 2.899174 2.558463 0.796500
v 2.899174 2.681489 0.875554
v 2.899174 2.816383 0.742500
v 2.899174 2.816383 -0.742500
v 2.899174 2.629778 -0.926559
v 2.899174 2.552066 -0.796500
v 2.899174 2.558463 0.796500
v 2.919174 2.681489 0.875554
v 2.919174 2.816383 0.742500
v 2.919174 2.816383 -0.742500
v 2.919174 2.629778 -0.926559
v 2.919174 2.552066 -0.796500
v 2.919174 2.558463 0.796500
vt 0.9660 0.0839
vt 0.6418 0.0282
vt 0.9774 0.0296
vt 0.9940 0.0555
vt 0.9660 0.0839
vt 0.9660 0.0839
vt 0.9940 0.0555
vt 0.6531 0.0839
vt 0.6144 0.0446
vt 0.6144 0.0446
vt 0.9774 0.0296
vt 0.6418 0.0282
vt 0.6531 0.0839
vt 0.9774 0.0296
vt 0.9940 0.0555
vt 0.9774 0.0296
vt 0.6418 0.0282
vt 0.6531 0.0839
vt 0.6144 0.0446
vt 0.6418 0.0282
vt 0.9660 0.0839
vt 0.6531 0.0839
vt 0.9940 0.0555
vt 0.6144 0.0446
vn -1.0000 0.0000 0.0000
vn 0.0000 0.0000 1.0000
vn 0.0000 -0.5406 0.8413
vn 1.0000 -0.0000 0.0000
vn 0.0000 0.7022 -0.7119
vn 0.0000 0.7022 0.7120
vn 0.0000 -1.0000 0.0040
vn 0.0000 -0.8584 -0.5129
vn 0.0000 1.0000 0.0000
vn 0.0000 0.7022 0.7119
usemtl AirlockInterior
s off
f 33/33/25 37/34/25 38/35/25
f 39/36/26 46/37/26 40/38/26
f 38/35/26 39/36/26 36/39/26
f 34/40/26 42/41/26 35/42/26
f 36/39/26 40/38/26 33/33/26
f 37/34/26 44/43/26 38/35/26
f 35/42/26 43/44/26 37/34/26
f 33/33/26 41/45/26 34/40/26
f 56/46/27 45/47/27 50/48/27
f 43/44/26 50/48/26 44/43/26
f 42/41/26 49/49/26 43/44/26
f 40/38/26 47/50/26 41/45/26
f 44/43/26 45/47/26 39/36/26
f 41/45/26 48/51/26 42/41/26
f 55/52/28 52/53/28 56/46/28
f 53/54/29 48/51/29 47/50/29
f 51/55/30 46/37/30 45/47/30
f 55/52/31 50/48/31 49/49/31
f 54/56/32 49/49/32 48/51/32
f 52/53/33 47/50/33 46/37/33
f 37/34/25 33/33/25 34/40/25
f 36/39/25 33/33/25 38/35/25
f 34/40/25 35/42/25 37/34/25
f 39/36/26 45/47/26 46/37/26
f 38/35/26 44/43/26 39/36/26
f 34/40/26 41/45/26 42/41/26
f 36/39/26 39/36/26 40/38/26
f 37/34/26 43/44/26 44/43/26
f 35/42/26 42/41/26 43/44/26
f 33/33/26 40/38/26 41/45/26
f 56/46/27 51/55/27 45/47/27
f 43/44/26 49/49/26 50/48/26
f 42/41/26 48/51/26 49/49/26
f 40/38/26 46/37/26 47/50/26
f 44/43/26 50/48/26 45/47/26
f 41/45/26 47/50/26 48/51/26
f 51/55/28 56/46/28 52/53/28
f 55/52/28 54/56/28 53/54/28
f 53/54/28 52/53/28 55/52/28
f 53/54/29 54/56/29 48/51/29
f 51/55/34 52/53/34 46/37/34
f 55/52/31 56/46/31 50/48/31
f 54/56/32 55/52/32 49/49/32
f 52/53/33 53/54/33 47/50/33
o Cube.010_Cube.009
v 2.899174 0.674900 1.408191
v 2.899174 2.141484 1.408191
v 2.899174 2.681489 0.875554
v 2.899174 0.000000 0.796500
v 2.899174 2.558463 0.796500
v 2.919174 0.000000 0.796500
v 2.919174 0.674900 1.408191
v 2.919174 2.141484 1.408191
v 2.919174 2.681489 0.875554
v 2.919174 2.558463 0.796500
vt 0.9930 0.8283
vt 0.8361 0.9874
vt 0.8128 0.9511
vt 0.8128 0.9511
vt 0.9930 0.8283
vt 0.9930 0.3962
vt 0.8128 0.1974
vt 0.9930 0.3962
vt 0.8128 0.1974
vt 0.8361 0.9874
vn -1.0000 0.0000 0.0000
vn 1.0000 0.0000 0.0000
vn 0.0000 -0.6716 0.7410
vn 0.0000 0.5406 -0.8413
vn 0.0000 0.0000 1.0000
vn 0.0000 0.0000 -1.0000
vn 0.0000 0.7022 0.7119
vn 0.0000 -0.6716 0.7409
vn 0.0000 0.7022 0.7120
usemtl AirlockInterior
s off
f 58/57/35 59/58/35 61/59/35
f 66/60/36 64/61/36 63/62/36
f 62/63/37 57/64/37 60/65/37
f 65/66/38 61/59/38 59/58/38
f 63/62/39 58/57/39 57/64/39
f 66/60/40 60/65/40 61/59/40
f 64/61/41 59/58/41 58/57/41
f 61/59/35 60/65/35 57/64/35
f 57/64/35 58/57/35 61/59/35
f 63/62/36 62/63/36 66/60/36
f 66/60/36 65/66/36 64/61/36
f 62/63/42 63/62/42 57/64/42
f 65/66/38 66/60/38 61/59/38
f 63/62/39 64/61/39 58/57/39
f 66/60/40 62/63/40 60/65/40
f 64/61/43 65/66/43 59/58/43
o Cube.009_Cube.008
v 0.104564 0.674900 1.408191
v 0.104564 2.141484 1.408191
v 0.104564 2.681489 0.875554
v 0.104564 0.000000 0.796500
v 0.104564 2.558463 0.796500
v 0.084133 0.000000 0.796500
v 0.084133 0.674900 1.408191
v 0.084133 2.141484 1.408191
v 0.084133 2.681489 0.875554
v 0.084133 2.558463 0.796500
vt 0.8128 0.9511
vt 0.9930 0.8283
vt 0.9930 0.3962
vt 0.9930 0.8283
vt 0.8361 0.9874
vt 0.8128 0.9511
vt 0.8361 0.9874
vt 0.9930 0.3962
vt 0.8128 0.1974
vt 0.8128 0.1974
vn 1.0000 -0.0000 0.0000
vn -1.0000 0.0000 -0.0000
vn 0.0000 0.7022 0.7119
vn 0.0000 -0.6716 0.7410
vn 0.0000 0.5406 -0.8413
vn 0.0000 0.0000 1.0000
vn 0.0000 0.0000 -1.0000
usemtl AirlockInterior
s off
f 71/67/44 68/68/44 67/69/44
f 74/70/45 75/71/45 76/72/45
f 75/71/46 68/68/46 69/73/46
f 73/74/47 70/75/47 67/69/47
f 76/72/48 69/73/48 71/67/48
f 74/70/49 67/69/49 68/68/49
f 72/76/50 71/67/50 70/75/50
f 67/69/44 70/75/44 71/67/44
f 71/67/44 69/73/44 68/68/44
f 76/72/45 72/76/45 73/74/45
f 73/74/45 74/70/45 76/72/45
f 75/71/46 74/70/46 68/68/46
f 73/74/47 72/76/47 70/75/47
f 76/72/48 75/71/48 69/73/48
f 74/70/49 73/74/49 67/69/49
f 72/76/50 76/72/50 71/67/50
o Cube.008_Cube.007
v 0.084133 2.141483 -1.408191
v 2.919174 2.141483 -1.408191
v 0.084133 0.674900 -1.408191
v 2.919174 0.674899 -1.408191
v 0.084133 2.141483 -1.508191
v 0.084133 0.674900 -1.508191
v 2.919174 0.674899 -1.508191
v 2.919174 2.141483 -1.508191
vt 0.0159 0.5039
vt 0.6020 0.8071
vt 0.0159 0.8071
vt 0.6020 0.8071
vt 0.0159 0.5039
vt 0.0159 0.8071
vt 0.6020 0.5039
vt 0.6020 0.5039
vn 0.0000 0.0000 1.0000
vn 0.0000 0.0000 -1.0000
vn -0.0000 -1.0000 0.0000
vn 1.0000 0.0000 0.0000
vn 0.0000 1.0000 0.0000
vn -1.0000 0.0000 0.0000
usemtl AirlockInterior
s off
f 79/77/51 78/78/51 77/79/51
f 84/80/52 82/81/52 81/82/52
f 82/81/53 80/83/53 79/77/53
f 83/84/54 78/78/54 80/83/54
f 84/80/55 77/79/55 78/78/55
f 81/82/56 79/77/56 77/79/56
f 79/77/51 80/83/51 78/78/51
f 84/80/52 83/84/52 82/81/52
f 82/81/53 83/84/53 80/83/53
f 83/84/54 84/80/54 78/78/54
f 84/80/55 81/82/55 77/79/55
f 81/82/56 82/81/56 79/77/56
o Cube.007_Cube.006
v 0.084133 0.674900 -1.408191
v 2.919174 0.674899 -1.408191
v 0.084133 0.000000 -0.796500
v 2.919174 0.000000 -0.796500
v 2.919174 0.607744 -1.482286
v 0.084133 0.607744 -1.482286
v 0.084133 -0.067156 -0.870595
v 2.919174 -0.067156 -0.870595
vt 0.0159 0.8071
vt 0.6020 0.9954
vt 0.0159 0.9954
vt 0.6020 0.9954
vt 0.0159 0.8071
vt 0.0159 0.9954
vt 0.6020 0.8071
vt 0.6020 0.8071
vn 0.0000 0.6716 0.7410
vn -0.0000 -0.6716 -0.7410
vn -0.0000 -0.7410 0.6716
vn -1.0000 0.0000 0.0000
vn 1.0000 0.0000 0.0000
vn 0.0000 0.7410 -0.6716
usemtl AirlockInterior
s off
f 87/85/57 86/86/57 85/87/57
f 89/88/58 91/89/58 90/90/58
f 91/89/59 88/91/59 87/85/59
f 90/90/60 87/85/60 85/87/60
f 92/92/61 86/86/61 88/91/61
f 89/88/62 85/87/62 86/86/62
f 87/85/57 88/91/57 86/86/57
f 89/88/58 92/92/58 91/89/58
f 91/89/59 92/92/59 88/91/59
f 90/90/60 91/89/60 87/85/60
f 92/92/61 89/88/61 86/86/61
f 89/88/62 90/90/62 85/87/62
o Cube.006_Cube.005
v 0.084133 0.000000 0.796500
v 2.919174 0.000000 0.796500
v 0.084133 0.674900 1.408191
v 2.919174 0.674900 1.408191
v 2.919174 -0.067156 0.870595
v 0.084133 -0.067156 0.870595
v 0.084133 0.607744 1.482287
v 2.919174 0.607744 1.482287
vt 0.0159 0.8071
vt 0.6020 0.9954
vt 0.0159 0.9954
vt 0.6020 0.9954
vt 0.0159 0.8071
vt 0.0159 0.9954
vt 0.6020 0.8071
vt 0.6020 0.8071
vn 0.0000 0.6716 -0.7410
vn -0.0000 -0.6716 0.7410
vn -0.0000 0.7410 0.6716
vn -1.0000 -0.0000 0.0000
vn 1.0000 -0.0000 0.0000
vn -0.0000 -0.7410 -0.6716
usemtl AirlockInterior
s off
f 95/93/63 94/94/63 93/95/63
f 97/96/64 99/97/64 98/98/64
f 99/97/65 96/99/65 95/93/65
f 93/95/66 99/97/66 95/93/66
f 100/100/67 94/94/67 96/99/67
f 97/96/68 93/95/68 94/94/68
f 95/93/63 96/99/63 94/94/63
f 97/96/64 100/100/64 99/97/64
f 99/97/65 100/100/65 96/99/65
f 93/95/66 98/98/66 99/97/66
f 100/100/67 97/96/67 94/94/67
f 97/96/68 98/98/68 93/95/68
o Cube.005_Cube.004
v 0.084133 0.674900 1.408191
v 2.919174 0.674900 1.408191
v 0.084133 2.141484 1.408191
v 2.919174 2.141484 1.408191
v 2.919174 0.674900 1.508191
v 0.084133 0.674900 1.508191
v 0.084133 2.141484 1.508191
v 2.919174 2.141484 1.508191
vt 0.0159 0.5039
vt 0.6020 0.8071
vt 0.0159 0.8071
vt 0.6020 0.8071
vt 0.0159 0.5039
vt 0.0159 0.8071
vt 0.6020 0.5039
vt 0.6020 0.5039
vn -0.0000 -0.0000 -1.0000
vn 0.0000 0.0000 1.0000
vn -1.0000 -0.0000 0.0000
vn 1.0000 0.0000 0.0000
vn -0.0000 -1.0000 0.0000
vn 0.0000 1.0000 0.0000
usemtl AirlockInterior
s off
f 103/101/69 102/102/69 101/103/69
f 105/104/70 107/105/70 106/106/70
f 106/106/71 103/101/71 101/103/71
f 108/107/72 102/102/72 104/108/72
f 105/104/73 101/103/73 102/102/73
f 107/105/74 104/108/74 103/101/74
f 103/101/69 104/108/69 102/102/69
f 105/104/70 108/107/70 107/105/70
f 106/106/71 107/105/71 103/101/71
f 108/107/72 105/104/72 102/102/72
f 105/104/73 106/106/73 101/103/73
f 107/105/74 108/107/74 104/108/74
o Cube.004_Cube.003
v 0.084133 2.141484 1.408191
v 2.919174 2.141484 1.408191
v 0.084133 2.816383 0.742500
v 2.919174 2.816382 0.742500
v 2.919174 2.211707 1.479386
v 0.084133 2.211707 1.479386
v 0.084133 2.886606 0.813695
v 2.919174 2.886606 0.813695
vt 0.0159 0.3080
vt 0.6020 0.5039
vt 0.0159 0.5039
vt 0.0159 0.5039
vt 0.6020 0.3080
vt 0.0159 0.3080
vt 0.6020 0.3080
vt 0.6020 0.5039
vn 0.0000 -0.7022 -0.7119
vn 0.0000 0.7022 0.7119
vn 1.0000 -0.0000 0.0000
vn 0.0000 -0.7119 0.7022
vn 0.0000 0.7119 -0.7022
vn -1.0000 0.0000 -0.0000
vn 0.0000 0.7120 -0.7022
usemtl AirlockInterior
s off
f 111/109/75 110/110/75 109/111/75
f 114/112/76 116/113/76 115/114/76
f 112/115/77 113/116/77 110/110/77
f 113/116/78 109/111/78 110/110/78
f 115/114/79 112/115/79 111/109/79
f 114/112/80 111/109/80 109/111/80
f 111/109/75 112/115/75 110/110/75
f 114/112/76 113/116/76 116/113/76
f 112/115/77 116/113/77 113/116/77
f 113/116/78 114/112/78 109/111/78
f 115/114/81 116/113/81 112/115/81
f 114/112/80 115/114/80 111/109/80
o Cube.003_Cube.002
v 0.084133 2.141483 -1.408191
v 2.919174 2.141483 -1.408191
v 0.084133 2.816383 -0.742500
v 2.919174 2.816383 -0.742500
v 0.084133 2.211707 -1.479386
v 2.919174 2.211707 -1.479386
v 2.919174 2.886606 -0.813694
v 0.084133 2.886606 -0.813694
vt 0.0159 0.3080
vt 0.6020 0.5039
vt 0.0159 0.5039
vt 0.6020 0.5039
vt 0.0159 0.3080
vt 0.0159 0.5039
vt 0.6020 0.3080
vt 0.6020 0.3080
vn -0.0000 -0.7022 0.7119
vn 0.0000 0.7022 -0.7119
vn -1.0000 0.0000 0.0000
vn 0.0000 -0.7119 -0.7022
vn 1.0000 -0.0000 0.0000
vn 0.0000 0.7119 0.7022
usemtl AirlockInterior
s off
f 117/117/82 120/118/82 119/119/82
f 123/120/83 121/121/83 124/122/83
f 119/119/84 121/121/84 117/117/84
f 121/121/85 118/123/85 117/117/85
f 118/123/86 123/120/86 120/118/86
f 123/120/87 119/119/87 120/118/87
f 117/117/82 118/123/82 120/118/82
f 123/120/83 122/124/83 121/121/83
f 119/119/84 124/122/84 121/121/84
f 121/121/85 122/124/85 118/123/85
f 118/123/86 122/124/86 123/120/86
f 123/120/87 124/122/87 119/119/87
o Cube.002_Cube.001
v 0.084133 2.816383 0.742500
v 2.919174 2.816382 0.742500
v 0.084133 2.816383 -0.742500
v 2.919174 2.816383 -0.742500
v 2.919174 2.916382 0.742500
v 0.084133 2.916383 0.742500
v 0.084133 2.916383 -0.742500
v 2.919174 2.916383 -0.742500
vt 0.0159 0.0010
vt 0.6020 0.3080
vt 0.0159 0.3080
vt 0.6020 0.3080
vt 0.0159 0.0010
vt 0.0159 0.3080
vt 0.6020 0.0010
vt 0.6020 0.0010
vn -0.0000 -1.0000 -0.0000
vn 0.0000 1.0000 0.0000
vn 1.0000 0.0000 0.0000
vn 0.0000 0.0000 1.0000
vn -0.0000 0.0000 -1.0000
vn -1.0000 0.0000 0.0000
usemtl AirlockInterior
s off
f 127/125/88 126/126/88 125/127/88
f 129/128/89 131/129/89 130/130/89
f 132/131/90 126/126/90 128/132/90
f 129/128/91 125/127/91 126/126/91
f 131/129/92 128/132/92 127/125/92
f 130/130/93 127/125/93 125/127/93
f 127/125/88 128/132/88 126/126/88
f 129/128/89 132/131/89 131/129/89
f 132/131/90 129/128/90 126/126/90
f 129/128/91 130/130/91 125/127/91
f 131/129/92 132/131/92 128/132/92
f 130/130/93 131/129/93 127/125/93
o Cube.001_Cube.000
v 0.000000 -0.200000 0.796500
v 0.000000 0.000000 0.796500
v 0.000000 -0.200000 -0.796500
v 0.000000 0.000000 -0.796500
v 3.000000 -0.200000 0.796500
v 3.000000 0.000000 0.796500
v 3.000000 -0.200000 -0.796500
v 3.000000 0.000000 -0.796500
vt -0.0069 -0.0114
vt -0.0069 -0.0114
vt -0.0069 -0.0114
vt -0.0069 -0.0114
vt -0.0069 -0.0114
vt -0.0069 -0.0114
vt -0.0069 -0.0114
vt -0.0069 -0.0114
vt 0.9999 0.0001
vt 0.0001 0.5310
vt 0.0001 0.0001
vt 0.0001 0.5310
vt 0.9999 0.0001
vt 0.9999 0.5310
vt 0.9999 0.5310
vt 0.0001 0.0001
vn -1.0000 0.0000 0.0000
vn 0.0000 0.0000 -1.0000
vn 1.0000 0.0000 0.0000
vn 0.0000 0.0000 1.0000
vn 0.0000 -1.0000 0.0000
vn 0.0000 1.0000 0.0000
usemtl AirlockFloor
s off
f 134/133/94 135/134/94 133/135/94
f 136/136/95 139/137/95 135/134/95
f 140/138/96 137/139/96 139/137/96
f 138/140/97 133/135/97 137/139/97
f 139/141/98 133/142/98 135/143/98
f 136/144/99 138/145/99 140/146/99
f 134/133/94 136/136/94 135/134/94
f 136/136/95 140/138/95 139/137/95
f 140/138/96 138/140/96 137/139/96
f 138/140/97 134/133/97 133/135/97
f 139/141/98 137/147/98 133/142/98
f 136/144/99 134/148/99 138/145/99
