{
    "accessors": {
        "accessor_0": {
            "bufferView": "bufferView_0",
            "byteOffset": 0,
            "byteStride": 0,
            "componentType": 5126,
            "count": 80,
            "max": [
                0.08920899778604507,
                0.08920899778604507,
                0.01861800067126751
            ],
            "min": [
                -0.08920899778604507,
                -0.08920899778604507,
                9.999999974752427e-7
            ],
            "type": "VEC3"
        },
        "accessor_1": {
            "bufferView": "bufferView_0",
            "byteOffset": 960,
            "byteStride": 0,
            "componentType": 5126,
            "count": 80,
            "max": [
                0.7458000183105469,
                0.7458000183105469,
                1
            ],
            "min": [
                -0.7458000183105469,
                -0.7458000183105469,
                -1
            ],
            "type": "VEC3"
        },
        "accessor_2": {
            "bufferView": "bufferView_0",
            "byteOffset": 1920,
            "byteStride": 0,
            "componentType": 5126,
            "count": 80,
            "max": [
                0.9998999834060669,
                0.9998999834060669
            ],
            "min": [
                0.00009999999747378752,
                0.00009999999747378752
            ],
            "type": "VEC2"
        },
        "accessor_3": {
            "bufferView": "bufferView_1",
            "byteOffset": 0,
            "byteStride": 0,
            "componentType": 5123,
            "count": 180,
            "max": [
                79
            ],
            "min": [
                0
            ],
            "type": "SCALAR"
        },
        "accessor_4": {
            "bufferView": "bufferView_0",
            "byteOffset": 2560,
            "byteStride": 0,
            "componentType": 5126,
            "count": 17,
            "max": [
                0.08157200366258621,
                0.0850439965724945,
                0.064860999584198
            ],
            "min": [
                -0.08157200366258621,
                -0.0850439965724945,
                0.014860999770462513
            ],
            "type": "VEC3"
        },
        "accessor_5": {
            "bufferView": "bufferView_0",
            "byteOffset": 2764,
            "byteStride": 0,
            "componentType": 5126,
            "count": 17,
            "max": [
                0.6837000250816345,
                0.7189000248908997,
                1
            ],
            "min": [
                -0.6836000084877014,
                -0.718999981880188,
                0.5874999761581421
            ],
            "type": "VEC3"
        },
        "accessor_6": {
            "bufferView": "bufferView_0",
            "byteOffset": 2968,
            "byteStride": 0,
            "componentType": 5126,
            "count": 17,
            "max": [
                0.75,
                0.7590000033378601
            ],
            "min": [
                0.25,
                0.27720001339912415
            ],
            "type": "VEC2"
        },
        "accessor_7": {
            "bufferView": "bufferView_1",
            "byteOffset": 360,
            "byteStride": 0,
            "componentType": 5123,
            "count": 66,
            "max": [
                16
            ],
            "min": [
                0
            ],
            "type": "SCALAR"
        }
    },
    "animations": {},
    "asset": {
        "generator": "obj2gltf",
        "premultipliedAlpha": true,
        "profile": {
            "api": "WebGL",
            "version": "1.0"
        },
        "version": "1.0"
    },
    "bufferViews": {
        "bufferView_0": {
            "buffer": "buffer",
            "byteLength": 3104,
            "byteOffset": 0,
            "target": 34962
        },
        "bufferView_1": {
            "buffer": "buffer",
            "byteLength": 492,
            "byteOffset": 3104,
            "target": 34963
        }
    },
    "buffers": {
        "buffer": {
            "byteLength": 3596,
            "type": "arraybuffer",
            "uri": "data:application/octet-stream;base64,"
        }
    },
    "cameras": {},
    "extensionsUsed": [],
    "images": {
        "image_Sensor_Base_Color.png": {
            "uri": "Sensor_Base_Color.png"
        },
        "image_Sensor_Height.png": {
            "uri": "Sensor_Height.png"
        },
        "image_Sensor_Metallic.png": {
            "uri": "Sensor_Metallic.png"
        },
        "image_Sensor_Roughness.png": {
            "uri": "Sensor_Roughness.png"
        }
    },
    "materials": {
        "Sensor": {
            "values": {
                "ambient": [
                    1,
                    1,
                    1,
                    1
                ],
                "baseColor": "texture_Sensor_Base_Color.png",
                "diffuse": [
                    0.64,
                    0.64,
                    0.64,
                    1
                ],
                "emission": [
                    0,
                    0,
                    0,
                    1
                ],
                "height": "texture_Sensor_Height.png",
                "metallic": "texture_Sensor_Metallic.png",
                "roughness": "texture_Sensor_Roughness.png",
                "shininess": 96.078431,
                "specular": [
                    0.5,
                    0.5,
                    0.5,
                    1
                ],
                "transparency": 1
            }
        }
    },
    "meshes": {
        "Cylinder-Mesh": {
            "name": "Cylinder-Mesh",
            "primitives": [
                {
                    "attributes": {
                        "NORMAL": "accessor_1",
                        "POSITION": "accessor_0",
                        "TEXCOORD_0": "accessor_2"
                    },
                    "indices": "accessor_3",
                    "material": "Sensor",
                    "mode": 4
                }
            ]
        },
        "Icosphere-Mesh": {
            "name": "Icosphere-Mesh",
            "primitives": [
                {
                    "attributes": {
                        "NORMAL": "accessor_5",
                        "POSITION": "accessor_4",
                        "TEXCOORD_0": "accessor_6"
                    },
                    "indices": "accessor_7",
                    "material": "Sensor",
                    "mode": 4
                }
            ]
        }
    },
    "nodes": {
        "Cylinder": {
            "children": [],
            "matrix": [
                1,
                0,
                0,
                0,
                0,
                1,
                0,
                0,
                0,
                0,
                1,
                0,
                0,
                0,
                0,
                1
            ],
            "meshes": [
                "Cylinder-Mesh"
            ],
            "name": "Cylinder"
        },
        "Icosphere": {
            "children": [],
            "matrix": [
                1,
                0,
                0,
                0,
                0,
                1,
                0,
                0,
                0,
                0,
                1,
                0,
                0,
                0,
                0,
                1
            ],
            "meshes": [
                "Icosphere-Mesh"
            ],
            "name": "Icosphere"
        }
    },
    "samplers": {
        "sampler_0": {}
    },
    "scene": "scene",
    "scenes": {
        "scene": {
            "nodes": [
                "Cylinder",
                "Icosphere"
            ]
        }
    },
    "skins": {},
    "textures": {
        "texture_Sensor_Base_Color.png": {
            "format": 6407,
            "internalFormat": 6407,
            "sampler": "sampler_0",
            "source": "image_Sensor_Base_Color.png",
            "target": 3553,
            "type": 5121
        },
        "texture_Sensor_Height.png": {
            "format": 6403,
            "internalFormat": 33321,
            "sampler": "sampler_0",
            "source": "image_Sensor_Height.png",
            "target": 3553,
            "type": 5121
        },
        "texture_Sensor_Metallic.png": {
            "format": 6403,
            "internalFormat": 33321,
            "sampler": "sampler_0",
            "source": "image_Sensor_Metallic.png",
            "target": 3553,
            "type": 5121
        },
        "texture_Sensor_Roughness.png": {
            "format": 6403,
            "internalFormat": 33321,
            "sampler": "sampler_0",
            "source": "image_Sensor_Roughness.png",
            "target": 3553,
            "type": 5121
        }
    }
}