<?xml version="1.0" standalone="no"?>
<!DOCTYPE svg PUBLIC "-//W3C//DTD SVG 20010904//EN"
 "http://www.w3.org/TR/2001/REC-SVG-20010904/DTD/svg10.dtd">
<svg version="1.0" xmlns="http://www.w3.org/2000/svg"
 width="1413.000000pt" height="352.000000pt" viewBox="0 0 1413.000000 352.000000"
 preserveAspectRatio="xMidYMid meet">
<metadata>
Created by potrace 1.14, written by Peter Selinger 2001-2017
</metadata>
<g transform="translate(0.000000,352.000000) scale(0.100000,-0.100000)"
fill="#000000" stroke="none">
<path d="M1076 3088 c-13 -13 -60 -90 -104 -173 -44 -82 -108 -202 -142 -265
-34 -63 -87 -162 -118 -220 -30 -58 -69 -130 -87 -160 -106 -184 -110 -254
-17 -280 23 -6 224 -10 537 -10 313 0 514 4 537 10 43 12 68 42 68 83 0 27
-45 119 -162 332 -65 118 -172 313 -203 370 -131 241 -170 308 -188 320 -32
23 -92 19 -121 -7z m134 -367 c0 -72 -7 -183 -15 -248 -24 -183 -24 -183 -50
-183 -21 0 -24 7 -34 68 -22 139 -31 240 -31 364 l0 128 65 0 65 0 0 -129z m1
-500 c38 -38 38 -74 0 -112 -38 -38 -74 -38 -112 0 -17 18 -29 40 -29 56 0 16
12 38 29 56 18 17 40 29 56 29 16 0 38 -12 56 -29z"/>
<path d="M12440 2575 l0 -495 -29 0 c-28 0 -31 6 -121 225 -52 124 -97 228
-100 230 -13 8 -91 -28 -86 -39 115 -272 186 -453 182 -463 -3 -7 -11 -13 -18
-13 -7 0 -175 162 -373 360 l-359 360 -33 -32 -33 -32 362 -363 362 -362 -23
-25 -24 -25 -37 19 c-20 10 -77 35 -126 56 -49 20 -116 49 -149 64 -82 38
-136 60 -147 60 -5 0 -18 -19 -28 -42 -15 -34 -16 -46 -7 -55 11 -11 58 -32
335 -148 87 -36 112 -51 112 -66 0 -19 -102 -19 -5845 -19 l-5845 0 0 -90 0
-90 5845 0 c4009 0 5845 -3 5845 -10 0 -6 -8 -13 -17 -16 -10 -3 -40 -15 -68
-26 -107 -44 -232 -96 -265 -111 -19 -8 -54 -23 -77 -33 -24 -9 -43 -18 -43
-20 0 -8 40 -94 44 -94 6 0 436 179 458 191 13 7 20 4 27 -9 8 -16 -43 -71
-349 -377 l-360 -359 32 -33 32 -33 361 360 c356 355 361 361 379 341 18 -20
17 -22 -14 -88 -18 -37 -63 -142 -101 -233 l-68 -165 47 -22 c26 -12 50 -19
53 -15 4 4 48 108 99 232 51 124 93 226 94 227 1 1 19 0 39 -4 l37 -6 0 -503
0 -504 45 0 45 0 2 502 3 503 34 0 34 0 93 -223 c51 -123 94 -226 97 -228 3
-4 77 23 85 31 2 2 -40 108 -93 236 -56 137 -91 235 -85 237 6 2 24 15 39 28
16 13 33 24 37 24 5 0 171 -162 369 -360 l359 -360 33 32 33 32 -365 366
c-201 201 -365 370 -365 376 0 32 24 31 108 -6 155 -69 389 -156 397 -148 1 1
10 20 18 40 17 40 12 50 -33 63 -14 4 -92 36 -175 70 -278 116 -273 113 -259
149 5 14 60 16 510 16 l504 0 0 45 0 45 -510 0 -510 0 0 30 c0 20 6 33 18 37
41 13 418 176 426 183 11 10 2 48 -18 75 -14 19 -18 18 -163 -44 -81 -36 -184
-82 -227 -103 l-80 -39 -22 28 c-13 15 -23 33 -24 38 0 6 160 170 355 365
l355 354 -32 33 -32 33 -362 -361 c-338 -338 -363 -360 -383 -349 -13 6 -20
17 -18 23 129 308 187 453 183 463 -3 7 -24 18 -46 25 -35 11 -43 10 -50 -2
-5 -8 -51 -114 -101 -237 -81 -196 -95 -223 -113 -220 -21 3 -21 5 -24 496
l-2 492 -45 0 -45 0 0 -495z"/>
<path d="M2309 2957 c-168 -63 -262 -238 -200 -372 26 -57 55 -80 157 -125
113 -50 134 -69 134 -124 0 -101 -110 -168 -199 -121 -31 15 -41 33 -41 71 0
24 -1 24 -90 24 l-90 0 0 -31 c0 -90 47 -171 123 -212 59 -31 192 -31 260 0
161 74 255 279 188 410 -26 51 -61 76 -170 124 -104 45 -129 72 -115 126 6 25
20 45 43 60 62 42 125 22 137 -43 l6 -35 82 3 81 3 0 65 c0 78 -22 116 -91
156 -55 32 -158 42 -215 21z"/>
<path d="M7708 2955 c-189 -48 -359 -203 -419 -383 -32 -93 -31 -214 1 -297
32 -83 122 -173 205 -205 183 -69 391 -16 547 140 122 121 175 253 166 410 -8
143 -87 259 -215 317 -70 32 -198 40 -285 18z m173 -160 c64 -23 104 -59 135
-120 23 -49 26 -64 22 -128 -9 -136 -85 -249 -206 -309 -128 -63 -274 -39
-349 60 -83 109 -57 279 62 397 97 98 229 137 336 100z"/>
<path d="M9168 2955 c-189 -48 -359 -203 -419 -383 -32 -93 -31 -214 1 -297
32 -83 122 -173 205 -205 183 -69 391 -16 547 140 122 121 175 253 166 410 -8
143 -87 259 -215 317 -70 32 -198 40 -285 18z m173 -160 c64 -23 104 -59 135
-120 23 -49 26 -64 22 -128 -9 -136 -85 -249 -206 -309 -128 -63 -274 -39
-349 60 -83 109 -57 279 62 397 97 98 229 137 336 100z"/>
<path d="M10919 2957 c-168 -63 -262 -238 -200 -372 26 -57 55 -80 157 -125
113 -50 134 -69 134 -124 0 -101 -110 -168 -199 -121 -31 15 -41 33 -41 71 0
24 -1 24 -90 24 l-90 0 0 -31 c0 -90 47 -171 123 -212 59 -31 192 -31 260 0
161 74 255 279 188 410 -26 51 -61 76 -170 124 -104 45 -129 72 -115 126 6 25
20 45 43 60 62 42 125 22 137 -43 l6 -35 82 3 81 3 0 65 c0 78 -22 116 -91
156 -55 32 -158 42 -215 21z"/>
<path d="M2712 2880 c-7 -39 -12 -75 -12 -80 0 -6 35 -10 81 -10 l81 0 -6 -27
c-24 -118 -126 -674 -126 -687 0 -13 13 -16 79 -16 67 0 80 3 85 18 3 9 33
166 66 347 34 182 64 338 66 348 5 14 18 17 89 17 l83 0 12 73 c7 39 14 75 17
80 2 4 -110 7 -249 7 l-254 0 -12 -70z"/>
<path d="M3306 2923 c-18 -89 -156 -838 -156 -849 0 -19 159 -20 164 -1 3 6
17 82 33 167 l29 155 84 -167 85 -168 103 0 104 0 -45 83 c-25 45 -66 118 -90
162 -44 78 -44 80 -23 88 175 70 249 154 263 301 10 111 -27 183 -116 225 -53
24 -66 26 -243 29 l-186 4 -6 -29z m306 -143 c44 -13 66 -32 74 -66 17 -67
-34 -151 -104 -172 -22 -7 -72 -12 -111 -12 -69 0 -71 1 -67 23 3 12 12 60 21
107 9 47 18 95 21 108 4 20 10 22 67 22 34 0 79 -5 99 -10z"/>
<path d="M4296 2928 c-8 -13 -104 -171 -214 -353 -109 -181 -224 -372 -255
-422 l-57 -93 93 0 93 0 69 115 70 114 160 1 160 0 25 -112 25 -113 93 -3 c50
-1 92 -1 92 1 0 1 -47 201 -104 442 l-103 440 -66 3 c-60 3 -67 1 -81 -20z
m60 -353 l20 -125 -94 0 -94 0 58 108 c68 126 77 142 84 142 3 0 15 -56 26
-125z"/>
<path d="M4826 2673 l96 -278 -27 -150 c-14 -82 -29 -158 -31 -167 -5 -16 3
-18 79 -18 l85 0 31 165 32 166 194 274 c107 151 195 276 195 279 0 4 -39 6
-87 6 l-88 -1 -133 -200 c-73 -111 -136 -199 -138 -196 -3 3 -31 92 -63 198
l-57 194 -92 3 -91 3 95 -278z"/>
<path d="M5896 2923 c-19 -93 -156 -838 -156 -850 0 -11 17 -13 82 -11 l82 3
30 168 31 167 82 0 c45 0 105 5 133 11 111 24 205 124 236 252 24 97 8 166
-51 223 -54 53 -109 64 -311 64 l-152 0 -6 -27z m304 -146 c43 -15 62 -50 54
-97 -13 -79 -59 -109 -176 -117 -90 -7 -85 -15 -63 102 26 137 17 125 88 124
34 0 78 -5 97 -12z"/>
<path d="M6576 2923 c-19 -93 -156 -838 -156 -850 0 -11 17 -13 82 -11 l82 3
27 150 c16 83 31 165 34 183 l6 32 160 0 159 0 -5 -22 c-2 -13 -16 -86 -31
-163 -14 -77 -28 -150 -31 -162 -5 -23 -3 -23 81 -23 47 0 86 3 86 7 0 4 36
199 80 435 44 235 80 433 80 438 0 7 -30 10 -82 8 l-83 -3 -26 -140 c-14 -77
-29 -157 -33 -177 l-7 -38 -160 0 c-148 0 -160 1 -155 18 3 9 17 82 31 162 14
80 28 153 31 163 5 15 -3 17 -80 17 -84 0 -84 0 -90 -27z"/>
<path d="M8292 2880 c-7 -39 -12 -75 -12 -80 0 -6 35 -10 81 -10 l81 0 -6 -27
c-24 -118 -126 -674 -126 -687 0 -13 13 -16 79 -16 67 0 80 3 85 18 3 9 33
166 66 347 34 182 64 338 66 348 5 14 18 17 89 17 l83 0 12 73 c7 39 14 75 17
80 2 4 -110 7 -249 7 l-254 0 -12 -70z"/>
<path d="M9876 2923 c-19 -92 -156 -838 -156 -850 0 -11 17 -13 82 -11 l82 3
57 309 c32 170 60 313 61 317 2 5 59 -135 128 -311 l125 -320 92 0 c51 0 93 1
94 3 0 1 37 200 83 442 l82 440 -79 3 c-44 2 -82 1 -84 -2 -2 -2 -30 -142 -62
-310 -31 -168 -59 -308 -62 -311 -3 -3 -60 136 -126 307 l-120 313 -96 3 -95
3 -6 -28z"/>
</g>
</svg>
