{
    "accessors": {
        "accessor_index_0": {
            "bufferView": "bufferView_1",
            "byteOffset": 0,
            "byteStride": 0,
            "componentType": 5123,
            "count": 276,
            "max": [
                170
            ],
            "min": [
                0
            ],
            "type": "SCALAR"
        },
        "accessor_normal": {
            "bufferView": "bufferView_0",
            "byteOffset": 2052,
            "byteStride": 0,
            "componentType": 5126,
            "count": 171,
            "max": [
                0.8848882913589478,
                0.9304156303405762,
                -0.36649513244628906
            ],
            "min": [
                -0.8848882913589478,
                -0.9304156303405762,
                -1
            ],
            "type": "VEC3"
        },
        "accessor_position": {
            "bufferView": "bufferView_0",
            "byteOffset": 0,
            "byteStride": 0,
            "componentType": 5126,
            "count": 171,
            "max": [
                0.19450899958610535,
                0.18498900532722473,
                0
            ],
            "min": [
                -0.19450899958610535,
                -0.18498900532722473,
                -0.03890199959278107
            ],
            "type": "VEC3"
        },
        "accessor_uv": {
            "bufferView": "bufferView_0",
            "byteOffset": 4104,
            "byteStride": 0,
            "componentType": 5126,
            "count": 171,
            "max": [
                0.9584000110626221,
                0.9998999834060669
            ],
            "min": [
                0.00009999999747378752,
                0.00009999999747378752
            ],
            "type": "VEC2"
        }
    },
    "animations": {},
    "asset": {
        "generator": "OBJ2GLTF",
        "premultipliedAlpha": true,
        "profile": {
            "api": "WebGL",
            "version": "1.0"
        },
        "version": "1.0"
    },
    "bufferViews": {
        "bufferView_0": {
            "buffer": "l-sensor_buffer",
            "byteLength": 5472,
            "byteOffset": 0,
            "target": 34962
        },
        "bufferView_1": {
            "buffer": "l-sensor_buffer",
            "byteLength": 552,
            "byteOffset": 5472,
            "target": 34963
        }
    },
    "buffers": {
        "l-sensor_buffer": {
            "byteLength": 6024,
            "type": "arraybuffer",
            "uri": "data:application/octet-stream;base64,"
        }
    },
    "cameras": {},
    "extensions": {},
    "extensionsUsed": [],
    "images": {
        "image_None_Base_Color.png": {
            "uri": "None_Base_Color.png"
        },
        "image_None_Height.png": {
            "uri": "None_Height.png"
        },
        "image_None_Metallic.png": {
            "uri": "None_Metallic.png"
        },
        "image_None_Normal.png": {
            "uri": "None_Normal.png"
        },
        "image_None_Roughness.png": {
            "uri": "None_Roughness.png"
        }
    },
    "materials": {
        "material_None": {
            "extensions": {},
            "name": "None",
            "values": {
                "ambient": [
                    0,
                    0,
                    0,
                    1
                ],
                "baseColor": "texture_None_Base_Color.png",
                "diffuse": [
                    0.8,
                    0.8,
                    0.8,
                    1
                ],
                "emission": [
                    0,
                    0,
                    0,
                    1
                ],
                "height": "texture_None_Height.png",
                "metallic": "texture_None_Metallic.png",
                "normal": "texture_None_Normal.png",
                "roughness": "texture_None_Roughness.png",
                "shininess": 0,
                "specular": [
                    0.8,
                    0.8,
                    0.8,
                    1
                ],
                "transparency": 1
            }
        }
    },
    "meshes": {
        "mesh_l-sensor": {
            "name": "l-sensor",
            "primitives": [
                {
                    "attributes": {
                        "NORMAL": "accessor_normal",
                        "POSITION": "accessor_position",
                        "TEXCOORD_0": "accessor_uv"
                    },
                    "indices": "accessor_index_0",
                    "material": "material_None",
                    "mode": 4
                }
            ]
        }
    },
    "nodes": {
        "rootNode": {
            "children": [],
            "matrix": [
                1,
                0,
                0,
                0,
                0,
                1,
                0,
                0,
                0,
                0,
                1,
                0,
                0,
                0,
                0,
                1
            ],
            "meshes": [
                "mesh_l-sensor"
            ]
        }
    },
    "samplers": {
        "sampler_0": {}
    },
    "scene": "scene_l-sensor",
    "scenes": {
        "scene_l-sensor": {
            "nodes": [
                "rootNode"
            ]
        }
    },
    "skins": {},
    "textures": {
        "texture_None_Base_Color.png": {
            "format": 6407,
            "internalFormat": 6407,
            "sampler": "sampler_0",
            "source": "image_None_Base_Color.png",
            "target": 3553,
            "type": 5121
        },
        "texture_None_Height.png": {
            "format": 6403,
            "internalFormat": 33321,
            "sampler": "sampler_0",
            "source": "image_None_Height.png",
            "target": 3553,
            "type": 5121
        },
        "texture_None_Metallic.png": {
            "format": 6403,
            "internalFormat": 33321,
            "sampler": "sampler_0",
            "source": "image_None_Metallic.png",
            "target": 3553,
            "type": 5121
        },
        "texture_None_Normal.png": {
            "format": 6407,
            "internalFormat": 6407,
            "sampler": "sampler_0",
            "source": "image_None_Normal.png",
            "target": 3553,
            "type": 5121
        },
        "texture_None_Roughness.png": {
            "format": 6403,
            "internalFormat": 33321,
            "sampler": "sampler_0",
            "source": "image_None_Roughness.png",
            "target": 3553,
            "type": 5121
        }
    }
}