# Blender v2.78 (sub 0) OBJ File: 'l-sensor.blend'
# www.blender.org
mtllib l-sensor.mtl
o Torus
v 0.194509 -0.000000 -0.000000
v 0.116706 -0.000000 -0.000000
v 0.128100 -0.000000 -0.027508
v 0.155608 -0.000000 -0.038902
v 0.183115 -0.000000 -0.027508
v 0.157361 -0.114330 -0.000000
v 0.094417 -0.068598 -0.000000
v 0.103635 -0.075295 -0.027508
v 0.125889 -0.091464 -0.038902
v 0.148143 -0.107633 -0.027508
v 0.060107 -0.184989 -0.000000
v 0.036064 -0.110994 -0.000000
v 0.039585 -0.121830 -0.027508
v 0.048085 -0.147992 -0.038902
v 0.056586 -0.174153 -0.027508
v -0.060107 -0.184989 0.000000
v -0.036064 -0.110994 0.000000
v -0.039585 -0.121830 -0.027508
v -0.048085 -0.147992 -0.038902
v -0.056586 -0.174153 -0.027508
v -0.157361 -0.114330 0.000000
v -0.094417 -0.068598 0.000000
v -0.103635 -0.075295 -0.027508
v -0.125889 -0.091464 -0.038902
v -0.148143 -0.107632 -0.027508
v -0.194509 -0.000000 0.000000
v -0.116706 -0.000000 0.000000
v -0.128100 -0.000000 -0.027508
v -0.155608 -0.000000 -0.038902
v -0.183115 -0.000000 -0.027508
v -0.157361 0.114330 0.000000
v -0.094417 0.068598 0.000000
v -0.103635 0.075295 -0.027508
v -0.125889 0.091464 -0.038902
v -0.148143 0.107632 -0.027508
v -0.060107 0.184989 0.000000
v -0.036064 0.110994 0.000000
v -0.039585 0.121830 -0.027508
v -0.048085 0.147992 -0.038902
v -0.056586 0.174153 -0.027508
v 0.060107 0.184989 -0.000000
v 0.036064 0.110994 -0.000000
v 0.039585 0.121830 -0.027508
v 0.048085 0.147992 -0.038902
v 0.056586 0.174153 -0.027508
v 0.157361 0.114330 -0.000000
v 0.094417 0.068598 -0.000000
v 0.103635 0.075295 -0.027508
v 0.125889 0.091464 -0.038902
v 0.148143 0.107633 -0.027508
vt 0.2720 0.4321
vt 0.2106 0.4124
vt 0.2067 0.5887
vt 0.2665 0.5682
vt 0.1480 0.3901
vt 0.1440 0.6075
vt 0.0815 0.3674
vt 0.0776 0.6284
vt 0.0117 0.3432
vt 0.0001 0.6522
vt 0.3092 0.7316
vt 0.3449 0.6786
vt 0.2699 0.7848
vt 0.2287 0.8419
vt 0.1844 0.9062
vt 0.4784 0.7852
vt 0.4761 0.7205
vt 0.4781 0.8519
vt 0.4785 0.9223
vt 0.4809 0.9999
vt 0.6486 0.7296
vt 0.6090 0.6782
vt 0.6872 0.7840
vt 0.7287 0.8409
vt 0.7760 0.9025
vt 0.7543 0.5855
vt 0.6925 0.5669
vt 0.8173 0.6070
vt 0.8841 0.6288
vt 0.9584 0.6510
vt 0.7558 0.4079
vt 0.6953 0.4289
vt 0.8189 0.3883
vt 0.8855 0.3667
vt 0.9584 0.3409
vt 0.6529 0.2649
vt 0.6171 0.3174
vt 0.6918 0.2121
vt 0.7324 0.1554
vt 0.7757 0.0917
vt 0.4857 0.2118
vt 0.4886 0.2751
vt 0.4856 0.1462
vt 0.4848 0.0767
vt 0.4820 0.0001
vt 0.3182 0.2695
vt 0.3581 0.3211
vt 0.2797 0.2153
vt 0.2387 0.1590
vt 0.1923 0.0986
vn -0.8849 0.2875 -0.3665
vn -0.3798 0.1234 -0.9168
vn 0.3798 -0.1234 -0.9168
vn 0.8849 -0.2875 -0.3665
vn -0.5469 0.7527 -0.3665
vn -0.2347 0.3230 -0.9168
vn 0.2347 -0.3230 -0.9168
vn 0.5469 -0.7527 -0.3665
vn -0.0000 0.9304 -0.3665
vn -0.0000 0.3993 -0.9168
vn -0.0000 -0.3993 -0.9168
vn -0.0000 -0.9304 -0.3665
vn 0.5469 0.7527 -0.3665
vn 0.2347 0.3230 -0.9168
vn -0.2347 -0.3230 -0.9168
vn -0.5469 -0.7527 -0.3665
vn 0.8849 0.2875 -0.3665
vn 0.3798 0.1234 -0.9168
vn -0.3798 -0.1234 -0.9168
vn -0.8849 -0.2875 -0.3665
usemtl None
s off
f 2/1/1 3/2/1 8/3/1 7/4/1
f 3/2/2 4/5/2 9/6/2 8/3/2
f 4/5/3 5/7/3 10/8/3 9/6/3
f 1/9/4 6/10/4 10/8/4 5/7/4
f 7/4/5 8/3/5 13/11/5 12/12/5
f 8/3/6 9/6/6 14/13/6 13/11/6
f 9/6/7 10/8/7 15/14/7 14/13/7
f 10/8/8 6/10/8 11/15/8 15/14/8
f 12/12/9 13/11/9 18/16/9 17/17/9
f 13/11/10 14/13/10 19/18/10 18/16/10
f 14/13/11 15/14/11 20/19/11 19/18/11
f 15/14/12 11/15/12 16/20/12 20/19/12
f 17/17/13 18/16/13 23/21/13 22/22/13
f 18/16/14 19/18/14 24/23/14 23/21/14
f 19/18/15 20/19/15 25/24/15 24/23/15
f 20/19/16 16/20/16 21/25/16 25/24/16
f 22/22/17 23/21/17 28/26/17 27/27/17
f 23/21/18 24/23/18 29/28/18 28/26/18
f 24/23/19 25/24/19 30/29/19 29/28/19
f 25/24/20 21/25/20 26/30/20 30/29/20
f 27/27/4 28/26/4 33/31/4 32/32/4
f 28/26/3 29/28/3 34/33/3 33/31/3
f 29/28/2 30/29/2 35/34/2 34/33/2
f 30/29/1 26/30/1 31/35/1 35/34/1
f 32/32/8 33/31/8 38/36/8 37/37/8
f 33/31/7 34/33/7 39/38/7 38/36/7
f 34/33/6 35/34/6 40/39/6 39/38/6
f 35/34/5 31/35/5 36/40/5 40/39/5
f 37/37/12 38/36/12 43/41/12 42/42/12
f 38/36/11 39/38/11 44/43/11 43/41/11
f 39/38/10 40/39/10 45/44/10 44/43/10
f 40/39/9 36/40/9 41/45/9 45/44/9
f 42/42/16 43/41/16 48/46/16 47/47/16
f 43/41/15 44/43/15 49/48/15 48/46/15
f 44/43/14 45/44/14 50/49/14 49/48/14
f 45/44/13 41/45/13 46/50/13 50/49/13
f 47/47/20 48/46/20 3/2/20 2/1/20
f 48/46/19 49/48/19 4/5/19 3/2/19
f 49/48/18 50/49/18 5/7/18 4/5/18
f 50/49/17 46/50/17 1/9/17 5/7/17
o Sphere
v -0.000000 0.047726 -0.008576
v -0.000000 0.000000 -0.012782
v -0.000000 -0.047726 -0.008576
v 0.069649 0.000000 -0.000000
v -0.046731 -0.047726 0.000000
v -0.000000 -0.076694 -0.000000
v 0.046731 -0.047726 -0.000000
v 0.046731 0.047726 -0.000000
v -0.000000 0.076694 -0.000000
v -0.046730 0.047726 -0.000000
v -0.069649 0.000000 -0.000000
vt 0.5001 0.5031
vt 0.5364 0.5792
vt 0.4608 0.6180
vt 0.3860 0.5577
vt 0.4637 0.4270
vt 0.3860 0.4616
vt 0.5598 0.6281
vt 0.6141 0.4486
vt 0.6141 0.5446
vt 0.4403 0.3781
vt 0.5394 0.3883
vn 0.0000 0.0000 -1.0000
vn 0.0000 0.1847 -0.9828
vn 0.1790 0.1301 -0.9752
vn 0.1805 0.0000 -0.9836
vn 0.0000 -0.1847 -0.9828
vn 0.1790 -0.1301 -0.9752
vn 0.0000 0.2839 -0.9589
vn -0.1805 0.0000 -0.9836
vn -0.1790 0.1301 -0.9752
vn 0.0000 -0.2839 -0.9589
vn -0.1790 -0.1301 -0.9752
usemtl None
s 1
f 52/51/21 51/52/22 58/53/23 54/54/24
f 53/55/25 52/51/21 54/54/24 57/56/26
f 51/52/22 59/57/27 58/53/23
f 61/58/28 60/59/29 51/52/22 52/51/21
f 57/56/26 56/60/30 53/55/25
f 60/59/29 59/57/27 51/52/22
f 56/60/30 55/61/31 53/55/25
f 55/61/31 61/58/28 52/51/21 53/55/25
