{
    "accessors": {
        "accessor_0": {
            "bufferView": "bufferView_0",
            "byteOffset": 0,
            "byteStride": 0,
            "componentType": 5126,
            "count": 80,
            "max": [
                0.10000000149011612,
                0.10000000149011612,
                0.10000000149011612
            ],
            "min": [
                -0.10000000149011612,
                -0.10000000149011612,
                -0.10000000149011612
            ],
            "type": "VEC3"
        },
        "accessor_1": {
            "bufferView": "bufferView_0",
            "byteOffset": 960,
            "byteStride": 0,
            "componentType": 5126,
            "count": 80,
            "max": [
                0.8621000051498413,
                0.8944000005722046,
                0.4472000002861023
            ],
            "min": [
                -0.8621000051498413,
                -0.8944000005722046,
                -1
            ],
            "type": "VEC3"
        },
        "accessor_2": {
            "bufferView": "bufferView_1",
            "byteOffset": 0,
            "byteStride": 0,
            "componentType": 5123,
            "count": 120,
            "max": [
                79
            ],
            "min": [
                0
            ],
            "type": "SCALAR"
        },
        "accessor_3": {
            "bufferView": "bufferView_0",
            "byteOffset": 1920,
            "byteStride": 0,
            "componentType": 5126,
            "count": 64,
            "max": [
                0.03500000014901161,
                0.03500000014901161,
                0.10843200236558914
            ],
            "min": [
                -0.03500000014901161,
                -0.03500000014901161,
                0.00010599999950500205
            ],
            "type": "VEC3"
        },
        "accessor_4": {
            "bufferView": "bufferView_0",
            "byteOffset": 2688,
            "byteStride": 0,
            "componentType": 5126,
            "count": 64,
            "max": [
                1,
                1,
                1
            ],
            "min": [
                -1,
                -1,
                -0.4472000002861023
            ],
            "type": "VEC3"
        },
        "accessor_5": {
            "bufferView": "bufferView_1",
            "byteOffset": 240,
            "byteStride": 0,
            "componentType": 5123,
            "count": 102,
            "max": [
                63
            ],
            "min": [
                0
            ],
            "type": "SCALAR"
        },
        "accessor_6": {
            "bufferView": "bufferView_0",
            "byteOffset": 3456,
            "byteStride": 0,
            "componentType": 5126,
            "count": 24,
            "max": [
                -0.01230200007557869,
                0.04050000011920929,
                0.08817200362682343
            ],
            "min": [
                -0.02230199985206127,
                0.03550000116229057,
                0.0781719982624054
            ],
            "type": "VEC3"
        },
        "accessor_7": {
            "bufferView": "bufferView_0",
            "byteOffset": 3744,
            "byteStride": 0,
            "componentType": 5126,
            "count": 24,
            "max": [
                1,
                1,
                1
            ],
            "min": [
                -1,
                -1,
                -1
            ],
            "type": "VEC3"
        },
        "accessor_8": {
            "bufferView": "bufferView_1",
            "byteOffset": 444,
            "byteStride": 0,
            "componentType": 5123,
            "count": 36,
            "max": [
                23
            ],
            "min": [
                0
            ],
            "type": "SCALAR"
        }
    },
    "animations": {},
    "asset": {
        "generator": "obj2gltf",
        "premultipliedAlpha": true,
        "profile": {
            "api": "WebGL",
            "version": "1.0"
        },
        "version": "1.0"
    },
    "bufferViews": {
        "bufferView_0": {
            "buffer": "buffer",
            "byteLength": 4032,
            "byteOffset": 0,
            "target": 34962
        },
        "bufferView_1": {
            "buffer": "buffer",
            "byteLength": 516,
            "byteOffset": 4032,
            "target": 34963
        }
    },
    "buffers": {
        "buffer": {
            "byteLength": 4548,
            "type": "arraybuffer",
            "uri": "data:application/octet-stream;base64,"
        }
    },
    "cameras": {},
    "extensionsUsed": [],
    "images": {},
    "materials": {
        "None": {
            "values": {
                "ambient": [
                    0,
                    0,
                    0,
                    1
                ],
                "diffuse": [
                    0.8,
                    0.8,
                    0.8,
                    1
                ],
                "emission": [
                    0,
                    0,
                    0,
                    1
                ],
                "shininess": 0,
                "specular": [
                    0.8,
                    0.8,
                    0.8,
                    1
                ],
                "transparency": 1
            }
        }
    },
    "meshes": {
        "Cone.001_Cone.002-Mesh": {
            "name": "Cone.001_Cone.002-Mesh",
            "primitives": [
                {
                    "attributes": {
                        "NORMAL": "accessor_1",
                        "POSITION": "accessor_0"
                    },
                    "indices": "accessor_2",
                    "material": "None",
                    "mode": 4
                }
            ]
        },
        "Cube.001_Cube.006-Mesh": {
            "name": "Cube.001_Cube.006-Mesh",
            "primitives": [
                {
                    "attributes": {
                        "NORMAL": "accessor_7",
                        "POSITION": "accessor_6"
                    },
                    "indices": "accessor_8",
                    "material": "None",
                    "mode": 4
                }
            ]
        },
        "Cube.002_Cube.007-Mesh": {
            "name": "Cube.002_Cube.007-Mesh",
            "primitives": [
                {
                    "attributes": {
                        "NORMAL": "accessor_4",
                        "POSITION": "accessor_3"
                    },
                    "indices": "accessor_5",
                    "material": "None",
                    "mode": 4
                }
            ]
        }
    },
    "nodes": {
        "Cone.001_Cone.002": {
            "children": [],
            "matrix": [
                1,
                0,
                0,
                0,
                0,
                1,
                0,
                0,
                0,
                0,
                1,
                0,
                0,
                0,
                0,
                1
            ],
            "meshes": [
                "Cone.001_Cone.002-Mesh"
            ],
            "name": "Cone.001_Cone.002"
        },
        "Cube.001_Cube.006": {
            "children": [],
            "matrix": [
                1,
                0,
                0,
                0,
                0,
                1,
                0,
                0,
                0,
                0,
                1,
                0,
                0,
                0,
                0,
                1
            ],
            "meshes": [
                "Cube.001_Cube.006-Mesh"
            ],
            "name": "Cube.001_Cube.006"
        },
        "Cube.002_Cube.007": {
            "children": [],
            "matrix": [
                1,
                0,
                0,
                0,
                0,
                1,
                0,
                0,
                0,
                0,
                1,
                0,
                0,
                0,
                0,
                1
            ],
            "meshes": [
                "Cube.002_Cube.007-Mesh"
            ],
            "name": "Cube.002_Cube.007"
        }
    },
    "samplers": {},
    "scene": "scene",
    "scenes": {
        "scene": {
            "nodes": [
                "Cone.001_Cone.002",
                "Cube.002_Cube.007",
                "Cube.001_Cube.006"
            ]
        }
    },
    "skins": {},
    "textures": {}
}