{
    "accessors": {
        "accessor_index_0": {
            "bufferView": "bufferView_index",
            "byteOffset": 0,
            "byteStride": 0,
            "componentType": 5123,
            "count": 258,
            "type": "SCALAR"
        },
        "accessor_normal": {
            "bufferView": "bufferView_vertex",
            "byteOffset": 12,
            "byteStride": 24,
            "componentType": 5126,
            "count": 168,
            "type": "VEC3"
        },
        "accessor_position": {
            "bufferView": "bufferView_vertex",
            "byteOffset": 0,
            "byteStride": 24,
            "componentType": 5126,
            "count": 168,
            "max": [
                0.1,
                0.1,
                0.108432
            ],
            "min": [
                -0.1,
                -0.1,
                -0.1
            ],
            "type": "VEC3"
        }
    },
    "asset": {
        "generator": "OBJ2GLTF",
        "premultipliedAlpha": true,
        "profile": {
            "api": "WebGL",
            "version": "1.0"
        },
        "version": 1
    },
    "bufferViews": {
        "bufferView_index": {
            "buffer": "buffer_spotlight-01",
            "byteLength": 516,
            "byteOffset": 4032,
            "target": 34963
        },
        "bufferView_vertex": {
            "buffer": "buffer_spotlight-01",
            "byteLength": 4032,
            "byteOffset": 0,
            "target": 34962
        }
    },
    "buffers": {
        "buffer_spotlight-01": {
            "byteLength": 4548,
            "type": "arraybuffer",
            "uri": "spotlight-01.bin"
        }
    },
    "extensionsUsed": [],
    "images": {},
    "materials": {
        "material_None": {
            "extensions": {},
            "name": "None",
            "values": {
                "ambient": [
                    0,
                    0,
                    0,
                    1
                ],
                "diffuse": [
                    0.8,
                    0.8,
                    0.8,
                    1
                ],
                "emission": [
                    0,
                    0,
                    0,
                    1
                ],
                "shininess": 0,
                "specular": [
                    0.8,
                    0.8,
                    0.8,
                    1
                ],
                "transparency": 1
            }
        }
    },
    "meshes": {
        "mesh_spotlight-01": {
            "name": "spotlight-01",
            "primitives": [
                {
                    "attributes": {
                        "NORMAL": "accessor_normal",
                        "POSITION": "accessor_position"
                    },
                    "indices": "accessor_index_0",
                    "material": "material_None",
                    "mode": 4
                }
            ]
        }
    },
    "nodes": {
        "node_spotlight-01": {
            "children": [],
            "matrix": [
                1,
                0,
                0,
                0,
                0,
                1,
                0,
                0,
                0,
                0,
                1,
                0,
                0,
                0,
                0,
                1
            ],
            "meshes": [
                "mesh_spotlight-01"
            ],
            "name": "spotlight-01"
        }
    },
    "samplers": {
        "sampler_0": {}
    },
    "scene": "scene_spotlight-01",
    "scenes": {
        "scene_spotlight-01": {
            "nodes": [
                "node_spotlight-01"
            ]
        }
    },
    "textures": {}
}