{
    "accessors": {
        "accessor_0": {
            "bufferView": "bufferView_0",
            "byteOffset": 0,
            "byteStride": 0,
            "componentType": 5126,
            "count": 24,
            "max": [
                0.10000000149011612,
                1,
                1
            ],
            "min": [
                0,
                0,
                0
            ],
            "type": "VEC3"
        },
        "accessor_1": {
            "bufferView": "bufferView_0",
            "byteOffset": 288,
            "byteStride": 0,
            "componentType": 5126,
            "count": 24,
            "max": [
                1,
                1,
                1
            ],
            "min": [
                -1,
                -1,
                -1
            ],
            "type": "VEC3"
        },
        "accessor_2": {
            "bufferView": "bufferView_1",
            "byteOffset": 0,
            "byteStride": 0,
            "componentType": 5123,
            "count": 36,
            "max": [
                23
            ],
            "min": [
                0
            ],
            "type": "SCALAR"
        }
    },
    "animations": {},
    "asset": {
        "generator": "obj2gltf",
        "premultipliedAlpha": true,
        "profile": {
            "api": "WebGL",
            "version": "1.0"
        },
        "version": "1.0"
    },
    "bufferViews": {
        "bufferView_0": {
            "buffer": "buffer",
            "byteLength": 576,
            "byteOffset": 0,
            "target": 34962
        },
        "bufferView_1": {
            "buffer": "buffer",
            "byteLength": 72,
            "byteOffset": 576,
            "target": 34963
        }
    },
    "buffers": {
        "buffer": {
            "byteLength": 648,
            "type": "arraybuffer",
            "uri": "data:application/octet-stream;base64,"
        }
    },
    "cameras": {},
    "extensionsUsed": [],
    "images": {},
    "materials": {
        "Material": {
            "values": {
                "ambient": [
                    0,
                    0,
                    0,
                    1
                ],
                "diffuse": [
                    0.5,
                    0.5,
                    0.5,
                    1
                ],
                "emission": [
                    0,
                    0,
                    0,
                    1
                ],
                "shininess": 0,
                "specular": [
                    0,
                    0,
                    0,
                    1
                ],
                "transparency": 1
            }
        }
    },
    "meshes": {
        "Cube-Mesh": {
            "name": "Cube-Mesh",
            "primitives": [
                {
                    "attributes": {
                        "NORMAL": "accessor_1",
                        "POSITION": "accessor_0"
                    },
                    "indices": "accessor_2",
                    "material": "Material",
                    "mode": 4
                }
            ]
        }
    },
    "nodes": {
        "Cube": {
            "children": [],
            "matrix": [
                1,
                0,
                0,
                0,
                0,
                1,
                0,
                0,
                0,
                0,
                1,
                0,
                0,
                0,
                0,
                1
            ],
            "meshes": [
                "Cube-Mesh"
            ],
            "name": "Cube"
        }
    },
    "samplers": {},
    "scene": "scene",
    "scenes": {
        "scene": {
            "nodes": [
                "Cube"
            ]
        }
    },
    "skins": {},
    "textures": {}
}