{
    "accessors": {
        "accessor_index_0": {
            "bufferView": "bufferView_index",
            "byteOffset": 0,
            "byteStride": 0,
            "componentType": 5123,
            "count": 36,
            "type": "SCALAR"
        },
        "accessor_normal": {
            "bufferView": "bufferView_vertex",
            "byteOffset": 12,
            "byteStride": 24,
            "componentType": 5126,
            "count": 24,
            "type": "VEC3"
        },
        "accessor_position": {
            "bufferView": "bufferView_vertex",
            "byteOffset": 0,
            "byteStride": 24,
            "componentType": 5126,
            "count": 24,
            "max": [
                0.1,
                1,
                1
            ],
            "min": [
                0,
                0,
                0
            ],
            "type": "VEC3"
        }
    },
    "asset": {
        "generator": "OBJ2GLTF",
        "premultipliedAlpha": true,
        "profile": {
            "api": "WebGL",
            "version": "1.0"
        },
        "version": 1
    },
    "bufferViews": {
        "bufferView_index": {
            "buffer": "buffer_wall-1x1",
            "byteLength": 72,
            "byteOffset": 576,
            "target": 34963
        },
        "bufferView_vertex": {
            "buffer": "buffer_wall-1x1",
            "byteLength": 576,
            "byteOffset": 0,
            "target": 34962
        }
    },
    "buffers": {
        "buffer_wall-1x1": {
            "byteLength": 648,
            "type": "arraybuffer",
            "uri": "wall-1x1.bin"
        }
    },
    "extensionsUsed": [],
    "images": {},
    "materials": {
        "material_Material": {
            "extensions": {},
            "name": "Material",
            "values": {
                "ambient": [
                    1,
                    1,
                    1,
                    1
                ],
                "diffuse": [
                    0.64,
                    0.64,
                    0.64,
                    1
                ],
                "emission": [
                    0,
                    0,
                    0,
                    1
                ],
                "shininess": 96.078431,
                "specular": [
                    0.5,
                    0.5,
                    0.5,
                    1
                ],
                "transparency": 1
            }
        }
    },
    "meshes": {
        "mesh_wall-1x1": {
            "name": "wall-1x1",
            "primitives": [
                {
                    "attributes": {
                        "NORMAL": "accessor_normal",
                        "POSITION": "accessor_position"
                    },
                    "indices": "accessor_index_0",
                    "material": "material_Material",
                    "mode": 4
                }
            ]
        }
    },
    "nodes": {
        "node_wall-1x1": {
            "children": [],
            "matrix": [
                1,
                0,
                0,
                0,
                0,
                1,
                0,
                0,
                0,
                0,
                1,
                0,
                0,
                0,
                0,
                1
            ],
            "meshes": [
                "mesh_wall-1x1"
            ],
            "name": "wall-1x1"
        }
    },
    "samplers": {
        "sampler_0": {}
    },
    "scene": "scene_wall-1x1",
    "scenes": {
        "scene_wall-1x1": {
            "nodes": [
                "node_wall-1x1"
            ]
        }
    },
    "textures": {}
}